{"glyphs":{"0":{"ha":747,"x_min":110,"x_max":638,"o":"m 374 932 q 638 460 638 932 q 374 -12 638 -12 q 110 460 110 -12 q 374 932 110 932 m 374 921 q 121 460 121 921 q 374 -3 121 -3 q 625 460 625 -3 q 563 806 625 690 q 374 921 501 921 z "},"1":{"ha":538,"x_min":81,"x_max":347,"o":"m 347 0 l 336 0 l 336 904 l 86 744 l 81 754 l 338 917 l 347 917 l 347 0 z "},"2":{"ha":643,"x_min":68,"x_max":551,"o":"m 306 932 q 429 901 376 932 q 510 819 482 871 q 538 704 538 767 q 503 540 538 615 q 393 370 468 464 q 133 67 318 276 l 83 11 l 551 11 l 549 0 l 68 0 l 68 11 l 90 36 q 372 361 290 261 q 490 538 454 461 q 526 703 526 615 q 467 859 526 797 q 306 921 407 921 q 180 892 233 921 q 78 803 126 863 l 68 808 q 176 901 121 871 q 306 932 231 932 z "},"3":{"ha":654,"x_min":46,"x_max":551,"o":"m 300 932 q 465 871 404 932 q 525 713 525 810 q 468 555 525 611 q 328 490 411 499 q 489 424 426 486 q 551 249 551 363 q 481 60 551 132 q 293 -12 410 -12 q 156 14 213 -12 q 46 100 99 40 l 54 107 q 160 22 106 47 q 293 -3 215 -3 q 472 67 404 -3 q 539 249 539 138 q 474 424 539 364 q 294 485 408 485 l 246 485 l 247 494 l 297 494 q 403 519 354 494 q 483 592 453 543 q 514 711 514 640 q 456 863 514 806 q 300 921 399 921 q 79 825 174 921 l 72 832 q 300 932 168 932 z "},"4":{"ha":689,"x_min":75,"x_max":633,"o":"m 633 268 l 503 268 l 503 0 l 492 0 l 492 268 l 75 268 l 75 279 l 364 932 l 374 928 l 86 279 l 492 279 l 493 581 l 503 581 l 503 279 l 633 279 l 633 268 z "},"5":{"ha":654,"x_min":67,"x_max":561,"o":"m 531 907 l 136 907 l 136 508 q 317 571 215 571 q 497 498 432 571 q 561 296 561 425 q 492 72 561 157 q 296 -12 422 -12 q 67 89 154 -12 l 75 96 q 172 23 115 49 q 296 -3 228 -3 q 483 80 417 -3 q 550 296 550 163 q 488 490 550 421 q 317 560 426 560 q 220 544 261 560 q 135 497 179 529 l 125 497 l 125 917 l 532 917 l 531 907 z "},"6":{"ha":704,"x_min":110,"x_max":615,"o":"m 385 589 q 553 517 490 589 q 615 308 615 446 q 553 72 615 157 q 376 -12 490 -12 q 175 102 240 -12 q 110 399 110 217 q 145 676 110 556 q 250 865 181 797 q 418 932 319 932 q 560 882 499 932 l 553 874 q 418 921 497 921 q 257 854 324 921 q 156 672 190 788 q 121 410 122 557 q 385 589 228 589 m 376 -3 q 545 81 486 -3 q 604 308 604 164 q 544 510 604 442 q 383 579 485 579 q 121 394 231 579 q 185 107 122 217 q 376 -3 247 -3 z "},"7":{"ha":603,"x_min":60,"x_max":536,"o":"m 536 908 l 146 -7 l 135 -3 l 525 907 l 60 907 l 60 917 l 536 917 l 536 908 z "},"8":{"ha":728,"x_min":94,"x_max":633,"o":"m 417 474 q 585 372 536 425 q 633 229 633 319 q 560 54 633 121 q 367 -12 488 -12 q 167 54 240 -12 q 94 235 94 121 q 149 396 94 331 q 311 506 203 461 q 176 592 215 543 q 136 714 136 640 q 167 828 136 779 q 251 905 199 878 q 364 932 303 932 q 528 874 461 932 q 594 713 594 815 q 553 578 594 633 q 417 474 513 524 m 147 713 q 190 592 147 639 q 333 507 233 546 l 407 478 q 542 580 501 528 q 583 711 583 632 q 521 865 583 810 q 364 921 458 921 q 256 895 306 921 q 176 822 206 869 q 147 713 147 775 m 367 -1 q 552 62 482 -1 q 622 229 622 125 q 597 338 622 294 q 520 412 571 381 q 379 479 469 443 l 324 501 q 158 391 211 454 q 106 235 106 328 q 176 63 106 126 q 367 -1 246 -1 z "},"9":{"ha":697,"x_min":89,"x_max":594,"o":"m 342 932 q 534 833 474 932 q 594 547 594 733 q 546 272 594 382 q 406 95 497 163 q 174 -17 314 28 l 171 -7 q 395 100 307 36 q 531 268 483 164 q 583 528 579 372 q 325 360 488 360 q 203 394 257 360 q 119 491 150 428 q 89 639 89 554 q 122 794 89 728 q 212 896 154 860 q 342 932 269 932 m 326 371 q 583 544 485 371 q 525 826 582 731 q 342 921 468 921 q 217 887 272 921 q 131 789 163 853 q 100 638 100 725 q 129 497 100 557 q 210 403 158 436 q 326 371 261 371 z "},"\r":{"ha":425,"x_min":0,"x_max":0,"o":""}," ":{"ha":425,"x_min":0,"x_max":0,"o":""},"A":{"ha":772,"x_min":46,"x_max":728,"o":"m 613 292 l 160 292 l 57 0 l 46 0 l 379 944 l 392 944 l 728 0 l 715 0 l 613 292 m 608 303 l 385 936 l 164 303 l 608 303 z "},"Á":{"ha":772,"x_min":46,"x_max":728,"o":"m 613 292 l 160 292 l 57 0 l 46 0 l 379 944 l 392 944 l 728 0 l 715 0 l 613 292 m 608 303 l 385 936 l 164 303 l 608 303 m 504 1165 l 268 1068 l 264 1076 l 497 1178 l 504 1165 z "},"Ă":{"ha":772,"x_min":46,"x_max":728,"o":"m 613 292 l 160 292 l 57 0 l 46 0 l 379 944 l 392 944 l 728 0 l 715 0 l 613 292 m 608 303 l 385 936 l 164 303 l 608 303 m 388 1074 q 297 1100 333 1074 q 249 1164 261 1126 l 257 1167 q 305 1107 271 1129 q 388 1085 339 1085 q 469 1107 435 1085 q 517 1167 503 1129 l 525 1164 q 478 1100 514 1126 q 388 1074 442 1074 z "},"Ắ":{"ha":772,"x_min":46,"x_max":728,"o":"m 378 1151 l 371 1157 l 497 1311 l 507 1303 l 378 1151 m 388 1024 q 297 1050 333 1024 q 249 1114 261 1076 l 257 1117 q 305 1057 271 1079 q 388 1035 339 1035 q 469 1057 435 1035 q 517 1117 503 1079 l 525 1114 q 478 1050 514 1076 q 388 1024 442 1024 m 613 292 l 160 292 l 57 0 l 46 0 l 379 944 l 392 944 l 728 0 l 715 0 l 613 292 m 608 303 l 385 936 l 164 303 l 608 303 z "},"Ặ":{"ha":772,"x_min":46,"x_max":728,"o":"m 613 292 l 160 292 l 57 0 l 46 0 l 379 944 l 392 944 l 728 0 l 715 0 l 613 292 m 608 303 l 385 936 l 164 303 l 608 303 m 388 1074 q 297 1100 333 1074 q 249 1164 261 1126 l 257 1167 q 305 1107 271 1129 q 388 1085 339 1085 q 469 1107 435 1085 q 517 1167 503 1129 l 525 1164 q 478 1100 514 1126 q 388 1074 442 1074 m 386 -174 q 376 -169 381 -174 q 372 -160 372 -165 q 376 -150 372 -154 q 386 -146 381 -146 q 397 -150 393 -146 q 401 -160 401 -154 q 397 -169 401 -165 q 386 -174 393 -174 z "},"Ằ":{"ha":772,"x_min":46,"x_max":728,"o":"m 404 1151 l 275 1303 l 283 1311 l 411 1157 l 404 1151 m 388 1024 q 297 1050 333 1024 q 249 1114 261 1076 l 257 1117 q 305 1057 271 1079 q 388 1035 339 1035 q 469 1057 435 1035 q 517 1117 503 1079 l 525 1114 q 478 1050 514 1076 q 388 1024 442 1024 m 613 292 l 160 292 l 57 0 l 46 0 l 379 944 l 392 944 l 728 0 l 715 0 l 613 292 m 608 303 l 385 936 l 164 303 l 608 303 z "},"Ẳ":{"ha":772,"x_min":46,"x_max":728,"o":"m 394 1325 q 315 1301 354 1325 l 311 1311 q 396 1335 353 1335 q 461 1313 436 1335 q 486 1254 486 1292 q 392 1169 486 1176 l 392 1114 l 381 1114 l 381 1176 q 449 1198 424 1181 q 474 1254 474 1215 q 452 1306 474 1288 q 394 1325 431 1325 m 388 1024 q 297 1050 333 1024 q 249 1114 261 1076 l 257 1117 q 305 1057 271 1079 q 388 1035 339 1035 q 469 1057 435 1035 q 517 1117 503 1079 l 525 1114 q 478 1050 514 1076 q 388 1024 442 1024 m 613 292 l 160 292 l 57 0 l 46 0 l 379 944 l 392 944 l 728 0 l 715 0 l 613 292 m 608 303 l 385 936 l 164 303 l 608 303 z "},"Ẵ":{"ha":772,"x_min":46,"x_max":728,"o":"m 310 1268 q 266 1257 285 1268 q 225 1219 247 1246 l 217 1225 q 263 1267 242 1254 q 310 1279 283 1279 q 345 1272 328 1279 q 388 1249 363 1264 q 430 1226 411 1233 q 468 1218 449 1218 q 515 1230 496 1218 q 556 1271 533 1242 l 563 1267 q 519 1222 540 1235 q 468 1208 497 1208 q 428 1216 447 1208 q 382 1240 410 1224 q 340 1262 354 1256 q 310 1268 326 1268 m 388 1035 q 469 1057 435 1035 q 517 1117 503 1079 l 525 1114 q 478 1050 514 1076 q 388 1024 442 1024 q 297 1050 333 1024 q 249 1114 261 1076 l 257 1117 q 305 1057 271 1079 q 388 1035 339 1035 m 613 292 l 160 292 l 57 0 l 46 0 l 379 944 l 392 944 l 728 0 l 715 0 l 613 292 m 608 303 l 385 936 l 164 303 l 608 303 z "},"Ǎ":{"ha":772,"x_min":46,"x_max":728,"o":"m 613 292 l 160 292 l 57 0 l 46 0 l 379 944 l 392 944 l 728 0 l 715 0 l 613 292 m 608 303 l 385 936 l 164 303 l 608 303 m 544 1175 l 389 1061 l 382 1061 l 228 1175 l 235 1181 l 385 1072 l 538 1181 l 544 1175 z "},"Â":{"ha":772,"x_min":46,"x_max":728,"o":"m 613 292 l 160 292 l 57 0 l 46 0 l 379 944 l 392 944 l 728 0 l 715 0 l 613 292 m 608 303 l 385 936 l 164 303 l 608 303 m 385 1176 l 235 1068 l 228 1075 l 382 1189 l 389 1189 l 544 1075 l 538 1068 l 385 1176 z "},"Ấ":{"ha":772,"x_min":46,"x_max":728,"o":"m 501 1135 l 494 1140 l 621 1294 l 631 1286 l 501 1135 m 233 1025 l 226 1032 l 381 1146 l 388 1146 l 543 1032 l 536 1025 l 383 1133 l 233 1025 m 613 292 l 160 292 l 57 0 l 46 0 l 379 944 l 392 944 l 728 0 l 715 0 l 613 292 m 608 303 l 385 936 l 164 303 l 608 303 z "},"Ậ":{"ha":772,"x_min":46,"x_max":728,"o":"m 613 292 l 160 292 l 57 0 l 46 0 l 379 944 l 392 944 l 728 0 l 715 0 l 613 292 m 608 303 l 385 936 l 164 303 l 608 303 m 385 1176 l 235 1068 l 228 1075 l 382 1189 l 389 1189 l 544 1075 l 538 1068 l 385 1176 m 386 -174 q 376 -169 381 -174 q 372 -160 372 -165 q 376 -150 372 -154 q 386 -146 381 -146 q 397 -150 393 -146 q 401 -160 401 -154 q 397 -169 401 -165 q 386 -174 393 -174 z "},"Ầ":{"ha":772,"x_min":46,"x_max":728,"o":"m 268 1135 l 139 1286 l 147 1294 l 275 1140 l 268 1135 m 228 1032 l 382 1146 l 389 1146 l 544 1032 l 538 1025 l 385 1133 l 235 1025 l 228 1032 m 613 292 l 160 292 l 57 0 l 46 0 l 379 944 l 392 944 l 728 0 l 715 0 l 613 292 m 608 303 l 385 936 l 164 303 l 608 303 z "},"Ẩ":{"ha":772,"x_min":46,"x_max":728,"o":"m 524 1314 q 444 1290 483 1314 l 440 1300 q 525 1324 482 1324 q 590 1302 565 1324 q 615 1243 615 1281 q 521 1158 615 1165 l 521 1103 l 510 1103 l 510 1165 q 578 1187 553 1169 q 603 1243 603 1204 q 581 1295 603 1276 q 524 1314 560 1314 m 233 1025 l 226 1032 l 381 1146 l 388 1146 l 543 1032 l 536 1025 l 383 1133 l 233 1025 m 613 292 l 160 292 l 57 0 l 46 0 l 379 944 l 392 944 l 728 0 l 715 0 l 613 292 m 608 303 l 385 936 l 164 303 l 608 303 z "},"Ẫ":{"ha":772,"x_min":46,"x_max":728,"o":"m 303 1272 q 259 1261 278 1272 q 218 1224 240 1250 l 210 1229 q 256 1271 235 1258 q 303 1283 276 1283 q 338 1276 321 1283 q 381 1253 356 1268 q 423 1230 404 1238 q 461 1222 442 1222 q 508 1234 489 1222 q 549 1275 526 1246 l 556 1271 q 512 1226 533 1239 q 461 1213 490 1213 q 422 1220 440 1213 q 375 1244 403 1228 q 333 1266 347 1260 q 303 1272 319 1272 m 388 1146 l 543 1032 l 536 1025 l 383 1133 l 233 1025 l 226 1032 l 381 1146 l 388 1146 m 613 292 l 160 292 l 57 0 l 46 0 l 379 944 l 392 944 l 728 0 l 715 0 l 613 292 m 608 303 l 385 936 l 164 303 l 608 303 z "},"Ȁ":{"ha":772,"x_min":46,"x_max":728,"o":"m 613 292 l 160 292 l 57 0 l 46 0 l 379 944 l 392 944 l 728 0 l 715 0 l 613 292 m 608 303 l 385 936 l 164 303 l 608 303 m 326 1146 l 317 1140 l 221 1314 l 232 1319 l 326 1146 m 467 1149 l 458 1144 l 369 1310 l 381 1315 l 467 1149 z "},"Ä":{"ha":772,"x_min":46,"x_max":728,"o":"m 613 292 l 160 292 l 57 0 l 46 0 l 379 944 l 392 944 l 728 0 l 715 0 l 613 292 m 608 303 l 385 936 l 164 303 l 608 303 m 279 1143 q 293 1129 293 1143 q 279 1115 293 1115 q 269 1119 274 1115 q 265 1129 265 1124 q 279 1143 265 1143 m 493 1143 q 507 1129 507 1143 q 493 1115 507 1115 q 483 1119 488 1115 q 479 1129 479 1124 q 493 1143 479 1143 z "},"Ǟ":{"ha":772,"x_min":46,"x_max":728,"o":"m 525 1164 l 254 1164 l 254 1175 l 525 1175 l 525 1164 m 265 1044 q 279 1058 265 1058 q 293 1044 293 1058 q 279 1031 293 1031 q 269 1035 274 1031 q 265 1044 265 1039 m 479 1044 q 493 1058 479 1058 q 507 1044 507 1058 q 493 1031 507 1031 q 483 1035 488 1031 q 479 1044 479 1039 m 613 292 l 160 292 l 57 0 l 46 0 l 379 944 l 392 944 l 728 0 l 715 0 l 613 292 m 608 303 l 385 936 l 164 303 l 608 303 z "},"Ȧ":{"ha":772,"x_min":46,"x_max":728,"o":"m 613 292 l 160 292 l 57 0 l 46 0 l 379 944 l 392 944 l 728 0 l 715 0 l 613 292 m 608 303 l 385 936 l 164 303 l 608 303 m 386 1163 q 397 1158 393 1163 q 401 1149 401 1154 q 397 1139 401 1143 q 386 1135 393 1135 q 376 1139 381 1135 q 372 1149 372 1143 q 376 1158 372 1154 q 386 1163 381 1163 z "},"Ạ":{"ha":772,"x_min":46,"x_max":728,"o":"m 613 292 l 160 292 l 57 0 l 46 0 l 379 944 l 392 944 l 728 0 l 715 0 l 613 292 m 608 303 l 385 936 l 164 303 l 608 303 m 386 -174 q 376 -169 381 -174 q 372 -160 372 -165 q 376 -150 372 -154 q 386 -146 381 -146 q 397 -150 393 -146 q 401 -160 401 -154 q 397 -169 401 -165 q 386 -174 393 -174 z "},"Ǡ":{"ha":772,"x_min":46,"x_max":728,"o":"m 524 1163 l 253 1163 l 253 1174 l 524 1174 l 524 1163 m 371 1056 q 375 1065 371 1061 q 385 1069 379 1069 q 396 1065 392 1069 q 400 1056 400 1061 q 396 1046 400 1050 q 385 1042 392 1042 q 375 1046 379 1042 q 371 1056 371 1050 m 613 292 l 160 292 l 57 0 l 46 0 l 379 944 l 392 944 l 728 0 l 715 0 l 613 292 m 608 303 l 385 936 l 164 303 l 608 303 z "},"À":{"ha":772,"x_min":46,"x_max":728,"o":"m 613 292 l 160 292 l 57 0 l 46 0 l 379 944 l 392 944 l 728 0 l 715 0 l 613 292 m 608 303 l 385 936 l 164 303 l 608 303 m 514 1076 l 510 1068 l 274 1165 l 279 1178 l 514 1076 z "},"Ả":{"ha":772,"x_min":46,"x_max":728,"o":"m 613 292 l 160 292 l 57 0 l 46 0 l 379 944 l 392 944 l 728 0 l 715 0 l 613 292 m 608 303 l 385 936 l 164 303 l 608 303 m 376 1144 q 444 1166 419 1149 q 469 1222 469 1183 q 448 1274 469 1256 q 390 1293 426 1293 q 311 1269 350 1293 l 307 1279 q 392 1303 349 1303 q 457 1281 432 1303 q 482 1222 482 1260 q 388 1138 482 1144 l 388 1082 l 376 1082 l 376 1144 z "},"Ȃ":{"ha":772,"x_min":46,"x_max":728,"o":"m 613 292 l 160 292 l 57 0 l 46 0 l 379 944 l 392 944 l 728 0 l 715 0 l 613 292 m 608 303 l 385 936 l 164 303 l 608 303 m 388 1225 q 478 1197 443 1225 q 525 1122 514 1168 l 517 1119 q 469 1190 503 1165 q 388 1215 436 1215 q 304 1190 338 1215 q 257 1119 271 1165 l 249 1122 q 297 1197 261 1168 q 388 1225 332 1225 z "},"Ɑ":{"ha":911,"x_min":115,"x_max":801,"o":"m 728 136 q 743 50 728 78 q 801 4 758 22 l 799 -6 q 735 42 751 14 q 717 126 718 69 q 606 22 669 57 q 456 -12 543 -12 q 278 42 356 -12 q 158 203 201 97 q 115 456 115 308 q 161 726 115 613 q 288 899 207 839 q 471 958 368 958 q 717 840 622 958 l 718 944 l 728 944 l 728 136 m 456 -1 q 606 35 543 -1 q 717 142 669 71 l 717 825 q 471 949 619 949 q 292 890 371 949 q 170 721 214 832 q 126 456 126 610 q 168 208 126 311 q 284 52 210 106 q 456 -1 358 -1 z "},"Ā":{"ha":772,"x_min":46,"x_max":728,"o":"m 613 292 l 160 292 l 57 0 l 46 0 l 379 944 l 392 944 l 728 0 l 715 0 l 613 292 m 608 303 l 385 936 l 164 303 l 608 303 m 251 1131 l 251 1142 l 522 1142 l 522 1131 l 251 1131 z "},"Ą":{"ha":772,"x_min":46,"x_max":728,"o":"m 726 0 q 595 -70 647 -31 q 543 -167 543 -110 q 571 -237 543 -212 q 646 -262 599 -262 q 719 -251 681 -262 l 719 -262 q 646 -274 679 -274 q 563 -246 593 -274 q 532 -167 532 -218 q 582 -69 532 -110 q 714 4 632 -28 l 613 292 l 160 292 l 57 0 l 46 0 l 379 944 l 392 944 l 728 0 l 726 0 m 608 303 l 385 936 l 164 303 l 608 303 z "},"Å":{"ha":772,"x_min":46,"x_max":728,"o":"m 613 292 l 160 292 l 57 0 l 46 0 l 379 944 l 392 944 l 728 0 l 715 0 l 613 292 m 608 303 l 385 936 l 164 303 l 608 303 m 386 1269 q 456 1244 431 1269 q 481 1175 481 1218 q 455 1106 481 1132 q 386 1081 429 1081 q 317 1106 342 1081 q 292 1174 292 1132 q 317 1243 292 1217 q 386 1269 343 1269 m 386 1260 q 325 1236 347 1260 q 303 1174 303 1213 q 324 1113 303 1135 q 386 1090 346 1090 q 447 1114 425 1090 q 469 1175 469 1138 q 448 1237 469 1214 q 386 1260 426 1260 z "},"Ǻ":{"ha":772,"x_min":46,"x_max":728,"o":"m 269 1253 l 265 1261 l 499 1363 l 506 1350 l 269 1253 m 292 1118 q 317 1188 292 1161 q 386 1214 343 1214 q 456 1188 431 1214 q 481 1119 481 1163 q 455 1051 481 1076 q 386 1025 429 1025 q 317 1051 342 1025 q 292 1118 292 1076 m 469 1119 q 448 1181 469 1158 q 386 1204 426 1204 q 325 1181 347 1204 q 303 1118 303 1157 q 324 1057 303 1079 q 386 1035 346 1035 q 447 1058 425 1035 q 469 1119 469 1082 m 613 292 l 160 292 l 57 0 l 46 0 l 379 944 l 392 944 l 728 0 l 715 0 l 613 292 m 608 303 l 385 936 l 164 303 l 608 303 z "},"Ⱥ":{"ha":772,"x_min":46,"x_max":728,"o":"m 613 292 l 351 292 l 253 -83 l 244 -82 l 342 292 l 160 292 l 57 0 l 46 0 l 379 944 l 392 944 l 463 749 l 532 1015 l 540 1013 l 467 733 l 728 0 l 715 0 l 613 292 m 344 303 l 457 731 l 385 936 l 164 303 l 344 303 m 608 303 l 463 715 l 354 303 l 608 303 z "},"Ã":{"ha":772,"x_min":46,"x_max":728,"o":"m 613 292 l 160 292 l 57 0 l 46 0 l 379 944 l 392 944 l 728 0 l 715 0 l 613 292 m 608 303 l 385 936 l 164 303 l 608 303 m 464 1125 q 424 1133 443 1125 q 378 1157 406 1140 q 336 1178 350 1172 q 306 1185 322 1185 q 262 1174 281 1185 q 221 1136 243 1163 l 213 1142 q 258 1183 238 1171 q 306 1196 279 1196 q 341 1188 324 1196 q 383 1165 358 1181 q 426 1142 407 1150 q 464 1135 444 1135 q 510 1147 492 1135 q 551 1188 529 1158 l 558 1183 q 515 1138 536 1151 q 464 1125 493 1125 z "},"Æ":{"ha":1044,"x_min":25,"x_max":978,"o":"m 978 11 l 978 0 l 643 0 l 569 281 l 146 281 l 38 0 l 25 0 l 390 944 l 901 944 l 900 935 l 410 935 l 522 506 l 889 506 l 889 496 l 525 496 l 653 11 l 978 11 m 567 292 l 397 936 l 150 292 l 567 292 z "},"Ǽ":{"ha":1044,"x_min":25,"x_max":978,"o":"m 978 11 l 978 0 l 643 0 l 569 281 l 146 281 l 38 0 l 25 0 l 390 944 l 901 944 l 900 935 l 410 935 l 522 506 l 889 506 l 889 496 l 525 496 l 653 11 l 978 11 m 567 292 l 397 936 l 150 292 l 567 292 m 747 1165 l 511 1068 l 507 1076 l 740 1178 l 747 1165 z "},"Ǣ":{"ha":1044,"x_min":25,"x_max":978,"o":"m 978 11 l 978 0 l 643 0 l 569 281 l 146 281 l 38 0 l 25 0 l 390 944 l 901 944 l 900 935 l 410 935 l 522 506 l 889 506 l 889 496 l 525 496 l 653 11 l 978 11 m 567 292 l 397 936 l 150 292 l 567 292 m 494 1131 l 494 1142 l 765 1142 l 765 1131 l 494 1131 z "},"B":{"ha":810,"x_min":178,"x_max":721,"o":"m 478 500 q 651 431 581 494 q 721 254 721 367 q 635 62 721 124 q 404 0 550 0 l 178 0 l 178 944 l 367 944 q 592 885 514 944 q 669 713 669 825 q 615 569 669 626 q 478 500 561 513 m 189 935 l 189 506 l 435 506 q 549 533 499 506 q 628 607 600 560 q 657 713 657 654 q 583 877 657 819 q 369 935 510 935 l 189 935 m 406 11 q 627 69 546 11 q 708 254 708 126 q 634 431 708 367 q 442 494 560 494 l 189 494 l 189 11 l 406 11 z "},"Ḃ":{"ha":810,"x_min":178,"x_max":721,"o":"m 478 500 q 651 431 581 494 q 721 254 721 367 q 635 62 721 124 q 404 0 550 0 l 178 0 l 178 944 l 367 944 q 592 885 514 944 q 669 713 669 825 q 615 569 669 626 q 478 500 561 513 m 189 935 l 189 506 l 435 506 q 549 533 499 506 q 628 607 600 560 q 657 713 657 654 q 583 877 657 819 q 369 935 510 935 l 189 935 m 406 11 q 627 69 546 11 q 708 254 708 126 q 634 431 708 367 q 442 494 560 494 l 189 494 l 189 11 l 406 11 m 393 1163 q 404 1158 400 1163 q 408 1149 408 1154 q 404 1139 408 1143 q 393 1135 400 1135 q 383 1139 388 1135 q 379 1149 379 1143 q 383 1158 379 1154 q 393 1163 388 1163 z "},"Ḅ":{"ha":810,"x_min":178,"x_max":721,"o":"m 478 500 q 651 431 581 494 q 721 254 721 367 q 635 62 721 124 q 404 0 550 0 l 178 0 l 178 944 l 367 944 q 592 885 514 944 q 669 713 669 825 q 615 569 669 626 q 478 500 561 513 m 189 935 l 189 506 l 435 506 q 549 533 499 506 q 628 607 600 560 q 657 713 657 654 q 583 877 657 819 q 369 935 510 935 l 189 935 m 406 11 q 627 69 546 11 q 708 254 708 126 q 634 431 708 367 q 442 494 560 494 l 189 494 l 189 11 l 406 11 m 431 -174 q 421 -169 425 -174 q 417 -160 417 -165 q 421 -150 417 -154 q 431 -146 425 -146 q 442 -150 438 -146 q 446 -160 446 -154 q 442 -169 446 -165 q 431 -174 438 -174 z "},"Ɓ":{"ha":872,"x_min":39,"x_max":783,"o":"m 540 500 q 713 431 643 494 q 783 254 783 367 q 698 62 783 124 q 467 0 613 0 l 240 0 l 240 935 l 179 935 q 83 905 115 935 q 50 822 50 875 q 59 766 50 789 q 88 715 68 743 l 79 710 q 49 763 60 739 q 39 822 39 788 q 75 913 39 881 q 181 944 111 944 l 242 944 l 429 944 q 653 885 575 944 q 732 713 732 825 q 678 569 732 626 q 540 500 624 513 m 251 935 l 251 506 l 497 506 q 612 533 561 506 q 691 607 663 560 q 719 713 719 654 q 646 877 719 819 q 432 935 572 935 l 251 935 m 468 11 q 690 69 608 11 q 771 254 771 126 q 697 431 771 367 q 504 494 622 494 l 251 494 l 251 11 l 468 11 z "},"Ƀ":{"ha":801,"x_min":40,"x_max":713,"o":"m 469 500 q 643 431 574 494 q 713 254 713 367 q 628 61 713 122 q 396 0 543 0 l 169 0 l 169 263 l 40 263 l 40 274 l 169 274 l 169 944 l 358 944 q 583 885 506 944 q 661 713 661 825 q 608 569 661 625 q 469 500 554 513 m 181 935 l 181 506 l 428 506 q 542 533 492 506 q 622 607 593 560 q 650 713 650 654 q 576 877 650 819 q 361 935 501 935 l 181 935 m 397 11 q 620 69 539 11 q 701 254 701 126 q 627 431 701 367 q 435 494 553 494 l 181 494 l 181 274 l 451 274 l 451 263 l 181 263 l 181 11 l 397 11 z "},"Ƃ":{"ha":782,"x_min":178,"x_max":685,"o":"m 383 557 q 607 490 529 557 q 685 292 685 422 q 606 74 685 149 q 388 0 526 0 l 178 0 l 178 944 l 599 944 l 597 935 l 189 935 l 189 557 l 383 557 m 390 11 q 599 82 525 11 q 672 292 672 153 q 598 482 672 418 q 385 546 524 546 l 189 546 l 189 11 l 390 11 z "},"C":{"ha":739,"x_min":115,"x_max":703,"o":"m 476 958 q 597 938 547 958 q 690 879 646 917 l 685 871 q 592 928 639 908 q 476 949 544 949 q 294 896 374 949 q 171 736 215 843 q 126 471 126 629 q 170 214 126 321 q 292 53 214 107 q 474 -1 371 -1 q 600 21 549 -1 q 696 81 651 43 l 703 71 q 603 10 657 33 q 474 -12 550 -12 q 286 44 367 -12 q 160 209 206 100 q 115 471 115 318 q 161 741 115 632 q 288 904 207 850 q 476 958 369 958 z "},"Ć":{"ha":739,"x_min":115,"x_max":703,"o":"m 476 958 q 597 938 547 958 q 690 879 646 917 l 685 871 q 592 928 639 908 q 476 949 544 949 q 294 896 374 949 q 171 736 215 843 q 126 471 126 629 q 170 214 126 321 q 292 53 214 107 q 474 -1 371 -1 q 600 21 549 -1 q 696 81 651 43 l 703 71 q 603 10 657 33 q 474 -12 550 -12 q 286 44 367 -12 q 160 209 206 100 q 115 471 115 318 q 161 741 115 632 q 288 904 207 850 q 476 958 369 958 m 593 1165 l 357 1068 l 353 1076 l 586 1178 l 593 1165 z "},"Č":{"ha":739,"x_min":115,"x_max":703,"o":"m 476 958 q 597 938 547 958 q 690 879 646 917 l 685 871 q 592 928 639 908 q 476 949 544 949 q 294 896 374 949 q 171 736 215 843 q 126 471 126 629 q 170 214 126 321 q 292 53 214 107 q 474 -1 371 -1 q 600 21 549 -1 q 696 81 651 43 l 703 71 q 603 10 657 33 q 474 -12 550 -12 q 286 44 367 -12 q 160 209 206 100 q 115 471 115 318 q 161 741 115 632 q 288 904 207 850 q 476 958 369 958 m 635 1175 l 479 1061 l 472 1061 l 318 1175 l 325 1181 l 475 1072 l 628 1181 l 635 1175 z "},"Ç":{"ha":739,"x_min":115,"x_max":703,"o":"m 469 -111 q 594 -196 594 -114 q 565 -262 594 -240 q 493 -285 536 -285 q 406 -261 443 -285 l 411 -253 q 493 -275 447 -275 q 557 -256 531 -275 q 583 -196 583 -236 q 553 -140 583 -158 q 458 -119 524 -121 l 465 -12 q 282 47 361 -10 q 159 211 203 103 q 115 471 115 319 q 161 741 115 632 q 288 904 207 850 q 476 958 369 958 q 597 938 547 958 q 690 879 646 917 l 685 871 q 592 928 639 908 q 476 949 544 949 q 294 896 374 949 q 171 736 215 843 q 126 471 126 629 q 170 214 126 321 q 292 53 214 107 q 474 -1 371 -1 q 600 21 549 -1 q 696 81 651 43 l 703 71 q 603 10 657 33 q 474 -12 550 -12 l 469 -111 z "},"Ĉ":{"ha":739,"x_min":115,"x_max":703,"o":"m 476 958 q 597 938 547 958 q 690 879 646 917 l 685 871 q 592 928 639 908 q 476 949 544 949 q 294 896 374 949 q 171 736 215 843 q 126 471 126 629 q 170 214 126 321 q 292 53 214 107 q 474 -1 371 -1 q 600 21 549 -1 q 696 81 651 43 l 703 71 q 603 10 657 33 q 474 -12 550 -12 q 286 44 367 -12 q 160 209 206 100 q 115 471 115 318 q 161 741 115 632 q 288 904 207 850 q 476 958 369 958 m 475 1176 l 325 1068 l 318 1075 l 472 1189 l 479 1189 l 635 1075 l 628 1068 l 475 1176 z "},"Ċ":{"ha":739,"x_min":115,"x_max":703,"o":"m 476 958 q 597 938 547 958 q 690 879 646 917 l 685 871 q 592 928 639 908 q 476 949 544 949 q 294 896 374 949 q 171 736 215 843 q 126 471 126 629 q 170 214 126 321 q 292 53 214 107 q 474 -1 371 -1 q 600 21 549 -1 q 696 81 651 43 l 703 71 q 603 10 657 33 q 474 -12 550 -12 q 286 44 367 -12 q 160 209 206 100 q 115 471 115 318 q 161 741 115 632 q 288 904 207 850 q 476 958 369 958 m 476 1163 q 488 1158 483 1163 q 492 1149 492 1154 q 488 1139 492 1143 q 476 1135 483 1135 q 467 1139 471 1135 q 463 1149 463 1143 q 467 1158 463 1154 q 476 1163 471 1163 z "},"Ƈ":{"ha":739,"x_min":115,"x_max":915,"o":"m 801 1119 q 915 1081 868 1119 l 910 1072 q 863 1100 888 1090 q 801 1110 838 1110 q 720 1077 750 1110 q 690 981 690 1044 l 690 879 l 685 871 q 592 928 639 908 q 476 949 544 949 q 294 896 374 949 q 171 736 215 843 q 126 471 126 629 q 170 214 126 321 q 292 53 214 107 q 474 -1 371 -1 q 600 21 549 -1 q 696 81 651 43 l 703 71 q 603 10 657 33 q 474 -12 550 -12 q 286 44 367 -12 q 160 209 206 100 q 115 471 115 318 q 161 741 115 632 q 288 904 207 850 q 476 958 369 958 q 679 886 594 958 l 679 982 q 713 1084 679 1049 q 801 1119 746 1119 z "},"Ȼ":{"ha":739,"x_min":115,"x_max":703,"o":"m 703 71 q 603 10 657 33 q 474 -12 550 -12 q 322 22 390 -12 l 294 -83 l 286 -82 l 314 26 q 167 191 219 78 q 115 471 115 304 q 161 741 115 632 q 288 904 207 850 q 476 958 369 958 q 557 950 522 958 l 574 1015 l 582 1013 l 565 949 q 690 879 631 932 l 685 871 q 563 938 624 922 l 325 33 q 474 -1 390 -1 q 600 21 549 -1 q 696 81 651 43 l 703 71 m 126 471 q 176 198 126 308 q 317 38 226 88 l 554 940 q 476 949 519 949 q 294 896 374 949 q 171 736 215 843 q 126 471 126 629 z "},"D":{"ha":854,"x_min":178,"x_max":739,"o":"m 329 944 q 625 845 511 944 q 739 483 739 746 q 624 108 739 217 q 338 0 508 0 l 178 0 l 178 944 l 329 944 m 189 935 l 189 11 l 339 11 q 617 117 507 11 q 728 483 728 222 q 617 838 728 742 q 329 935 506 935 l 189 935 z "},"Ǳ":{"ha":1542,"x_min":178,"x_max":1474,"o":"m 329 944 q 625 845 511 944 q 739 483 739 746 q 624 108 739 217 q 338 0 508 0 l 178 0 l 178 944 l 329 944 m 189 935 l 189 11 l 339 11 q 617 117 507 11 q 728 483 728 222 q 617 838 728 742 q 329 935 506 935 l 189 935 m 1474 935 l 915 11 l 1451 11 l 1450 0 l 901 0 l 901 11 l 1458 935 l 953 935 l 953 944 l 1474 944 l 1474 935 z "},"Ǆ":{"ha":1542,"x_min":178,"x_max":1474,"o":"m 329 944 q 625 845 511 944 q 739 483 739 746 q 624 108 739 217 q 338 0 508 0 l 178 0 l 178 944 l 329 944 m 189 935 l 189 11 l 339 11 q 617 117 507 11 q 728 483 728 222 q 617 838 728 742 q 329 935 506 935 l 189 935 m 1474 935 l 915 11 l 1451 11 l 1450 0 l 901 0 l 901 11 l 1458 935 l 953 935 l 953 944 l 1474 944 l 1474 935 m 1351 1175 l 1196 1061 l 1189 1061 l 1035 1175 l 1042 1181 l 1192 1072 l 1344 1181 l 1351 1175 z "},"Ɖ":{"ha":847,"x_min":40,"x_max":732,"o":"m 322 944 q 618 845 504 944 q 732 483 732 746 q 617 108 732 217 q 331 0 501 0 l 171 0 l 171 485 l 40 485 l 40 496 l 171 496 l 171 944 l 322 944 m 332 11 q 610 117 500 11 q 721 483 721 222 q 610 838 721 742 q 322 935 499 935 l 182 935 l 182 496 l 453 496 l 453 485 l 182 485 l 182 11 l 332 11 z "},"Ð":{"ha":847,"x_min":40,"x_max":732,"o":"m 322 944 q 618 845 504 944 q 732 483 732 746 q 617 108 732 217 q 331 0 501 0 l 171 0 l 171 485 l 40 485 l 40 496 l 171 496 l 171 944 l 322 944 m 332 11 q 610 117 500 11 q 721 483 721 222 q 610 838 721 742 q 322 935 499 935 l 182 935 l 182 496 l 453 496 l 453 485 l 182 485 l 182 11 l 332 11 z "},"Ď":{"ha":854,"x_min":178,"x_max":739,"o":"m 329 944 q 625 845 511 944 q 739 483 739 746 q 624 108 739 217 q 338 0 508 0 l 178 0 l 178 944 l 329 944 m 189 935 l 189 11 l 339 11 q 617 117 507 11 q 728 483 728 222 q 617 838 728 742 q 329 935 506 935 l 189 935 m 563 1175 l 407 1061 l 400 1061 l 246 1175 l 253 1181 l 403 1072 l 556 1181 l 563 1175 z "},"Ḓ":{"ha":854,"x_min":178,"x_max":739,"o":"m 329 944 q 625 845 511 944 q 739 483 739 746 q 624 108 739 217 q 338 0 508 0 l 178 0 l 178 944 l 329 944 m 189 935 l 189 11 l 339 11 q 617 117 507 11 q 728 483 728 222 q 617 838 728 742 q 329 935 506 935 l 189 935 m 269 -235 l 425 -114 l 432 -114 l 586 -235 l 579 -242 l 429 -126 l 276 -242 l 269 -235 z "},"Đ":{"ha":847,"x_min":40,"x_max":732,"o":"m 322 944 q 618 845 504 944 q 732 483 732 746 q 617 108 732 217 q 331 0 501 0 l 171 0 l 171 485 l 40 485 l 40 496 l 171 496 l 171 944 l 322 944 m 332 11 q 610 117 500 11 q 721 483 721 222 q 610 838 721 742 q 322 935 499 935 l 182 935 l 182 496 l 453 496 l 453 485 l 182 485 l 182 11 l 332 11 z "},"Ḋ":{"ha":854,"x_min":178,"x_max":739,"o":"m 329 944 q 625 845 511 944 q 739 483 739 746 q 624 108 739 217 q 338 0 508 0 l 178 0 l 178 944 l 329 944 m 189 935 l 189 11 l 339 11 q 617 117 507 11 q 728 483 728 222 q 617 838 728 742 q 329 935 506 935 l 189 935 m 403 1163 q 414 1158 410 1163 q 418 1149 418 1154 q 414 1139 418 1143 q 403 1135 410 1135 q 393 1139 397 1135 q 389 1149 389 1143 q 393 1158 389 1154 q 403 1163 397 1163 z "},"Ḍ":{"ha":854,"x_min":178,"x_max":739,"o":"m 329 944 q 625 845 511 944 q 739 483 739 746 q 624 108 739 217 q 338 0 508 0 l 178 0 l 178 944 l 329 944 m 189 935 l 189 11 l 339 11 q 617 117 507 11 q 728 483 728 222 q 617 838 728 742 q 329 935 506 935 l 189 935 m 428 -174 q 418 -169 422 -174 q 414 -160 414 -165 q 418 -150 414 -154 q 428 -146 422 -146 q 439 -150 435 -146 q 443 -160 443 -154 q 439 -169 443 -165 q 428 -174 435 -174 z "},"Ɗ":{"ha":917,"x_min":39,"x_max":801,"o":"m 392 944 q 688 845 574 944 q 801 483 801 746 q 686 108 801 217 q 400 0 571 0 l 240 0 l 240 935 l 179 935 q 83 905 115 935 q 50 822 50 875 q 59 766 50 789 q 88 715 68 743 l 79 710 q 49 763 60 739 q 39 822 39 788 q 75 913 39 881 q 181 944 111 944 l 242 944 l 392 944 m 401 11 q 680 117 569 11 q 790 483 790 222 q 679 838 790 742 q 392 935 568 935 l 251 935 l 251 11 l 401 11 z "},"Ḏ":{"ha":854,"x_min":178,"x_max":739,"o":"m 329 944 q 625 845 511 944 q 739 483 739 746 q 624 108 739 217 q 338 0 508 0 l 178 0 l 178 944 l 329 944 m 189 935 l 189 11 l 339 11 q 617 117 507 11 q 728 483 728 222 q 617 838 728 742 q 329 935 506 935 l 189 935 m 292 -174 l 292 -162 l 563 -162 l 563 -174 l 292 -174 z "},"Ƌ":{"ha":782,"x_min":99,"x_max":606,"o":"m 385 0 q 175 69 251 0 q 99 272 99 139 q 181 483 99 410 q 408 557 263 557 l 593 557 l 593 935 l 185 935 l 185 944 l 606 944 l 606 0 l 385 0 m 593 11 l 593 546 l 407 546 q 188 476 267 546 q 110 272 110 406 q 183 77 110 143 q 386 11 257 11 l 593 11 z "},"ǲ":{"ha":1424,"x_min":178,"x_max":1369,"o":"m 329 944 q 625 845 511 944 q 739 483 739 746 q 624 108 739 217 q 338 0 508 0 l 178 0 l 178 944 l 329 944 m 189 935 l 189 11 l 339 11 q 617 117 507 11 q 728 483 728 222 q 617 838 728 742 q 329 935 506 935 l 189 935 m 1369 710 l 915 11 l 1356 11 l 1356 0 l 901 0 l 901 10 l 1356 708 l 943 708 l 943 719 l 1369 719 l 1369 710 z "},"ǅ":{"ha":1424,"x_min":178,"x_max":1369,"o":"m 329 944 q 625 845 511 944 q 739 483 739 746 q 624 108 739 217 q 338 0 508 0 l 178 0 l 178 944 l 329 944 m 189 935 l 189 11 l 339 11 q 617 117 507 11 q 728 483 728 222 q 617 838 728 742 q 329 935 506 935 l 189 935 m 1369 710 l 915 11 l 1356 11 l 1356 0 l 901 0 l 901 10 l 1356 708 l 943 708 l 943 719 l 1369 719 l 1369 710 m 1311 1018 l 1156 897 l 1149 897 l 994 1018 l 1001 1025 l 1151 910 l 1304 1025 l 1311 1018 z "},"E":{"ha":688,"x_min":178,"x_max":621,"o":"m 607 935 l 189 935 l 189 506 l 547 506 l 547 496 l 189 496 l 189 11 l 621 11 l 621 0 l 178 0 l 178 944 l 608 944 l 607 935 z "},"É":{"ha":688,"x_min":178,"x_max":621,"o":"m 607 935 l 189 935 l 189 506 l 547 506 l 547 496 l 189 496 l 189 11 l 621 11 l 621 0 l 178 0 l 178 944 l 608 944 l 607 935 m 514 1165 l 278 1068 l 274 1076 l 507 1178 l 514 1165 z "},"Ĕ":{"ha":688,"x_min":178,"x_max":621,"o":"m 607 935 l 189 935 l 189 506 l 547 506 l 547 496 l 189 496 l 189 11 l 621 11 l 621 0 l 178 0 l 178 944 l 608 944 l 607 935 m 396 1074 q 306 1100 342 1074 q 257 1164 269 1126 l 265 1167 q 313 1107 279 1129 q 396 1085 347 1085 q 477 1107 443 1085 q 525 1167 511 1129 l 533 1164 q 486 1100 522 1126 q 396 1074 450 1074 z "},"Ě":{"ha":688,"x_min":178,"x_max":621,"o":"m 607 935 l 189 935 l 189 506 l 547 506 l 547 496 l 189 496 l 189 11 l 621 11 l 621 0 l 178 0 l 178 944 l 608 944 l 607 935 m 554 1175 l 399 1061 l 392 1061 l 238 1175 l 244 1181 l 394 1072 l 547 1181 l 554 1175 z "},"Ȩ":{"ha":688,"x_min":178,"x_max":621,"o":"m 393 0 l 389 -111 q 514 -196 514 -114 q 485 -262 514 -240 q 413 -285 456 -285 q 325 -261 363 -285 l 331 -253 q 413 -275 367 -275 q 476 -256 450 -275 q 503 -196 503 -236 q 473 -140 503 -158 q 378 -119 443 -121 l 385 0 l 178 0 l 178 944 l 608 944 l 607 935 l 189 935 l 189 506 l 547 506 l 547 496 l 189 496 l 189 11 l 621 11 l 621 0 l 393 0 z "},"Ê":{"ha":688,"x_min":178,"x_max":621,"o":"m 607 935 l 189 935 l 189 506 l 547 506 l 547 496 l 189 496 l 189 11 l 621 11 l 621 0 l 178 0 l 178 944 l 608 944 l 607 935 m 394 1176 l 244 1068 l 238 1075 l 392 1189 l 399 1189 l 554 1075 l 547 1068 l 394 1176 z "},"Ế":{"ha":688,"x_min":178,"x_max":640,"o":"m 640 1286 l 511 1135 l 504 1140 l 631 1294 l 640 1286 m 393 1133 l 243 1025 l 236 1032 l 390 1146 l 397 1146 l 553 1032 l 546 1025 l 393 1133 m 607 935 l 189 935 l 189 506 l 547 506 l 547 496 l 189 496 l 189 11 l 621 11 l 621 0 l 178 0 l 178 944 l 608 944 l 607 935 z "},"Ệ":{"ha":688,"x_min":178,"x_max":621,"o":"m 607 935 l 189 935 l 189 506 l 547 506 l 547 496 l 189 496 l 189 11 l 621 11 l 621 0 l 178 0 l 178 944 l 608 944 l 607 935 m 394 1176 l 244 1068 l 238 1075 l 392 1189 l 399 1189 l 554 1075 l 547 1068 l 394 1176 m 394 -174 q 385 -169 389 -174 q 381 -160 381 -165 q 385 -150 381 -154 q 394 -146 389 -146 q 406 -150 401 -146 q 410 -160 410 -154 q 406 -169 410 -165 q 394 -174 401 -174 z "},"Ề":{"ha":688,"x_min":147,"x_max":621,"o":"m 283 1140 l 276 1135 l 147 1286 l 156 1294 l 283 1140 m 393 1133 l 243 1025 l 236 1032 l 390 1146 l 397 1146 l 553 1032 l 546 1025 l 393 1133 m 607 935 l 189 935 l 189 506 l 547 506 l 547 496 l 189 496 l 189 11 l 621 11 l 621 0 l 178 0 l 178 944 l 608 944 l 607 935 z "},"Ể":{"ha":688,"x_min":178,"x_max":625,"o":"m 519 1165 q 588 1187 563 1169 q 613 1243 613 1204 q 591 1295 613 1276 q 533 1314 569 1314 q 454 1290 493 1314 l 450 1300 q 535 1324 492 1324 q 600 1302 575 1324 q 625 1243 625 1281 q 531 1158 625 1165 l 531 1103 l 519 1103 l 519 1165 m 393 1133 l 243 1025 l 236 1032 l 390 1146 l 397 1146 l 553 1032 l 546 1025 l 393 1133 m 607 935 l 189 935 l 189 506 l 547 506 l 547 496 l 189 496 l 189 11 l 621 11 l 621 0 l 178 0 l 178 944 l 608 944 l 607 935 z "},"Ễ":{"ha":688,"x_min":178,"x_max":621,"o":"m 471 1213 q 431 1220 450 1213 q 385 1244 413 1228 q 343 1266 357 1260 q 313 1272 329 1272 q 269 1261 288 1272 q 228 1224 250 1250 l 219 1229 q 265 1271 244 1258 q 313 1283 286 1283 q 348 1276 331 1283 q 390 1253 365 1268 q 433 1230 414 1238 q 471 1222 451 1222 q 517 1234 499 1222 q 558 1275 536 1246 l 565 1271 q 522 1226 543 1239 q 471 1213 500 1213 m 393 1133 l 243 1025 l 236 1032 l 390 1146 l 397 1146 l 553 1032 l 546 1025 l 393 1133 m 607 935 l 189 935 l 189 506 l 547 506 l 547 496 l 189 496 l 189 11 l 621 11 l 621 0 l 178 0 l 178 944 l 608 944 l 607 935 z "},"Ȅ":{"ha":688,"x_min":178,"x_max":621,"o":"m 607 935 l 189 935 l 189 506 l 547 506 l 547 496 l 189 496 l 189 11 l 621 11 l 621 0 l 178 0 l 178 944 l 608 944 l 607 935 m 336 1146 l 326 1140 l 231 1314 l 242 1319 l 336 1146 m 476 1149 l 468 1144 l 379 1310 l 390 1315 l 476 1149 z "},"Ë":{"ha":688,"x_min":178,"x_max":621,"o":"m 607 935 l 189 935 l 189 506 l 547 506 l 547 496 l 189 496 l 189 11 l 621 11 l 621 0 l 178 0 l 178 944 l 608 944 l 607 935 m 288 1143 q 301 1129 301 1143 q 288 1115 301 1115 q 278 1119 282 1115 q 274 1129 274 1124 q 288 1143 274 1143 m 501 1143 q 515 1129 515 1143 q 501 1115 515 1115 q 492 1119 496 1115 q 488 1129 488 1124 q 501 1143 488 1143 z "},"Ė":{"ha":688,"x_min":178,"x_max":621,"o":"m 607 935 l 189 935 l 189 506 l 547 506 l 547 496 l 189 496 l 189 11 l 621 11 l 621 0 l 178 0 l 178 944 l 608 944 l 607 935 m 396 1163 q 407 1158 403 1163 q 411 1149 411 1154 q 407 1139 411 1143 q 396 1135 403 1135 q 386 1139 390 1135 q 382 1149 382 1143 q 386 1158 382 1154 q 396 1163 390 1163 z "},"Ẹ":{"ha":688,"x_min":178,"x_max":621,"o":"m 607 935 l 189 935 l 189 506 l 547 506 l 547 496 l 189 496 l 189 11 l 621 11 l 621 0 l 178 0 l 178 944 l 608 944 l 607 935 m 394 -174 q 385 -169 389 -174 q 381 -160 381 -165 q 385 -150 381 -154 q 394 -146 389 -146 q 406 -150 401 -146 q 410 -160 410 -154 q 406 -169 410 -165 q 394 -174 401 -174 z "},"È":{"ha":688,"x_min":178,"x_max":621,"o":"m 607 935 l 189 935 l 189 506 l 547 506 l 547 496 l 189 496 l 189 11 l 621 11 l 621 0 l 178 0 l 178 944 l 608 944 l 607 935 m 524 1076 l 519 1068 l 283 1165 l 289 1178 l 524 1076 z "},"Ẻ":{"ha":688,"x_min":178,"x_max":621,"o":"m 607 935 l 189 935 l 189 506 l 547 506 l 547 496 l 189 496 l 189 11 l 621 11 l 621 0 l 178 0 l 178 944 l 608 944 l 607 935 m 386 1144 q 454 1166 429 1149 q 479 1222 479 1183 q 458 1274 479 1256 q 400 1293 436 1293 q 321 1269 360 1293 l 317 1279 q 401 1303 358 1303 q 467 1281 442 1303 q 492 1222 492 1260 q 397 1138 492 1144 l 397 1082 l 386 1082 l 386 1144 z "},"Ȇ":{"ha":688,"x_min":178,"x_max":621,"o":"m 607 935 l 189 935 l 189 506 l 547 506 l 547 496 l 189 496 l 189 11 l 621 11 l 621 0 l 178 0 l 178 944 l 608 944 l 607 935 m 396 1225 q 487 1197 451 1225 q 533 1122 522 1168 l 525 1119 q 478 1190 511 1165 q 396 1215 444 1215 q 313 1190 346 1215 q 265 1119 279 1165 l 257 1122 q 305 1197 269 1168 q 396 1225 340 1225 z "},"Ē":{"ha":688,"x_min":178,"x_max":621,"o":"m 607 935 l 189 935 l 189 506 l 547 506 l 547 496 l 189 496 l 189 11 l 621 11 l 621 0 l 178 0 l 178 944 l 608 944 l 607 935 m 260 1131 l 260 1142 l 531 1142 l 531 1131 l 260 1131 z "},"Ę":{"ha":688,"x_min":178,"x_max":621,"o":"m 621 11 l 621 0 l 581 0 q 449 -70 501 -31 q 397 -167 397 -110 q 425 -237 397 -212 q 500 -262 453 -262 q 574 -251 535 -262 l 574 -262 q 500 -274 533 -274 q 417 -246 447 -274 q 386 -167 386 -218 q 433 -72 386 -111 q 558 0 481 -32 l 178 0 l 178 944 l 608 944 l 607 935 l 189 935 l 189 506 l 547 506 l 547 496 l 189 496 l 189 11 l 621 11 z "},"Ɛ":{"ha":708,"x_min":89,"x_max":656,"o":"m 364 958 q 505 930 444 958 q 622 842 565 901 l 614 833 q 501 920 560 892 q 365 949 442 949 q 193 889 256 949 q 131 736 131 829 q 198 578 131 635 q 371 521 265 521 l 446 521 l 444 510 l 365 511 q 172 447 244 511 q 100 271 100 382 q 176 72 100 146 q 376 -1 251 -1 q 525 30 460 -1 q 647 122 590 61 l 656 117 q 529 19 596 51 q 376 -12 463 -12 q 168 64 247 -12 q 89 271 89 140 q 156 447 89 382 q 329 517 224 511 q 179 581 239 525 q 119 736 119 636 q 184 897 119 835 q 364 958 249 958 z "},"Ǝ":{"ha":688,"x_min":67,"x_max":510,"o":"m 510 944 l 510 0 l 67 0 l 67 11 l 499 11 l 499 496 l 139 496 l 139 506 l 499 506 l 499 935 l 76 935 l 76 944 l 510 944 z "},"Ʃ":{"ha":669,"x_min":81,"x_max":589,"o":"m 589 935 l 96 935 l 428 474 l 428 468 l 96 11 l 589 11 l 589 0 l 81 0 l 81 8 l 417 471 l 81 938 l 81 944 l 589 944 l 589 935 z "},"Ɇ":{"ha":688,"x_min":178,"x_max":621,"o":"m 621 0 l 275 0 l 253 -83 l 244 -82 l 265 0 l 178 0 l 178 944 l 514 944 l 532 1015 l 540 1013 l 522 944 l 608 944 l 607 935 l 519 935 l 408 506 l 547 506 l 547 496 l 406 496 l 278 11 l 621 11 l 621 0 m 189 506 l 399 506 l 511 935 l 189 935 l 189 506 m 268 11 l 396 496 l 189 496 l 189 11 l 268 11 z "},"Ẽ":{"ha":688,"x_min":178,"x_max":621,"o":"m 607 935 l 189 935 l 189 506 l 547 506 l 547 496 l 189 496 l 189 11 l 621 11 l 621 0 l 178 0 l 178 944 l 608 944 l 607 935 m 474 1125 q 434 1133 453 1125 q 388 1157 415 1140 q 346 1178 360 1172 q 315 1185 332 1185 q 272 1174 290 1185 q 231 1136 253 1163 l 222 1142 q 268 1183 247 1171 q 315 1196 289 1196 q 351 1188 333 1196 q 393 1165 368 1181 q 435 1142 417 1150 q 474 1135 454 1135 q 520 1147 501 1135 q 561 1188 539 1158 l 568 1183 q 524 1138 546 1151 q 474 1125 503 1125 z "},"Ʒ":{"ha":647,"x_min":39,"x_max":578,"o":"m 282 508 q 503 442 428 508 q 578 250 578 376 q 505 60 578 132 q 301 -12 432 -12 q 151 15 213 -12 q 39 97 90 43 l 47 104 q 157 24 97 50 q 301 -1 217 -1 q 497 67 428 -1 q 567 250 567 136 q 494 435 567 372 q 283 497 421 497 l 181 497 l 181 508 l 525 935 l 51 935 l 51 944 l 540 944 l 540 935 l 194 508 l 282 508 z "},"Ǯ":{"ha":647,"x_min":39,"x_max":578,"o":"m 282 508 q 503 442 428 508 q 578 250 578 376 q 505 60 578 132 q 301 -12 432 -12 q 151 15 213 -12 q 39 97 90 43 l 47 104 q 157 24 97 50 q 301 -1 217 -1 q 497 67 428 -1 q 567 250 567 136 q 494 435 567 372 q 283 497 421 497 l 181 497 l 181 508 l 525 935 l 51 935 l 51 944 l 540 944 l 540 935 l 194 508 l 282 508 m 454 1175 l 299 1061 l 292 1061 l 138 1175 l 144 1181 l 294 1072 l 447 1181 l 454 1175 z "},"Ƹ":{"ha":647,"x_min":69,"x_max":610,"o":"m 610 97 q 494 15 557 42 q 336 -12 431 -12 q 142 57 214 -12 q 69 243 69 126 q 146 438 69 367 q 365 508 222 508 l 453 508 l 107 935 l 107 944 l 596 944 l 596 935 l 124 935 l 467 508 l 467 497 l 365 497 q 155 431 229 497 q 81 243 81 364 q 149 65 81 131 q 336 -1 218 -1 q 490 24 429 -1 q 601 104 550 50 l 610 97 z "},"F":{"ha":653,"x_min":178,"x_max":601,"o":"m 600 935 l 189 935 l 189 486 l 544 486 l 544 475 l 189 475 l 189 0 l 178 0 l 178 944 l 601 944 l 600 935 z "},"Ḟ":{"ha":653,"x_min":178,"x_max":601,"o":"m 600 935 l 189 935 l 189 486 l 544 486 l 544 475 l 189 475 l 189 0 l 178 0 l 178 944 l 601 944 l 600 935 m 403 1163 q 414 1158 410 1163 q 418 1149 418 1154 q 414 1139 418 1143 q 403 1135 410 1135 q 393 1139 397 1135 q 389 1149 389 1143 q 393 1158 389 1154 q 403 1163 397 1163 z "},"Ƒ":{"ha":653,"x_min":-47,"x_max":601,"o":"m 189 935 l 189 486 l 544 486 l 544 475 l 189 475 l 189 -131 q 156 -233 189 -197 q 67 -269 122 -269 q 3 -258 29 -269 q -47 -229 -24 -247 l -42 -221 q 6 -249 -19 -239 q 67 -258 31 -258 q 148 -226 118 -258 q 178 -129 178 -193 l 178 944 l 601 944 l 600 935 l 189 935 z "},"G":{"ha":835,"x_min":115,"x_max":726,"o":"m 478 958 q 596 940 543 958 q 701 881 649 921 l 694 872 q 592 930 644 911 q 478 949 540 949 q 308 897 388 949 q 177 740 228 846 q 126 479 126 633 q 224 123 126 247 q 490 -1 321 -1 q 715 61 611 -1 l 715 469 l 508 469 l 507 481 l 726 481 l 726 56 q 490 -12 611 -12 q 292 44 376 -12 q 161 210 207 100 q 115 479 115 321 q 167 744 115 636 q 302 905 219 851 q 478 958 385 958 z "},"Ǵ":{"ha":835,"x_min":115,"x_max":726,"o":"m 478 958 q 596 940 543 958 q 701 881 649 921 l 694 872 q 592 930 644 911 q 478 949 540 949 q 308 897 388 949 q 177 740 228 846 q 126 479 126 633 q 224 123 126 247 q 490 -1 321 -1 q 715 61 611 -1 l 715 469 l 508 469 l 507 481 l 726 481 l 726 56 q 490 -12 611 -12 q 292 44 376 -12 q 161 210 207 100 q 115 479 115 321 q 167 744 115 636 q 302 905 219 851 q 478 958 385 958 m 589 1165 l 353 1068 l 349 1076 l 582 1178 l 589 1165 z "},"Ɣ":{"ha":731,"x_min":46,"x_max":685,"o":"m 375 79 l 388 49 q 440 -88 425 -42 q 456 -175 456 -135 q 433 -242 456 -215 q 368 -269 411 -269 q 304 -242 326 -269 q 282 -175 282 -215 q 295 -98 282 -140 q 338 18 308 -56 l 361 79 l 46 944 l 58 944 l 368 88 l 674 944 l 685 944 l 375 79 m 444 -175 q 431 -93 444 -136 q 383 31 417 -50 l 368 69 l 342 1 q 304 -106 315 -69 q 293 -175 293 -142 q 312 -236 293 -212 q 368 -260 331 -260 q 426 -235 407 -260 q 444 -175 444 -211 z "},"Ğ":{"ha":835,"x_min":115,"x_max":726,"o":"m 478 958 q 596 940 543 958 q 701 881 649 921 l 694 872 q 592 930 644 911 q 478 949 540 949 q 308 897 388 949 q 177 740 228 846 q 126 479 126 633 q 224 123 126 247 q 490 -1 321 -1 q 715 61 611 -1 l 715 469 l 508 469 l 507 481 l 726 481 l 726 56 q 490 -12 611 -12 q 292 44 376 -12 q 161 210 207 100 q 115 479 115 321 q 167 744 115 636 q 302 905 219 851 q 478 958 385 958 m 472 1074 q 382 1100 418 1074 q 333 1164 346 1126 l 342 1167 q 390 1107 356 1129 q 472 1085 424 1085 q 553 1107 519 1085 q 601 1167 588 1129 l 610 1164 q 563 1100 599 1126 q 472 1074 526 1074 z "},"Ǧ":{"ha":835,"x_min":115,"x_max":726,"o":"m 478 958 q 596 940 543 958 q 701 881 649 921 l 694 872 q 592 930 644 911 q 478 949 540 949 q 308 897 388 949 q 177 740 228 846 q 126 479 126 633 q 224 123 126 247 q 490 -1 321 -1 q 715 61 611 -1 l 715 469 l 508 469 l 507 481 l 726 481 l 726 56 q 490 -12 611 -12 q 292 44 376 -12 q 161 210 207 100 q 115 479 115 321 q 167 744 115 636 q 302 905 219 851 q 478 958 385 958 m 629 1175 l 474 1061 l 467 1061 l 313 1175 l 319 1181 l 469 1072 l 622 1181 l 629 1175 z "},"Ĝ":{"ha":835,"x_min":115,"x_max":726,"o":"m 478 958 q 596 940 543 958 q 701 881 649 921 l 694 872 q 592 930 644 911 q 478 949 540 949 q 308 897 388 949 q 177 740 228 846 q 126 479 126 633 q 224 123 126 247 q 490 -1 321 -1 q 715 61 611 -1 l 715 469 l 508 469 l 507 481 l 726 481 l 726 56 q 490 -12 611 -12 q 292 44 376 -12 q 161 210 207 100 q 115 479 115 321 q 167 744 115 636 q 302 905 219 851 q 478 958 385 958 m 469 1176 l 319 1068 l 313 1075 l 467 1189 l 474 1189 l 629 1075 l 622 1068 l 469 1176 z "},"Ģ":{"ha":835,"x_min":115,"x_max":726,"o":"m 478 958 q 596 940 543 958 q 701 881 649 921 l 694 872 q 592 930 644 911 q 478 949 540 949 q 308 897 388 949 q 177 740 228 846 q 126 479 126 633 q 224 123 126 247 q 490 -1 321 -1 q 715 61 611 -1 l 715 469 l 508 469 l 507 481 l 726 481 l 726 56 q 490 -12 611 -12 q 292 44 376 -12 q 161 210 207 100 q 115 479 115 321 q 167 744 115 636 q 302 905 219 851 q 478 958 385 958 m 478 -144 q 493 -158 493 -144 q 486 -185 493 -165 l 447 -340 l 440 -340 l 475 -174 q 463 -158 463 -169 q 467 -149 463 -153 q 478 -144 471 -144 z "},"Ġ":{"ha":835,"x_min":115,"x_max":726,"o":"m 478 958 q 596 940 543 958 q 701 881 649 921 l 694 872 q 592 930 644 911 q 478 949 540 949 q 308 897 388 949 q 177 740 228 846 q 126 479 126 633 q 224 123 126 247 q 490 -1 321 -1 q 715 61 611 -1 l 715 469 l 508 469 l 507 481 l 726 481 l 726 56 q 490 -12 611 -12 q 292 44 376 -12 q 161 210 207 100 q 115 479 115 321 q 167 744 115 636 q 302 905 219 851 q 478 958 385 958 m 471 1163 q 482 1158 478 1163 q 486 1149 486 1154 q 482 1139 486 1143 q 471 1135 478 1135 q 461 1139 465 1135 q 457 1149 457 1143 q 461 1158 457 1154 q 471 1163 465 1163 z "},"Ɠ":{"ha":750,"x_min":115,"x_max":926,"o":"m 813 1119 q 926 1081 878 1119 l 921 1072 q 874 1100 899 1090 q 813 1110 849 1110 q 731 1077 761 1110 q 701 981 701 1044 l 701 881 l 696 874 q 593 931 644 913 q 478 949 542 949 q 308 897 388 949 q 177 740 228 846 q 126 479 126 633 q 224 123 126 247 q 490 -1 321 -1 q 715 61 611 -1 l 715 469 l 508 469 l 507 481 l 726 481 l 726 56 q 490 -12 611 -12 q 292 44 376 -12 q 161 210 207 100 q 115 479 115 321 q 167 744 115 636 q 302 905 219 851 q 478 958 385 958 q 690 888 596 958 l 690 982 q 724 1084 690 1049 q 813 1119 757 1119 z "},"Ɂ":{"ha":621,"x_min":39,"x_max":565,"o":"m 238 393 l 332 418 q 495 504 438 446 q 553 686 553 563 q 487 875 553 801 q 300 949 421 949 q 162 919 222 949 q 47 833 101 889 l 39 842 q 158 928 94 899 q 300 958 221 958 q 496 882 426 958 q 565 686 565 806 q 504 495 565 557 q 328 404 443 433 l 249 385 l 249 0 l 238 0 l 238 393 z "},"Ǥ":{"ha":853,"x_min":115,"x_max":833,"o":"m 833 303 l 726 303 l 726 56 q 490 -12 611 -12 q 292 44 376 -12 q 161 210 207 100 q 115 479 115 321 q 167 744 115 636 q 302 905 219 851 q 478 958 385 958 q 596 940 543 958 q 701 881 649 921 l 694 872 q 592 930 644 911 q 478 949 540 949 q 308 897 388 949 q 177 740 228 846 q 126 479 126 633 q 224 123 126 247 q 490 -1 321 -1 q 715 61 611 -1 l 715 303 l 508 303 l 508 314 l 715 314 l 715 469 l 508 469 l 507 481 l 726 481 l 726 314 l 833 314 l 833 303 z "},"H":{"ha":911,"x_min":178,"x_max":733,"o":"m 722 496 l 189 496 l 189 0 l 178 0 l 178 944 l 189 944 l 189 507 l 722 507 l 722 944 l 733 944 l 733 0 l 722 0 l 722 496 z "},"Ħ":{"ha":926,"x_min":110,"x_max":817,"o":"m 817 728 l 742 728 l 742 0 l 731 0 l 731 496 l 197 496 l 197 0 l 186 0 l 186 728 l 110 728 l 110 738 l 186 738 l 186 944 l 197 944 l 197 738 l 731 738 l 731 944 l 742 944 l 742 738 l 817 738 l 817 728 m 731 728 l 197 728 l 197 507 l 731 507 l 731 728 z "},"Ȟ":{"ha":911,"x_min":178,"x_max":733,"o":"m 722 496 l 189 496 l 189 0 l 178 0 l 178 944 l 189 944 l 189 507 l 722 507 l 722 944 l 733 944 l 733 0 l 722 0 l 722 496 m 611 1175 l 456 1061 l 449 1061 l 294 1175 l 301 1181 l 451 1072 l 604 1181 l 611 1175 z "},"Ĥ":{"ha":911,"x_min":178,"x_max":733,"o":"m 722 496 l 189 496 l 189 0 l 178 0 l 178 944 l 189 944 l 189 507 l 722 507 l 722 944 l 733 944 l 733 0 l 722 0 l 722 496 m 451 1176 l 301 1068 l 294 1075 l 449 1189 l 456 1189 l 611 1075 l 604 1068 l 451 1176 z "},"Ḥ":{"ha":911,"x_min":178,"x_max":733,"o":"m 722 496 l 189 496 l 189 0 l 178 0 l 178 944 l 189 944 l 189 507 l 722 507 l 722 944 l 733 944 l 733 0 l 722 0 l 722 496 m 456 -174 q 446 -169 450 -174 q 442 -160 442 -165 q 446 -150 442 -154 q 456 -146 450 -146 q 467 -150 463 -146 q 471 -160 471 -154 q 467 -169 471 -165 q 456 -174 463 -174 z "},"Ɦ":{"ha":974,"x_min":39,"x_max":796,"o":"m 796 944 l 796 0 l 785 0 l 785 496 l 251 496 l 251 0 l 240 0 l 240 935 l 179 935 q 83 905 115 935 q 50 822 50 875 q 59 766 50 789 q 88 715 68 743 l 79 710 q 49 763 60 739 q 39 822 39 788 q 75 913 39 881 q 181 944 111 944 l 242 944 l 251 944 l 251 507 l 785 507 l 785 944 l 796 944 z "},"Ɥ":{"ha":790,"x_min":81,"x_max":613,"o":"m 613 944 l 613 0 l 601 0 l 601 461 q 329 329 499 329 q 149 394 218 329 q 81 574 81 460 l 81 944 l 92 944 l 92 574 q 158 401 92 464 q 331 339 224 339 q 485 374 417 339 q 601 475 553 410 l 601 944 l 613 944 z "},"Ƕ":{"ha":1328,"x_min":178,"x_max":1192,"o":"m 1154 719 q 1181 542 1171 625 q 1192 371 1192 458 q 1120 82 1192 176 q 931 -12 1049 -12 q 780 46 838 -12 q 722 214 722 104 l 722 496 l 189 496 l 189 0 l 178 0 l 178 944 l 189 944 l 189 507 l 722 507 l 722 944 l 733 944 l 733 214 q 788 53 733 108 q 931 -3 843 -3 q 1112 88 1043 -3 q 1181 371 1181 179 q 1170 542 1181 458 q 1143 719 1160 625 l 1154 719 z "},"I":{"ha":367,"x_min":178,"x_max":189,"o":"m 189 0 l 178 0 l 178 944 l 189 944 l 189 0 z "},"Ĳ":{"ha":749,"x_min":178,"x_max":579,"o":"m 189 0 l 178 0 l 178 944 l 189 944 l 189 0 m 579 119 q 566 7 579 50 q 517 -69 553 -36 q 410 -131 481 -101 l 406 -121 q 507 -62 472 -93 q 555 11 542 -31 q 568 119 568 53 l 568 944 l 579 944 l 579 119 z "},"Í":{"ha":367,"x_min":61,"x_max":301,"o":"m 189 0 l 178 0 l 178 944 l 189 944 l 189 0 m 301 1165 l 65 1068 l 61 1076 l 294 1178 l 301 1165 z "},"Ĭ":{"ha":367,"x_min":44,"x_max":321,"o":"m 189 0 l 178 0 l 178 944 l 189 944 l 189 0 m 183 1074 q 93 1100 129 1074 q 44 1164 57 1126 l 53 1167 q 101 1107 67 1129 q 183 1085 135 1085 q 265 1107 231 1085 q 313 1167 299 1129 l 321 1164 q 274 1100 310 1126 q 183 1074 238 1074 z "},"Ǐ":{"ha":367,"x_min":25,"x_max":342,"o":"m 189 0 l 178 0 l 178 944 l 189 944 l 189 0 m 342 1175 l 186 1061 l 179 1061 l 25 1175 l 32 1181 l 182 1072 l 335 1181 l 342 1175 z "},"Î":{"ha":367,"x_min":25,"x_max":342,"o":"m 189 0 l 178 0 l 178 944 l 189 944 l 189 0 m 182 1176 l 32 1068 l 25 1075 l 179 1189 l 186 1189 l 342 1075 l 335 1068 l 182 1176 z "},"Ȉ":{"ha":367,"x_min":18,"x_max":264,"o":"m 189 0 l 178 0 l 178 944 l 189 944 l 189 0 m 124 1146 l 114 1140 l 18 1314 l 29 1319 l 124 1146 m 264 1149 l 256 1144 l 167 1310 l 178 1315 l 264 1149 z "},"Ï":{"ha":367,"x_min":61,"x_max":303,"o":"m 189 0 l 178 0 l 178 944 l 189 944 l 189 0 m 75 1143 q 89 1129 89 1143 q 75 1115 89 1115 q 65 1119 69 1115 q 61 1129 61 1124 q 75 1143 61 1143 m 289 1143 q 303 1129 303 1143 q 289 1115 303 1115 q 279 1119 283 1115 q 275 1129 275 1124 q 289 1143 275 1143 z "},"Ḯ":{"ha":367,"x_min":61,"x_max":303,"o":"m 290 1235 l 161 1083 l 154 1089 l 281 1243 l 290 1235 m 75 1058 q 89 1044 89 1058 q 75 1031 89 1031 q 65 1035 69 1031 q 61 1044 61 1039 q 65 1054 61 1050 q 75 1058 69 1058 m 289 1058 q 303 1044 303 1058 q 289 1031 303 1031 q 279 1035 283 1031 q 275 1044 275 1039 q 279 1054 275 1050 q 289 1058 283 1058 m 189 0 l 178 0 l 178 944 l 189 944 l 189 0 z "},"İ":{"ha":367,"x_min":169,"x_max":199,"o":"m 189 0 l 178 0 l 178 944 l 189 944 l 189 0 m 183 1163 q 194 1158 190 1163 q 199 1149 199 1154 q 194 1139 199 1143 q 183 1135 190 1135 q 174 1139 178 1135 q 169 1149 169 1143 q 174 1158 169 1154 q 183 1163 178 1163 z "},"Ị":{"ha":367,"x_min":169,"x_max":199,"o":"m 189 0 l 178 0 l 178 944 l 189 944 l 189 0 m 183 -174 q 174 -169 178 -174 q 169 -160 169 -165 q 174 -150 169 -154 q 183 -146 178 -146 q 194 -150 190 -146 q 199 -160 199 -154 q 194 -169 199 -165 q 183 -174 190 -174 z "},"Ì":{"ha":367,"x_min":71,"x_max":311,"o":"m 189 0 l 178 0 l 178 944 l 189 944 l 189 0 m 311 1076 l 307 1068 l 71 1165 l 76 1178 l 311 1076 z "},"Ỉ":{"ha":367,"x_min":104,"x_max":279,"o":"m 189 0 l 178 0 l 178 944 l 189 944 l 189 0 m 174 1144 q 242 1166 217 1149 q 267 1222 267 1183 q 245 1274 267 1256 q 188 1293 224 1293 q 108 1269 147 1293 l 104 1279 q 189 1303 146 1303 q 254 1281 229 1303 q 279 1222 279 1260 q 185 1138 279 1144 l 185 1082 l 174 1082 l 174 1144 z "},"Ȋ":{"ha":367,"x_min":44,"x_max":321,"o":"m 189 0 l 178 0 l 178 944 l 189 944 l 189 0 m 183 1225 q 274 1197 239 1225 q 321 1122 310 1168 l 313 1119 q 265 1190 299 1165 q 183 1215 232 1215 q 100 1190 133 1215 q 53 1119 67 1165 l 44 1122 q 92 1197 57 1168 q 183 1225 128 1225 z "},"Ī":{"ha":367,"x_min":47,"x_max":318,"o":"m 189 0 l 178 0 l 178 944 l 189 944 l 189 0 m 47 1131 l 47 1142 l 318 1142 l 318 1131 l 47 1131 z "},"Į":{"ha":367,"x_min":-6,"x_max":189,"o":"m 189 944 l 189 0 q 58 -70 110 -31 q 6 -167 6 -110 q 33 -237 6 -212 q 108 -262 61 -262 q 182 -251 143 -262 l 182 -262 q 108 -274 142 -274 q 25 -246 56 -274 q -6 -167 -6 -218 q 45 -69 -6 -110 q 178 4 96 -28 l 178 944 l 189 944 z "},"Ɩ":{"ha":449,"x_min":164,"x_max":400,"o":"m 400 26 q 286 -12 351 -12 q 197 24 231 -12 q 164 126 164 60 l 164 944 l 175 944 l 175 126 q 205 30 175 63 q 286 -3 235 -3 q 347 7 322 -3 q 394 36 372 17 l 400 26 z "},"Ɨ":{"ha":467,"x_min":71,"x_max":396,"o":"m 396 496 l 239 496 l 239 0 l 228 0 l 228 496 l 71 496 l 71 507 l 228 507 l 228 944 l 239 944 l 239 507 l 396 507 l 396 496 z "},"Ĩ":{"ha":367,"x_min":10,"x_max":356,"o":"m 189 0 l 178 0 l 178 944 l 189 944 l 189 0 m 261 1125 q 222 1133 240 1125 q 175 1157 203 1140 q 133 1178 147 1172 q 103 1185 119 1185 q 59 1174 78 1185 q 18 1136 40 1163 l 10 1142 q 56 1183 35 1171 q 103 1196 76 1196 q 138 1188 121 1196 q 181 1165 156 1181 q 223 1142 204 1150 q 261 1135 242 1135 q 308 1147 289 1135 q 349 1188 326 1158 l 356 1183 q 312 1138 333 1151 q 261 1125 290 1125 z "},"J":{"ha":382,"x_min":39,"x_max":213,"o":"m 213 119 q 199 7 213 50 q 150 -69 186 -36 q 43 -131 114 -101 l 39 -121 q 140 -62 106 -93 q 188 11 175 -31 q 201 119 201 53 l 201 944 l 213 944 l 213 119 z "},"Ĵ":{"ha":382,"x_min":39,"x_max":365,"o":"m 213 119 q 199 7 213 50 q 150 -69 186 -36 q 43 -131 114 -101 l 39 -121 q 140 -62 106 -93 q 188 11 175 -31 q 201 119 201 53 l 201 944 l 213 944 l 213 119 m 206 1176 l 56 1068 l 49 1075 l 203 1189 l 210 1189 l 365 1075 l 358 1068 l 206 1176 z "},"Ɉ":{"ha":403,"x_min":39,"x_max":365,"o":"m 365 469 l 213 469 l 213 119 q 199 7 213 50 q 150 -69 186 -36 q 43 -131 114 -101 l 39 -121 q 140 -62 106 -93 q 188 11 175 -31 q 201 119 201 53 l 201 469 l 39 469 l 39 481 l 201 481 l 201 944 l 213 944 l 213 481 l 365 481 l 365 469 z "},"K":{"ha":703,"x_min":178,"x_max":686,"o":"m 189 1 l 178 1 l 178 944 l 189 944 l 189 1 m 208 508 l 686 0 l 672 0 l 193 508 l 650 944 l 664 944 l 208 508 z "},"Ǩ":{"ha":703,"x_min":178,"x_max":686,"o":"m 189 1 l 178 1 l 178 944 l 189 944 l 189 1 m 208 508 l 686 0 l 672 0 l 193 508 l 650 944 l 664 944 l 208 508 m 554 1175 l 399 1061 l 392 1061 l 238 1175 l 244 1181 l 394 1072 l 547 1181 l 554 1175 z "},"Ķ":{"ha":703,"x_min":178,"x_max":686,"o":"m 189 1 l 178 1 l 178 944 l 189 944 l 189 1 m 208 508 l 686 0 l 672 0 l 193 508 l 650 944 l 664 944 l 208 508 m 408 -144 q 424 -158 424 -144 q 417 -185 424 -165 l 378 -340 l 371 -340 l 406 -174 q 393 -158 393 -169 q 397 -149 393 -153 q 408 -144 401 -144 z "},"Ƙ":{"ha":753,"x_min":178,"x_max":736,"o":"m 208 508 l 686 0 l 672 0 l 193 508 l 497 878 q 566 940 535 922 q 638 958 597 958 q 736 911 694 958 l 729 906 q 638 949 686 949 q 571 932 600 949 q 506 871 542 915 l 208 508 m 189 1 l 178 1 l 178 944 l 189 944 l 189 1 z "},"L":{"ha":622,"x_min":178,"x_max":589,"o":"m 189 11 l 589 11 l 588 0 l 178 0 l 178 944 l 189 944 l 189 11 z "},"Ǉ":{"ha":1004,"x_min":178,"x_max":835,"o":"m 189 11 l 589 11 l 588 0 l 178 0 l 178 944 l 189 944 l 189 11 m 835 119 q 822 7 835 50 q 772 -69 808 -36 q 665 -131 736 -101 l 661 -121 q 763 -62 728 -93 q 810 11 797 -31 q 824 119 824 53 l 824 944 l 835 944 l 835 119 z "},"Ĺ":{"ha":622,"x_min":61,"x_max":589,"o":"m 189 11 l 589 11 l 588 0 l 178 0 l 178 944 l 189 944 l 189 11 m 301 1165 l 65 1068 l 61 1076 l 294 1178 l 301 1165 z "},"Ƚ":{"ha":668,"x_min":71,"x_max":635,"o":"m 635 11 l 633 0 l 224 0 l 224 497 l 71 497 l 71 508 l 224 508 l 224 944 l 235 944 l 235 508 l 396 508 l 396 497 l 235 497 l 235 11 l 635 11 z "},"Ľ":{"ha":622,"x_min":178,"x_max":589,"o":"m 189 11 l 589 11 l 588 0 l 178 0 l 178 944 l 189 944 l 189 11 m 339 949 l 308 754 l 300 756 l 326 949 l 339 949 z "},"Ḽ":{"ha":622,"x_min":178,"x_max":589,"o":"m 189 11 l 589 11 l 588 0 l 178 0 l 178 944 l 189 944 l 189 11 m 225 -235 l 381 -114 l 388 -114 l 542 -235 l 535 -242 l 385 -126 l 232 -242 l 225 -235 z "},"Ļ":{"ha":622,"x_min":178,"x_max":589,"o":"m 189 11 l 589 11 l 588 0 l 178 0 l 178 944 l 189 944 l 189 11 m 393 -144 q 408 -158 408 -144 q 401 -185 408 -165 l 363 -340 l 356 -340 l 390 -174 q 378 -158 378 -169 q 382 -149 378 -153 q 393 -144 386 -144 z "},"Ŀ":{"ha":622,"x_min":178,"x_max":589,"o":"m 189 11 l 589 11 l 588 0 l 178 0 l 178 944 l 189 944 l 189 11 m 486 506 q 497 501 493 506 q 501 492 501 497 q 497 482 501 486 q 486 478 493 478 q 476 482 481 478 q 472 492 472 486 q 476 501 472 497 q 486 506 481 506 z "},"Ḷ":{"ha":622,"x_min":178,"x_max":589,"o":"m 189 11 l 589 11 l 588 0 l 178 0 l 178 944 l 189 944 l 189 11 m 383 -174 q 374 -169 378 -174 q 369 -160 369 -165 q 374 -150 369 -154 q 383 -146 378 -146 q 394 -150 390 -146 q 399 -160 399 -154 q 394 -169 399 -165 q 383 -174 390 -174 z "},"ǈ":{"ha":975,"x_min":178,"x_max":814,"o":"m 189 11 l 589 11 l 588 0 l 178 0 l 178 944 l 189 944 l 189 11 m 804 4 q 790 -128 804 -79 q 746 -208 775 -178 q 663 -267 717 -237 l 658 -258 q 738 -203 710 -232 q 779 -125 765 -174 q 793 4 793 -76 l 793 719 l 804 719 l 804 4 m 799 988 q 810 983 806 988 q 814 974 814 979 q 810 964 814 968 q 799 960 806 960 q 789 964 793 960 q 785 974 785 968 q 789 983 785 979 q 799 988 793 988 z "},"Ł":{"ha":626,"x_min":69,"x_max":593,"o":"m 593 11 l 592 0 l 182 0 l 182 444 l 74 378 l 69 386 l 182 456 l 182 944 l 193 944 l 193 463 l 478 639 l 483 631 l 193 451 l 193 11 l 593 11 z "},"M":{"ha":1054,"x_min":115,"x_max":939,"o":"m 939 0 l 928 0 l 871 488 q 849 674 853 639 q 833 806 842 739 q 819 933 825 874 l 532 118 l 521 118 l 232 933 l 199 638 l 182 499 l 126 0 l 115 0 l 222 944 l 239 944 l 526 132 l 813 944 l 829 944 l 939 0 z "},"Ḿ":{"ha":1054,"x_min":115,"x_max":939,"o":"m 939 0 l 928 0 l 871 488 q 849 674 853 639 q 833 806 842 739 q 819 933 825 874 l 532 118 l 521 118 l 232 933 l 199 638 l 182 499 l 126 0 l 115 0 l 222 944 l 239 944 l 526 132 l 813 944 l 829 944 l 939 0 m 643 1165 l 407 1068 l 403 1076 l 636 1178 l 643 1165 z "},"Ṁ":{"ha":1054,"x_min":115,"x_max":939,"o":"m 939 0 l 928 0 l 871 488 q 849 674 853 639 q 833 806 842 739 q 819 933 825 874 l 532 118 l 521 118 l 232 933 l 199 638 l 182 499 l 126 0 l 115 0 l 222 944 l 239 944 l 526 132 l 813 944 l 829 944 l 939 0 m 525 1163 q 536 1158 532 1163 q 540 1149 540 1154 q 536 1139 540 1143 q 525 1135 532 1135 q 515 1139 519 1135 q 511 1149 511 1143 q 515 1158 511 1154 q 525 1163 519 1163 z "},"Ɯ":{"ha":1278,"x_min":164,"x_max":1100,"o":"m 1100 944 l 1100 0 l 1089 0 l 1088 169 q 977 33 1039 81 q 831 -14 915 -14 q 697 34 750 -14 q 631 172 644 82 q 515 33 578 81 q 368 -14 453 -14 q 219 51 274 -14 q 164 238 164 115 l 164 944 l 175 944 l 175 236 q 227 58 175 119 q 369 -3 279 -3 q 513 45 451 -3 q 629 188 575 93 q 626 238 626 204 l 626 944 l 638 944 l 638 236 q 689 58 638 119 q 831 -3 740 -3 q 976 46 914 -3 q 1088 186 1038 94 l 1088 944 l 1100 944 z "},"N":{"ha":911,"x_min":178,"x_max":733,"o":"m 733 0 l 719 0 l 188 932 q 189 758 189 896 l 189 0 l 178 0 l 178 944 l 193 944 l 724 13 l 722 218 l 722 944 l 733 944 l 733 0 z "},"Ǌ":{"ha":1293,"x_min":178,"x_max":1124,"o":"m 733 0 l 719 0 l 188 932 q 189 758 189 896 l 189 0 l 178 0 l 178 944 l 193 944 l 724 13 l 722 218 l 722 944 l 733 944 l 733 0 m 1124 119 q 1110 7 1124 50 q 1061 -69 1097 -36 q 954 -131 1025 -101 l 950 -121 q 1051 -62 1017 -93 q 1099 11 1086 -31 q 1113 119 1113 53 l 1113 944 l 1124 944 l 1124 119 z "},"Ń":{"ha":911,"x_min":178,"x_max":733,"o":"m 733 0 l 719 0 l 188 932 q 189 758 189 896 l 189 0 l 178 0 l 178 944 l 193 944 l 724 13 l 722 218 l 722 944 l 733 944 l 733 0 m 579 1165 l 343 1068 l 339 1076 l 572 1178 l 579 1165 z "},"Ň":{"ha":911,"x_min":178,"x_max":733,"o":"m 733 0 l 719 0 l 188 932 q 189 758 189 896 l 189 0 l 178 0 l 178 944 l 193 944 l 724 13 l 722 218 l 722 944 l 733 944 l 733 0 m 621 1175 l 465 1061 l 458 1061 l 304 1175 l 311 1181 l 461 1072 l 614 1181 l 621 1175 z "},"Ṋ":{"ha":911,"x_min":178,"x_max":733,"o":"m 733 0 l 719 0 l 188 932 q 189 758 189 896 l 189 0 l 178 0 l 178 944 l 193 944 l 724 13 l 722 218 l 722 944 l 733 944 l 733 0 m 290 -235 l 446 -114 l 453 -114 l 607 -235 l 600 -242 l 450 -126 l 297 -242 l 290 -235 z "},"Ņ":{"ha":911,"x_min":178,"x_max":733,"o":"m 733 0 l 719 0 l 188 932 q 189 758 189 896 l 189 0 l 178 0 l 178 944 l 193 944 l 724 13 l 722 218 l 722 944 l 733 944 l 733 0 m 458 -144 q 474 -158 474 -144 q 467 -185 474 -165 l 428 -340 l 421 -340 l 456 -174 q 443 -158 443 -169 q 447 -149 443 -153 q 458 -144 451 -144 z "},"Ṅ":{"ha":911,"x_min":178,"x_max":733,"o":"m 733 0 l 719 0 l 188 932 q 189 758 189 896 l 189 0 l 178 0 l 178 944 l 193 944 l 724 13 l 722 218 l 722 944 l 733 944 l 733 0 m 461 1163 q 472 1158 468 1163 q 476 1149 476 1154 q 472 1139 476 1143 q 461 1135 468 1135 q 451 1139 456 1135 q 447 1149 447 1143 q 451 1158 447 1154 q 461 1163 456 1163 z "},"Ṇ":{"ha":911,"x_min":178,"x_max":733,"o":"m 733 0 l 719 0 l 188 932 q 189 758 189 896 l 189 0 l 178 0 l 178 944 l 193 944 l 724 13 l 722 218 l 722 944 l 733 944 l 733 0 m 449 -174 q 439 -169 443 -174 q 435 -160 435 -165 q 439 -150 435 -154 q 449 -146 443 -146 q 460 -150 456 -146 q 464 -160 464 -154 q 460 -169 464 -165 q 449 -174 456 -174 z "},"Ǹ":{"ha":911,"x_min":178,"x_max":733,"o":"m 733 0 l 719 0 l 188 932 q 189 758 189 896 l 189 0 l 178 0 l 178 944 l 193 944 l 724 13 l 722 218 l 722 944 l 733 944 l 733 0 m 589 1076 l 585 1068 l 349 1165 l 354 1178 l 589 1076 z "},"Ŋ":{"ha":911,"x_min":178,"x_max":733,"o":"m 733 -131 q 700 -233 733 -197 q 611 -269 667 -269 q 547 -258 574 -269 q 497 -229 521 -247 l 503 -221 q 550 -249 525 -239 q 611 -258 575 -258 q 692 -226 663 -258 q 722 -129 722 -193 l 722 0 l 719 0 l 188 932 q 189 758 189 896 l 189 0 l 178 0 l 178 944 l 193 944 l 724 13 l 722 218 l 722 944 l 733 944 l 733 -131 z "},"Ɲ":{"ha":911,"x_min":-47,"x_max":733,"o":"m 733 944 l 733 0 l 719 0 l 188 932 q 189 758 189 896 l 189 -131 q 156 -233 189 -197 q 67 -269 122 -269 q -47 -229 1 -269 l -42 -221 q 6 -249 -19 -239 q 67 -258 31 -258 q 148 -226 118 -258 q 178 -131 178 -193 l 178 944 l 193 944 l 724 13 l 722 218 l 722 944 l 733 944 z "},"ǋ":{"ha":1264,"x_min":178,"x_max":1103,"o":"m 733 0 l 719 0 l 188 932 q 189 758 189 896 l 189 0 l 178 0 l 178 944 l 193 944 l 724 13 l 722 218 l 722 944 l 733 944 l 733 0 m 1093 4 q 1078 -128 1093 -79 q 1035 -208 1064 -178 q 951 -267 1006 -237 l 947 -258 q 1026 -203 999 -232 q 1068 -125 1054 -174 q 1082 4 1082 -76 l 1082 719 l 1093 719 l 1093 4 m 1088 988 q 1099 983 1094 988 q 1103 974 1103 979 q 1099 964 1103 968 q 1088 960 1094 960 q 1078 964 1082 960 q 1074 974 1074 968 q 1078 983 1074 979 q 1088 988 1082 988 z "},"Ƞ":{"ha":893,"x_min":178,"x_max":724,"o":"m 504 958 q 666 894 608 958 q 724 704 724 829 l 724 -262 l 713 -262 l 713 703 q 658 887 713 825 q 504 949 603 949 q 335 901 408 949 q 189 758 261 853 l 189 0 l 178 0 l 178 944 l 188 944 l 189 774 q 334 912 260 865 q 504 958 408 958 z "},"Ñ":{"ha":911,"x_min":178,"x_max":733,"o":"m 733 0 l 719 0 l 188 932 q 189 758 189 896 l 189 0 l 178 0 l 178 944 l 193 944 l 724 13 l 722 218 l 722 944 l 733 944 l 733 0 m 540 1125 q 501 1133 519 1125 q 454 1157 482 1140 q 413 1178 426 1172 q 382 1185 399 1185 q 338 1174 357 1185 q 297 1136 319 1163 l 289 1142 q 335 1183 314 1171 q 382 1196 356 1196 q 417 1188 400 1196 q 460 1165 435 1181 q 502 1142 483 1150 q 540 1135 521 1135 q 587 1147 568 1135 q 628 1188 606 1158 l 635 1183 q 591 1138 613 1151 q 540 1125 569 1125 z "},"O":{"ha":956,"x_min":115,"x_max":840,"o":"m 476 958 q 670 901 589 958 q 796 735 751 844 q 840 472 840 626 q 745 115 840 243 q 476 -12 650 -12 q 285 44 367 -12 q 159 210 203 101 q 115 469 115 318 q 160 731 115 621 q 288 900 206 842 q 476 958 369 958 m 476 949 q 293 892 372 949 q 170 726 214 835 q 126 469 126 618 q 169 216 126 322 q 290 54 211 110 q 476 -1 369 -1 q 737 122 646 -1 q 828 472 828 246 q 735 824 828 700 q 476 949 642 949 z "},"Ȣ":{"ha":872,"x_min":115,"x_max":757,"o":"m 503 535 q 690 444 624 518 q 757 264 757 369 q 719 126 757 189 q 609 25 682 63 q 435 -12 536 -12 q 264 24 336 -12 q 153 123 192 61 q 115 258 115 185 q 184 440 115 363 q 371 535 253 517 q 186 776 186 563 l 186 944 l 197 944 l 197 776 q 251 603 197 668 q 436 539 304 539 q 676 776 676 539 l 676 944 l 688 944 l 688 776 q 503 535 688 564 m 435 -1 q 603 34 533 -1 q 709 130 674 69 q 744 264 744 190 q 708 399 744 339 q 602 493 672 458 q 435 528 532 528 q 272 492 342 528 q 164 394 201 456 q 126 258 126 332 q 163 129 126 189 q 269 34 199 69 q 435 -1 339 -1 z "},"Ó":{"ha":956,"x_min":115,"x_max":840,"o":"m 476 958 q 670 901 589 958 q 796 735 751 844 q 840 472 840 626 q 745 115 840 243 q 476 -12 650 -12 q 285 44 367 -12 q 159 210 203 101 q 115 469 115 318 q 160 731 115 621 q 288 900 206 842 q 476 958 369 958 m 476 949 q 293 892 372 949 q 170 726 214 835 q 126 469 126 618 q 169 216 126 322 q 290 54 211 110 q 476 -1 369 -1 q 737 122 646 -1 q 828 472 828 246 q 735 824 828 700 q 476 949 642 949 m 596 1165 l 360 1068 l 356 1076 l 589 1178 l 596 1165 z "},"Ŏ":{"ha":956,"x_min":115,"x_max":840,"o":"m 476 958 q 670 901 589 958 q 796 735 751 844 q 840 472 840 626 q 745 115 840 243 q 476 -12 650 -12 q 285 44 367 -12 q 159 210 203 101 q 115 469 115 318 q 160 731 115 621 q 288 900 206 842 q 476 958 369 958 m 476 949 q 293 892 372 949 q 170 726 214 835 q 126 469 126 618 q 169 216 126 322 q 290 54 211 110 q 476 -1 369 -1 q 737 122 646 -1 q 828 472 828 246 q 735 824 828 700 q 476 949 642 949 m 479 1074 q 389 1100 425 1074 q 340 1164 353 1126 l 349 1167 q 397 1107 363 1129 q 479 1085 431 1085 q 560 1107 526 1085 q 608 1167 594 1129 l 617 1164 q 569 1100 606 1126 q 479 1074 533 1074 z "},"Ǒ":{"ha":956,"x_min":115,"x_max":840,"o":"m 476 958 q 670 901 589 958 q 796 735 751 844 q 840 472 840 626 q 745 115 840 243 q 476 -12 650 -12 q 285 44 367 -12 q 159 210 203 101 q 115 469 115 318 q 160 731 115 621 q 288 900 206 842 q 476 958 369 958 m 476 949 q 293 892 372 949 q 170 726 214 835 q 126 469 126 618 q 169 216 126 322 q 290 54 211 110 q 476 -1 369 -1 q 737 122 646 -1 q 828 472 828 246 q 735 824 828 700 q 476 949 642 949 m 636 1175 l 481 1061 l 474 1061 l 319 1175 l 326 1181 l 476 1072 l 629 1181 l 636 1175 z "},"Ɵ":{"ha":956,"x_min":115,"x_max":840,"o":"m 476 958 q 670 902 589 958 q 796 737 751 846 q 840 474 840 628 q 745 115 840 242 q 476 -12 650 -12 q 284 44 365 -12 q 159 210 203 101 q 115 474 115 319 q 160 732 115 622 q 288 900 206 842 q 476 958 369 958 m 476 949 q 294 892 374 949 q 172 731 215 836 q 126 482 128 625 l 828 482 q 733 826 826 704 q 476 949 639 949 m 476 -1 q 736 122 644 -1 q 828 472 828 244 l 126 472 q 169 216 126 322 q 291 54 213 110 q 476 -1 369 -1 z "},"Ô":{"ha":956,"x_min":115,"x_max":840,"o":"m 476 958 q 670 901 589 958 q 796 735 751 844 q 840 472 840 626 q 745 115 840 243 q 476 -12 650 -12 q 285 44 367 -12 q 159 210 203 101 q 115 469 115 318 q 160 731 115 621 q 288 900 206 842 q 476 958 369 958 m 476 949 q 293 892 372 949 q 170 726 214 835 q 126 469 126 618 q 169 216 126 322 q 290 54 211 110 q 476 -1 369 -1 q 737 122 646 -1 q 828 472 828 246 q 735 824 828 700 q 476 949 642 949 m 476 1176 l 326 1068 l 319 1075 l 474 1189 l 481 1189 l 636 1075 l 629 1068 l 476 1176 z "},"Ố":{"ha":956,"x_min":115,"x_max":840,"o":"m 722 1286 l 593 1135 l 586 1140 l 713 1294 l 722 1286 m 475 1133 l 325 1025 l 318 1032 l 472 1146 l 479 1146 l 635 1032 l 628 1025 l 475 1133 m 476 958 q 670 901 589 958 q 796 735 751 844 q 840 472 840 626 q 745 115 840 243 q 476 -12 650 -12 q 285 44 367 -12 q 159 210 203 101 q 115 469 115 318 q 160 731 115 621 q 288 900 206 842 q 476 958 369 958 m 476 949 q 293 892 372 949 q 170 726 214 835 q 126 469 126 618 q 169 216 126 322 q 290 54 211 110 q 476 -1 369 -1 q 737 122 646 -1 q 828 472 828 246 q 735 824 828 700 q 476 949 642 949 z "},"Ộ":{"ha":956,"x_min":115,"x_max":840,"o":"m 476 958 q 670 901 589 958 q 796 735 751 844 q 840 472 840 626 q 745 115 840 243 q 476 -12 650 -12 q 285 44 367 -12 q 159 210 203 101 q 115 469 115 318 q 160 731 115 621 q 288 900 206 842 q 476 958 369 958 m 476 949 q 293 892 372 949 q 170 726 214 835 q 126 469 126 618 q 169 216 126 322 q 290 54 211 110 q 476 -1 369 -1 q 737 122 646 -1 q 828 472 828 246 q 735 824 828 700 q 476 949 642 949 m 476 1176 l 326 1068 l 319 1075 l 474 1189 l 481 1189 l 636 1075 l 629 1068 l 476 1176 m 478 -174 q 468 -169 472 -174 q 464 -160 464 -165 q 468 -150 464 -154 q 478 -146 472 -146 q 489 -150 485 -146 q 493 -160 493 -154 q 489 -169 493 -165 q 478 -174 485 -174 z "},"Ồ":{"ha":956,"x_min":115,"x_max":840,"o":"m 367 1140 l 360 1135 l 231 1286 l 239 1294 l 367 1140 m 476 1133 l 326 1025 l 319 1032 l 474 1146 l 481 1146 l 636 1032 l 629 1025 l 476 1133 m 476 958 q 670 901 589 958 q 796 735 751 844 q 840 472 840 626 q 745 115 840 243 q 476 -12 650 -12 q 285 44 367 -12 q 159 210 203 101 q 115 469 115 318 q 160 731 115 621 q 288 900 206 842 q 476 958 369 958 m 476 949 q 293 892 372 949 q 170 726 214 835 q 126 469 126 618 q 169 216 126 322 q 290 54 211 110 q 476 -1 369 -1 q 737 122 646 -1 q 828 472 828 246 q 735 824 828 700 q 476 949 642 949 z "},"Ổ":{"ha":956,"x_min":115,"x_max":840,"o":"m 601 1165 q 669 1187 644 1169 q 694 1243 694 1204 q 673 1295 694 1276 q 615 1314 651 1314 q 536 1290 575 1314 l 532 1300 q 617 1324 574 1324 q 682 1302 657 1324 q 707 1243 707 1281 q 613 1158 707 1165 l 613 1103 l 601 1103 l 601 1165 m 475 1133 l 325 1025 l 318 1032 l 472 1146 l 479 1146 l 635 1032 l 628 1025 l 475 1133 m 476 958 q 670 901 589 958 q 796 735 751 844 q 840 472 840 626 q 745 115 840 243 q 476 -12 650 -12 q 285 44 367 -12 q 159 210 203 101 q 115 469 115 318 q 160 731 115 621 q 288 900 206 842 q 476 958 369 958 m 476 949 q 293 892 372 949 q 170 726 214 835 q 126 469 126 618 q 169 216 126 322 q 290 54 211 110 q 476 -1 369 -1 q 737 122 646 -1 q 828 472 828 246 q 735 824 828 700 q 476 949 642 949 z "},"Ỗ":{"ha":956,"x_min":115,"x_max":840,"o":"m 553 1213 q 513 1220 532 1213 q 467 1244 494 1228 q 425 1266 439 1260 q 394 1272 411 1272 q 351 1261 369 1272 q 310 1224 332 1250 l 301 1229 q 347 1271 326 1258 q 394 1283 368 1283 q 430 1276 413 1283 q 472 1253 447 1268 q 515 1230 496 1238 q 553 1222 533 1222 q 599 1234 581 1222 q 640 1275 618 1246 l 647 1271 q 603 1226 625 1239 q 553 1213 582 1213 m 475 1133 l 325 1025 l 318 1032 l 472 1146 l 479 1146 l 635 1032 l 628 1025 l 475 1133 m 476 958 q 670 901 589 958 q 796 735 751 844 q 840 472 840 626 q 745 115 840 243 q 476 -12 650 -12 q 285 44 367 -12 q 159 210 203 101 q 115 469 115 318 q 160 731 115 621 q 288 900 206 842 q 476 958 369 958 m 476 949 q 293 892 372 949 q 170 726 214 835 q 126 469 126 618 q 169 216 126 322 q 290 54 211 110 q 476 -1 369 -1 q 737 122 646 -1 q 828 472 828 246 q 735 824 828 700 q 476 949 642 949 z "},"Ȍ":{"ha":956,"x_min":115,"x_max":840,"o":"m 476 958 q 670 901 589 958 q 796 735 751 844 q 840 472 840 626 q 745 115 840 243 q 476 -12 650 -12 q 285 44 367 -12 q 159 210 203 101 q 115 469 115 318 q 160 731 115 621 q 288 900 206 842 q 476 958 369 958 m 476 949 q 293 892 372 949 q 170 726 214 835 q 126 469 126 618 q 169 216 126 322 q 290 54 211 110 q 476 -1 369 -1 q 737 122 646 -1 q 828 472 828 246 q 735 824 828 700 q 476 949 642 949 m 418 1146 l 408 1140 l 313 1314 l 324 1319 l 418 1146 m 558 1149 l 550 1144 l 461 1310 l 472 1315 l 558 1149 z "},"Ö":{"ha":956,"x_min":115,"x_max":840,"o":"m 476 958 q 670 901 589 958 q 796 735 751 844 q 840 472 840 626 q 745 115 840 243 q 476 -12 650 -12 q 285 44 367 -12 q 159 210 203 101 q 115 469 115 318 q 160 731 115 621 q 288 900 206 842 q 476 958 369 958 m 476 949 q 293 892 372 949 q 170 726 214 835 q 126 469 126 618 q 169 216 126 322 q 290 54 211 110 q 476 -1 369 -1 q 737 122 646 -1 q 828 472 828 246 q 735 824 828 700 q 476 949 642 949 m 371 1143 q 385 1129 385 1143 q 371 1115 385 1115 q 361 1119 365 1115 q 357 1129 357 1124 q 371 1143 357 1143 m 585 1143 q 599 1129 599 1143 q 585 1115 599 1115 q 575 1119 579 1115 q 571 1129 571 1124 q 585 1143 571 1143 z "},"Ȫ":{"ha":956,"x_min":115,"x_max":840,"o":"m 346 1164 l 346 1175 l 617 1175 l 617 1164 l 346 1164 m 371 1058 q 385 1044 385 1058 q 371 1031 385 1031 q 361 1035 365 1031 q 357 1044 357 1039 q 371 1058 357 1058 m 585 1058 q 599 1044 599 1058 q 585 1031 599 1031 q 575 1035 579 1031 q 571 1044 571 1039 q 585 1058 571 1058 m 476 958 q 670 901 589 958 q 796 735 751 844 q 840 472 840 626 q 745 115 840 243 q 476 -12 650 -12 q 285 44 367 -12 q 159 210 203 101 q 115 469 115 318 q 160 731 115 621 q 288 900 206 842 q 476 958 369 958 m 476 949 q 293 892 372 949 q 170 726 214 835 q 126 469 126 618 q 169 216 126 322 q 290 54 211 110 q 476 -1 369 -1 q 737 122 646 -1 q 828 472 828 246 q 735 824 828 700 q 476 949 642 949 z "},"Ȯ":{"ha":956,"x_min":115,"x_max":840,"o":"m 476 958 q 670 901 589 958 q 796 735 751 844 q 840 472 840 626 q 745 115 840 243 q 476 -12 650 -12 q 285 44 367 -12 q 159 210 203 101 q 115 469 115 318 q 160 731 115 621 q 288 900 206 842 q 476 958 369 958 m 476 949 q 293 892 372 949 q 170 726 214 835 q 126 469 126 618 q 169 216 126 322 q 290 54 211 110 q 476 -1 369 -1 q 737 122 646 -1 q 828 472 828 246 q 735 824 828 700 q 476 949 642 949 m 478 1163 q 489 1158 485 1163 q 493 1149 493 1154 q 489 1139 493 1143 q 478 1135 485 1135 q 468 1139 472 1135 q 464 1149 464 1143 q 468 1158 464 1154 q 478 1163 472 1163 z "},"Ȱ":{"ha":956,"x_min":115,"x_max":840,"o":"m 344 1163 l 344 1174 l 615 1174 l 615 1163 l 344 1163 m 476 1069 q 488 1065 483 1069 q 492 1056 492 1061 q 488 1046 492 1050 q 476 1042 483 1042 q 467 1046 471 1042 q 463 1056 463 1050 q 467 1065 463 1061 q 476 1069 471 1069 m 476 958 q 670 901 589 958 q 796 735 751 844 q 840 472 840 626 q 745 115 840 243 q 476 -12 650 -12 q 285 44 367 -12 q 159 210 203 101 q 115 469 115 318 q 160 731 115 621 q 288 900 206 842 q 476 958 369 958 m 476 949 q 293 892 372 949 q 170 726 214 835 q 126 469 126 618 q 169 216 126 322 q 290 54 211 110 q 476 -1 369 -1 q 737 122 646 -1 q 828 472 828 246 q 735 824 828 700 q 476 949 642 949 z "},"Ọ":{"ha":956,"x_min":115,"x_max":840,"o":"m 476 958 q 670 901 589 958 q 796 735 751 844 q 840 472 840 626 q 745 115 840 243 q 476 -12 650 -12 q 285 44 367 -12 q 159 210 203 101 q 115 469 115 318 q 160 731 115 621 q 288 900 206 842 q 476 958 369 958 m 476 949 q 293 892 372 949 q 170 726 214 835 q 126 469 126 618 q 169 216 126 322 q 290 54 211 110 q 476 -1 369 -1 q 737 122 646 -1 q 828 472 828 246 q 735 824 828 700 q 476 949 642 949 m 478 -174 q 468 -169 472 -174 q 464 -160 464 -165 q 468 -150 464 -154 q 478 -146 472 -146 q 489 -150 485 -146 q 493 -160 493 -154 q 489 -169 493 -165 q 478 -174 485 -174 z "},"Ò":{"ha":956,"x_min":115,"x_max":840,"o":"m 476 958 q 670 901 589 958 q 796 735 751 844 q 840 472 840 626 q 745 115 840 243 q 476 -12 650 -12 q 285 44 367 -12 q 159 210 203 101 q 115 469 115 318 q 160 731 115 621 q 288 900 206 842 q 476 958 369 958 m 476 949 q 293 892 372 949 q 170 726 214 835 q 126 469 126 618 q 169 216 126 322 q 290 54 211 110 q 476 -1 369 -1 q 737 122 646 -1 q 828 472 828 246 q 735 824 828 700 q 476 949 642 949 m 606 1076 l 601 1068 l 365 1165 l 371 1178 l 606 1076 z "},"Ỏ":{"ha":956,"x_min":115,"x_max":840,"o":"m 476 958 q 670 901 589 958 q 796 735 751 844 q 840 472 840 626 q 745 115 840 243 q 476 -12 650 -12 q 285 44 367 -12 q 159 210 203 101 q 115 469 115 318 q 160 731 115 621 q 288 900 206 842 q 476 958 369 958 m 476 949 q 293 892 372 949 q 170 726 214 835 q 126 469 126 618 q 169 216 126 322 q 290 54 211 110 q 476 -1 369 -1 q 737 122 646 -1 q 828 472 828 246 q 735 824 828 700 q 476 949 642 949 m 468 1144 q 536 1166 511 1149 q 561 1222 561 1183 q 540 1274 561 1256 q 482 1293 518 1293 q 403 1269 442 1293 l 399 1279 q 483 1303 440 1303 q 549 1281 524 1303 q 574 1222 574 1260 q 479 1138 574 1144 l 479 1082 l 468 1082 l 468 1144 z "},"Ơ":{"ha":956,"x_min":115,"x_max":840,"o":"m 717 863 q 808 701 776 800 q 840 472 840 603 q 745 115 840 243 q 476 -12 650 -12 q 285 44 367 -12 q 159 210 203 101 q 115 469 115 318 q 160 731 115 621 q 288 900 206 842 q 476 958 369 958 q 710 869 618 958 q 773 895 753 875 q 793 954 793 915 q 774 1054 793 1006 l 783 1057 q 804 954 804 1006 q 717 863 804 871 m 476 -1 q 737 122 646 -1 q 828 472 828 246 q 735 824 828 700 q 476 949 642 949 q 293 892 372 949 q 170 726 214 835 q 126 469 126 618 q 169 216 126 322 q 290 54 211 110 q 476 -1 369 -1 z "},"Ớ":{"ha":956,"x_min":115,"x_max":840,"o":"m 360 1068 l 356 1076 l 589 1178 l 596 1165 l 360 1068 m 717 863 q 808 701 776 800 q 840 472 840 603 q 745 115 840 243 q 476 -12 650 -12 q 285 44 367 -12 q 159 210 203 101 q 115 469 115 318 q 160 731 115 621 q 288 900 206 842 q 476 958 369 958 q 710 869 618 958 q 773 895 753 875 q 793 954 793 915 q 774 1054 793 1006 l 783 1057 q 804 954 804 1006 q 717 863 804 871 m 476 -1 q 737 122 646 -1 q 828 472 828 246 q 735 824 828 700 q 476 949 642 949 q 293 892 372 949 q 170 726 214 835 q 126 469 126 618 q 169 216 126 322 q 290 54 211 110 q 476 -1 369 -1 z "},"Ợ":{"ha":956,"x_min":115,"x_max":840,"o":"m 717 863 q 808 701 776 800 q 840 472 840 603 q 745 115 840 243 q 476 -12 650 -12 q 285 44 367 -12 q 159 210 203 101 q 115 469 115 318 q 160 731 115 621 q 288 900 206 842 q 476 958 369 958 q 710 869 618 958 q 773 895 753 875 q 793 954 793 915 q 774 1054 793 1006 l 783 1057 q 804 954 804 1006 q 717 863 804 871 m 476 -1 q 737 122 646 -1 q 828 472 828 246 q 735 824 828 700 q 476 949 642 949 q 293 892 372 949 q 170 726 214 835 q 126 469 126 618 q 169 216 126 322 q 290 54 211 110 q 476 -1 369 -1 m 478 -146 q 489 -150 485 -146 q 493 -160 493 -154 q 489 -169 493 -165 q 478 -174 485 -174 q 468 -169 472 -174 q 464 -160 464 -165 q 468 -150 464 -154 q 478 -146 472 -146 z "},"Ờ":{"ha":956,"x_min":115,"x_max":840,"o":"m 601 1068 l 365 1165 l 371 1178 l 606 1076 l 601 1068 m 717 863 q 808 701 776 800 q 840 472 840 603 q 745 115 840 243 q 476 -12 650 -12 q 285 44 367 -12 q 159 210 203 101 q 115 469 115 318 q 160 731 115 621 q 288 900 206 842 q 476 958 369 958 q 710 869 618 958 q 773 895 753 875 q 793 954 793 915 q 774 1054 793 1006 l 783 1057 q 804 954 804 1006 q 717 863 804 871 m 476 -1 q 737 122 646 -1 q 828 472 828 246 q 735 824 828 700 q 476 949 642 949 q 293 892 372 949 q 170 726 214 835 q 126 469 126 618 q 169 216 126 322 q 290 54 211 110 q 476 -1 369 -1 z "},"Ở":{"ha":956,"x_min":115,"x_max":840,"o":"m 482 1293 q 403 1269 442 1293 l 399 1279 q 483 1303 440 1303 q 549 1281 524 1303 q 574 1222 574 1260 q 479 1138 574 1144 l 479 1082 l 468 1082 l 468 1144 q 536 1166 511 1149 q 561 1222 561 1183 q 540 1274 561 1256 q 482 1293 518 1293 m 717 863 q 808 701 776 800 q 840 472 840 603 q 745 115 840 243 q 476 -12 650 -12 q 285 44 367 -12 q 159 210 203 101 q 115 469 115 318 q 160 731 115 621 q 288 900 206 842 q 476 958 369 958 q 710 869 618 958 q 773 895 753 875 q 793 954 793 915 q 774 1054 793 1006 l 783 1057 q 804 954 804 1006 q 717 863 804 871 m 476 -1 q 737 122 646 -1 q 828 472 828 246 q 735 824 828 700 q 476 949 642 949 q 293 892 372 949 q 170 726 214 835 q 126 469 126 618 q 169 216 126 322 q 290 54 211 110 q 476 -1 369 -1 z "},"Ỡ":{"ha":956,"x_min":115,"x_max":840,"o":"m 397 1185 q 353 1174 372 1185 q 313 1136 335 1163 l 304 1142 q 350 1183 329 1171 q 397 1196 371 1196 q 433 1188 415 1196 q 475 1165 450 1181 q 517 1142 499 1150 q 556 1135 536 1135 q 602 1147 583 1135 q 643 1188 621 1158 l 650 1183 q 606 1138 628 1151 q 556 1125 585 1125 q 516 1133 535 1125 q 469 1157 497 1140 q 428 1178 442 1172 q 397 1185 414 1185 m 717 863 q 808 701 776 800 q 840 472 840 603 q 745 115 840 243 q 476 -12 650 -12 q 285 44 367 -12 q 159 210 203 101 q 115 469 115 318 q 160 731 115 621 q 288 900 206 842 q 476 958 369 958 q 710 869 618 958 q 773 895 753 875 q 793 954 793 915 q 774 1054 793 1006 l 783 1057 q 804 954 804 1006 q 717 863 804 871 m 476 -1 q 737 122 646 -1 q 828 472 828 246 q 735 824 828 700 q 476 949 642 949 q 293 892 372 949 q 170 726 214 835 q 126 469 126 618 q 169 216 126 322 q 290 54 211 110 q 476 -1 369 -1 z "},"Ő":{"ha":956,"x_min":115,"x_max":840,"o":"m 476 958 q 670 901 589 958 q 796 735 751 844 q 840 472 840 626 q 745 115 840 243 q 476 -12 650 -12 q 285 44 367 -12 q 159 210 203 101 q 115 469 115 318 q 160 731 115 621 q 288 900 206 842 q 476 958 369 958 m 476 949 q 293 892 372 949 q 170 726 214 835 q 126 469 126 618 q 169 216 126 322 q 290 54 211 110 q 476 -1 369 -1 q 737 122 646 -1 q 828 472 828 246 q 735 824 828 700 q 476 949 642 949 m 642 1263 l 546 1089 l 538 1094 l 631 1268 l 642 1263 m 493 1258 l 404 1093 l 396 1097 l 482 1264 l 493 1258 z "},"Ƣ":{"ha":1215,"x_min":115,"x_max":1039,"o":"m 888 958 q 1001 917 963 958 q 1039 794 1039 875 l 1039 -262 l 1026 -262 l 1026 794 q 991 910 1026 871 q 888 949 956 949 q 788 934 833 949 q 688 889 742 919 q 801 724 761 829 q 840 472 840 618 q 745 115 840 243 q 476 -12 650 -12 q 285 44 367 -12 q 159 210 203 101 q 115 469 115 318 q 160 731 115 621 q 288 900 206 842 q 476 958 369 958 q 679 896 596 958 q 784 943 736 928 q 888 958 832 958 m 828 472 q 735 824 828 700 q 476 949 642 949 q 293 892 372 949 q 170 726 214 835 q 126 469 126 618 q 169 216 126 322 q 290 54 211 110 q 476 -1 369 -1 q 737 122 646 -1 q 828 472 828 246 z "},"Ȏ":{"ha":956,"x_min":115,"x_max":840,"o":"m 476 958 q 670 901 589 958 q 796 735 751 844 q 840 472 840 626 q 745 115 840 243 q 476 -12 650 -12 q 285 44 367 -12 q 159 210 203 101 q 115 469 115 318 q 160 731 115 621 q 288 900 206 842 q 476 958 369 958 m 476 949 q 293 892 372 949 q 170 726 214 835 q 126 469 126 618 q 169 216 126 322 q 290 54 211 110 q 476 -1 369 -1 q 737 122 646 -1 q 828 472 828 246 q 735 824 828 700 q 476 949 642 949 m 479 1225 q 570 1197 535 1225 q 617 1122 606 1168 l 608 1119 q 561 1190 594 1165 q 479 1215 528 1215 q 396 1190 429 1215 q 349 1119 363 1165 l 340 1122 q 388 1197 353 1168 q 479 1225 424 1225 z "},"Ō":{"ha":956,"x_min":115,"x_max":840,"o":"m 476 958 q 670 901 589 958 q 796 735 751 844 q 840 472 840 626 q 745 115 840 243 q 476 -12 650 -12 q 285 44 367 -12 q 159 210 203 101 q 115 469 115 318 q 160 731 115 621 q 288 900 206 842 q 476 958 369 958 m 476 949 q 293 892 372 949 q 170 726 214 835 q 126 469 126 618 q 169 216 126 322 q 290 54 211 110 q 476 -1 369 -1 q 737 122 646 -1 q 828 472 828 246 q 735 824 828 700 q 476 949 642 949 m 343 1131 l 343 1142 l 614 1142 l 614 1131 l 343 1131 z "},"Ṓ":{"ha":956,"x_min":115,"x_max":840,"o":"m 597 1271 l 361 1174 l 357 1182 l 590 1283 l 597 1271 m 343 1071 l 343 1082 l 614 1082 l 614 1071 l 343 1071 m 476 958 q 670 901 589 958 q 796 735 751 844 q 840 472 840 626 q 745 115 840 243 q 476 -12 650 -12 q 285 44 367 -12 q 159 210 203 101 q 115 469 115 318 q 160 731 115 621 q 288 900 206 842 q 476 958 369 958 m 476 949 q 293 892 372 949 q 170 726 214 835 q 126 469 126 618 q 169 216 126 322 q 290 54 211 110 q 476 -1 369 -1 q 737 122 646 -1 q 828 472 828 246 q 735 824 828 700 q 476 949 642 949 z "},"Ṑ":{"ha":956,"x_min":115,"x_max":840,"o":"m 608 1182 l 604 1174 l 368 1271 l 374 1283 l 608 1182 m 343 1071 l 343 1082 l 614 1082 l 614 1071 l 343 1071 m 476 958 q 670 901 589 958 q 796 735 751 844 q 840 472 840 626 q 745 115 840 243 q 476 -12 650 -12 q 285 44 367 -12 q 159 210 203 101 q 115 469 115 318 q 160 731 115 621 q 288 900 206 842 q 476 958 369 958 m 476 949 q 293 892 372 949 q 170 726 214 835 q 126 469 126 618 q 169 216 126 322 q 290 54 211 110 q 476 -1 369 -1 q 737 122 646 -1 q 828 472 828 246 q 735 824 828 700 q 476 949 642 949 z "},"Ǫ":{"ha":956,"x_min":115,"x_max":840,"o":"m 569 -3 q 442 -72 492 -33 q 392 -167 392 -111 q 419 -237 392 -212 q 494 -262 447 -262 q 568 -251 529 -262 l 568 -262 q 494 -274 528 -274 q 411 -246 442 -274 q 381 -167 381 -218 q 531 -10 381 -75 q 476 -12 497 -12 q 285 44 367 -12 q 159 210 203 101 q 115 469 115 318 q 160 731 115 621 q 288 900 206 842 q 476 958 369 958 q 670 901 589 958 q 796 735 751 844 q 840 472 840 626 q 770 152 840 275 q 569 -3 700 29 m 126 469 q 169 216 126 322 q 290 54 211 110 q 476 -1 369 -1 q 737 122 646 -1 q 828 472 828 246 q 735 824 828 700 q 476 949 642 949 q 293 892 372 949 q 170 726 214 835 q 126 469 126 618 z "},"Ǭ":{"ha":956,"x_min":115,"x_max":840,"o":"m 614 1131 l 343 1131 l 343 1142 l 614 1142 l 614 1131 m 569 -3 q 442 -72 492 -33 q 392 -167 392 -111 q 419 -237 392 -212 q 494 -262 447 -262 q 568 -251 529 -262 l 568 -262 q 494 -274 528 -274 q 411 -246 442 -274 q 381 -167 381 -218 q 531 -10 381 -75 q 476 -12 497 -12 q 285 44 367 -12 q 159 210 203 101 q 115 469 115 318 q 160 731 115 621 q 288 900 206 842 q 476 958 369 958 q 670 901 589 958 q 796 735 751 844 q 840 472 840 626 q 770 152 840 275 q 569 -3 700 29 m 126 469 q 169 216 126 322 q 290 54 211 110 q 476 -1 369 -1 q 737 122 646 -1 q 828 472 828 246 q 735 824 828 700 q 476 949 642 949 q 293 892 372 949 q 170 726 214 835 q 126 469 126 618 z "},"Ɔ":{"ha":739,"x_min":36,"x_max":624,"o":"m 283 958 q 533 835 442 958 q 624 471 624 713 q 579 209 624 318 q 455 44 535 100 q 271 -12 375 -12 q 138 10 193 -12 q 36 71 82 32 l 43 79 q 142 20 89 42 q 271 -1 196 -1 q 448 53 371 -1 q 569 214 525 107 q 613 471 613 321 q 524 828 613 708 q 283 949 436 949 q 158 928 211 949 q 54 871 106 908 l 49 879 q 153 938 99 917 q 283 958 208 958 z "},"Ø":{"ha":956,"x_min":115,"x_max":840,"o":"m 617 932 q 782 768 724 886 q 840 472 840 650 q 745 115 840 243 q 476 -12 650 -12 q 349 10 406 -12 l 303 -146 l 290 -143 l 339 14 q 174 177 232 60 q 115 469 115 294 q 160 731 115 621 q 288 900 206 842 q 476 958 369 958 q 607 936 550 958 l 654 1097 l 665 1094 l 617 932 m 126 469 q 183 184 126 299 q 342 25 239 69 l 604 925 q 476 949 546 949 q 293 892 372 949 q 170 726 214 835 q 126 469 126 618 m 476 -1 q 737 122 646 -1 q 828 472 828 246 q 772 762 828 647 q 614 921 717 876 l 351 21 q 476 -1 406 -1 z "},"Ǿ":{"ha":956,"x_min":115,"x_max":840,"o":"m 617 932 q 782 768 724 886 q 840 472 840 650 q 745 115 840 243 q 476 -12 650 -12 q 349 10 406 -12 l 303 -146 l 290 -143 l 339 14 q 174 177 232 60 q 115 469 115 294 q 160 731 115 621 q 288 900 206 842 q 476 958 369 958 q 607 936 550 958 l 654 1097 l 665 1094 l 617 932 m 126 469 q 183 184 126 299 q 342 25 239 69 l 604 925 q 476 949 546 949 q 293 892 372 949 q 170 726 214 835 q 126 469 126 618 m 476 -1 q 737 122 646 -1 q 828 472 828 246 q 772 762 828 647 q 614 921 717 876 l 351 21 q 476 -1 406 -1 m 583 1176 l 347 1079 l 343 1088 l 576 1189 l 583 1176 z "},"Õ":{"ha":956,"x_min":115,"x_max":840,"o":"m 476 958 q 670 901 589 958 q 796 735 751 844 q 840 472 840 626 q 745 115 840 243 q 476 -12 650 -12 q 285 44 367 -12 q 159 210 203 101 q 115 469 115 318 q 160 731 115 621 q 288 900 206 842 q 476 958 369 958 m 476 949 q 293 892 372 949 q 170 726 214 835 q 126 469 126 618 q 169 216 126 322 q 290 54 211 110 q 476 -1 369 -1 q 737 122 646 -1 q 828 472 828 246 q 735 824 828 700 q 476 949 642 949 m 556 1125 q 516 1133 535 1125 q 469 1157 497 1140 q 428 1178 442 1172 q 397 1185 414 1185 q 353 1174 372 1185 q 313 1136 335 1163 l 304 1142 q 350 1183 329 1171 q 397 1196 371 1196 q 433 1188 415 1196 q 475 1165 450 1181 q 517 1142 499 1150 q 556 1135 536 1135 q 602 1147 583 1135 q 643 1188 621 1158 l 650 1183 q 606 1138 628 1151 q 556 1125 585 1125 z "},"Ṍ":{"ha":956,"x_min":115,"x_max":840,"o":"m 596 1289 l 360 1192 l 356 1200 l 589 1301 l 596 1289 m 558 1054 q 519 1062 538 1054 q 472 1086 500 1069 q 431 1108 444 1101 q 400 1114 417 1114 q 356 1103 375 1114 q 315 1065 338 1092 l 307 1071 q 353 1113 332 1100 q 400 1125 374 1125 q 435 1117 418 1125 q 478 1094 453 1110 q 520 1072 501 1079 q 558 1064 539 1064 q 605 1076 586 1064 q 646 1117 624 1088 l 653 1113 q 609 1067 631 1081 q 558 1054 588 1054 m 476 958 q 670 901 589 958 q 796 735 751 844 q 840 472 840 626 q 745 115 840 243 q 476 -12 650 -12 q 285 44 367 -12 q 159 210 203 101 q 115 469 115 318 q 160 731 115 621 q 288 900 206 842 q 476 958 369 958 m 476 949 q 293 892 372 949 q 170 726 214 835 q 126 469 126 618 q 169 216 126 322 q 290 54 211 110 q 476 -1 369 -1 q 737 122 646 -1 q 828 472 828 246 q 735 824 828 700 q 476 949 642 949 z "},"Ȭ":{"ha":956,"x_min":115,"x_max":840,"o":"m 342 1215 l 342 1226 l 613 1226 l 613 1215 l 342 1215 m 558 1054 q 519 1062 538 1054 q 472 1086 500 1069 q 431 1108 444 1101 q 400 1114 417 1114 q 356 1103 375 1114 q 315 1065 338 1092 l 307 1071 q 353 1113 332 1100 q 400 1125 374 1125 q 435 1117 418 1125 q 478 1094 453 1110 q 520 1072 501 1079 q 558 1064 539 1064 q 605 1076 586 1064 q 646 1117 624 1088 l 653 1113 q 609 1067 631 1081 q 558 1054 588 1054 m 476 958 q 670 901 589 958 q 796 735 751 844 q 840 472 840 626 q 745 115 840 243 q 476 -12 650 -12 q 285 44 367 -12 q 159 210 203 101 q 115 469 115 318 q 160 731 115 621 q 288 900 206 842 q 476 958 369 958 m 476 949 q 293 892 372 949 q 170 726 214 835 q 126 469 126 618 q 169 216 126 322 q 290 54 211 110 q 476 -1 369 -1 q 737 122 646 -1 q 828 472 828 246 q 735 824 828 700 q 476 949 642 949 z "},"Œ":{"ha":1167,"x_min":115,"x_max":1100,"o":"m 1100 11 l 1100 0 l 547 0 q 453 -12 506 -12 q 275 44 351 -12 q 157 210 199 101 q 115 469 115 319 q 158 731 115 621 q 276 900 200 842 q 453 958 353 958 q 549 944 507 958 l 1088 944 l 1086 935 l 579 935 q 742 780 685 892 q 801 506 799 668 l 1028 506 l 1028 496 l 801 496 q 743 175 801 297 q 575 11 685 53 l 1100 11 m 126 469 q 167 216 126 322 q 281 54 207 110 q 453 -1 354 -1 q 703 126 615 -1 q 790 497 790 254 q 749 738 790 636 q 633 894 708 840 q 453 949 557 949 q 283 891 357 949 q 167 726 208 833 q 126 469 126 618 z "},"P":{"ha":769,"x_min":178,"x_max":682,"o":"m 354 944 q 601 880 521 944 q 682 674 682 815 q 349 400 682 400 l 189 400 l 189 0 l 178 0 l 178 944 l 354 944 m 350 411 q 671 672 671 411 q 593 872 671 810 q 354 935 515 935 l 189 935 l 189 411 l 350 411 z "},"Ṕ":{"ha":769,"x_min":178,"x_max":682,"o":"m 354 944 q 601 880 521 944 q 682 674 682 815 q 349 400 682 400 l 189 400 l 189 0 l 178 0 l 178 944 l 354 944 m 350 411 q 671 672 671 411 q 593 872 671 810 q 354 935 515 935 l 189 935 l 189 411 l 350 411 m 503 1165 l 267 1068 l 263 1076 l 496 1178 l 503 1165 z "},"Ṗ":{"ha":769,"x_min":178,"x_max":682,"o":"m 354 944 q 601 880 521 944 q 682 674 682 815 q 349 400 682 400 l 189 400 l 189 0 l 178 0 l 178 944 l 354 944 m 350 411 q 671 672 671 411 q 593 872 671 810 q 354 935 515 935 l 189 935 l 189 411 l 350 411 m 385 1163 q 396 1158 392 1163 q 400 1149 400 1154 q 396 1139 400 1143 q 385 1135 392 1135 q 375 1139 379 1135 q 371 1149 371 1143 q 375 1158 371 1154 q 385 1163 379 1163 z "},"Ƥ":{"ha":832,"x_min":39,"x_max":744,"o":"m 417 944 q 663 879 582 944 q 744 674 744 814 q 411 400 744 400 l 251 400 l 251 0 l 240 0 l 240 935 l 179 935 q 83 905 115 935 q 50 822 50 875 q 59 766 50 789 q 88 715 68 743 l 79 710 q 49 763 60 739 q 39 822 39 788 q 75 913 39 881 q 181 944 111 944 l 242 944 l 417 944 m 413 411 q 733 672 733 411 q 656 872 733 810 q 417 935 578 935 l 251 935 l 251 411 l 413 411 z "},"Þ":{"ha":769,"x_min":178,"x_max":682,"o":"m 354 765 q 601 699 521 765 q 682 489 682 633 q 349 211 682 211 l 189 211 l 189 0 l 178 0 l 178 944 l 189 944 l 189 765 l 354 765 m 350 222 q 588 285 504 222 q 671 489 671 349 q 594 692 671 629 q 354 756 517 756 l 189 756 l 189 222 l 350 222 z "},"Q":{"ha":936,"x_min":115,"x_max":861,"o":"m 535 -4 q 723 -26 646 -6 q 861 -96 800 -46 l 853 -104 q 706 -31 788 -51 q 485 -12 625 -11 l 476 -12 q 285 44 367 -12 q 159 210 203 101 q 115 469 115 318 q 160 731 115 621 q 288 900 206 842 q 476 958 369 958 q 670 901 589 958 q 796 735 751 844 q 840 472 840 626 q 760 136 840 260 q 535 -4 679 13 m 126 469 q 169 216 126 322 q 290 54 211 110 q 476 -1 369 -1 q 737 122 646 -1 q 828 472 828 246 q 735 824 828 700 q 476 949 642 949 q 293 892 372 949 q 170 726 214 835 q 126 469 126 618 z "},"Ɋ":{"ha":892,"x_min":115,"x_max":939,"o":"m 939 -229 q 889 -258 915 -247 q 825 -269 863 -269 q 736 -233 769 -269 q 703 -131 703 -197 l 703 122 q 449 -12 613 -12 q 276 42 351 -12 q 158 203 200 97 q 115 456 115 308 q 159 726 115 613 q 281 899 203 839 q 458 958 358 958 q 599 926 538 958 q 703 840 661 894 l 704 944 l 714 944 l 714 -129 q 744 -226 714 -193 q 825 -258 774 -258 q 886 -249 861 -258 q 933 -221 911 -239 l 939 -229 m 449 -1 q 595 33 533 -1 q 703 138 657 68 l 703 825 q 599 915 660 882 q 458 949 538 949 q 287 890 363 949 q 169 721 211 832 q 126 456 126 610 q 167 208 126 311 q 281 52 208 106 q 449 -1 354 -1 z "},"R":{"ha":783,"x_min":178,"x_max":713,"o":"m 433 460 l 189 460 l 189 0 l 178 0 l 178 944 l 374 944 q 604 882 533 944 q 675 701 675 819 q 610 528 675 586 q 446 461 544 469 l 713 0 l 697 0 l 433 460 m 417 471 q 594 528 524 471 q 664 701 664 585 q 596 875 664 815 q 372 935 528 935 l 189 935 l 189 471 l 417 471 z "},"Ŕ":{"ha":783,"x_min":178,"x_max":713,"o":"m 433 460 l 189 460 l 189 0 l 178 0 l 178 944 l 374 944 q 604 882 533 944 q 675 701 675 819 q 610 528 675 586 q 446 461 544 469 l 713 0 l 697 0 l 433 460 m 417 471 q 594 528 524 471 q 664 701 664 585 q 596 875 664 815 q 372 935 528 935 l 189 935 l 189 471 l 417 471 m 511 1165 l 275 1068 l 271 1076 l 504 1178 l 511 1165 z "},"Ř":{"ha":783,"x_min":178,"x_max":713,"o":"m 433 460 l 189 460 l 189 0 l 178 0 l 178 944 l 374 944 q 604 882 533 944 q 675 701 675 819 q 610 528 675 586 q 446 461 544 469 l 713 0 l 697 0 l 433 460 m 417 471 q 594 528 524 471 q 664 701 664 585 q 596 875 664 815 q 372 935 528 935 l 189 935 l 189 471 l 417 471 m 551 1175 l 396 1061 l 389 1061 l 235 1175 l 242 1181 l 392 1072 l 544 1181 l 551 1175 z "},"Ŗ":{"ha":783,"x_min":178,"x_max":713,"o":"m 433 460 l 189 460 l 189 0 l 178 0 l 178 944 l 374 944 q 604 882 533 944 q 675 701 675 819 q 610 528 675 586 q 446 461 544 469 l 713 0 l 697 0 l 433 460 m 417 471 q 594 528 524 471 q 664 701 664 585 q 596 875 664 815 q 372 935 528 935 l 189 935 l 189 471 l 417 471 m 428 -144 q 443 -158 443 -144 q 436 -185 443 -165 l 397 -340 l 390 -340 l 425 -174 q 413 -158 413 -169 q 417 -149 413 -153 q 428 -144 421 -144 z "},"Ȑ":{"ha":783,"x_min":178,"x_max":713,"o":"m 433 460 l 189 460 l 189 0 l 178 0 l 178 944 l 374 944 q 604 882 533 944 q 675 701 675 819 q 610 528 675 586 q 446 461 544 469 l 713 0 l 697 0 l 433 460 m 417 471 q 594 528 524 471 q 664 701 664 585 q 596 875 664 815 q 372 935 528 935 l 189 935 l 189 471 l 417 471 m 333 1146 l 324 1140 l 228 1314 l 239 1319 l 333 1146 m 474 1149 l 465 1144 l 376 1310 l 388 1315 l 474 1149 z "},"Ṛ":{"ha":783,"x_min":178,"x_max":713,"o":"m 433 460 l 189 460 l 189 0 l 178 0 l 178 944 l 374 944 q 604 882 533 944 q 675 701 675 819 q 610 528 675 586 q 446 461 544 469 l 713 0 l 697 0 l 433 460 m 417 471 q 594 528 524 471 q 664 701 664 585 q 596 875 664 815 q 372 935 528 935 l 189 935 l 189 471 l 417 471 m 419 -174 q 410 -169 414 -174 q 406 -160 406 -165 q 410 -150 406 -154 q 419 -146 414 -146 q 431 -150 426 -146 q 435 -160 435 -154 q 431 -169 435 -165 q 419 -174 426 -174 z "},"Ȓ":{"ha":783,"x_min":178,"x_max":713,"o":"m 433 460 l 189 460 l 189 0 l 178 0 l 178 944 l 374 944 q 604 882 533 944 q 675 701 675 819 q 610 528 675 586 q 446 461 544 469 l 713 0 l 697 0 l 433 460 m 417 471 q 594 528 524 471 q 664 701 664 585 q 596 875 664 815 q 372 935 528 935 l 189 935 l 189 471 l 417 471 m 393 1225 q 484 1197 449 1225 q 531 1122 519 1168 l 522 1119 q 475 1190 508 1165 q 393 1215 442 1215 q 310 1190 343 1215 q 263 1119 276 1165 l 254 1122 q 302 1197 267 1168 q 393 1225 338 1225 z "},"Ɍ":{"ha":776,"x_min":40,"x_max":704,"o":"m 689 0 l 425 460 l 181 460 l 181 0 l 169 0 l 169 460 l 40 460 l 40 471 l 169 471 l 169 944 l 365 944 q 597 882 525 944 q 668 701 668 819 q 602 528 668 588 q 438 461 536 469 l 704 0 l 689 0 m 410 471 q 585 528 515 471 q 656 701 656 585 q 588 875 656 815 q 364 935 521 935 l 181 935 l 181 471 l 410 471 z "},"Ɽ":{"ha":783,"x_min":178,"x_max":713,"o":"m 189 -129 q 219 -226 189 -193 q 300 -258 249 -258 q 361 -249 336 -258 q 408 -221 386 -239 l 414 -229 q 364 -258 390 -247 q 300 -269 338 -269 q 211 -233 244 -269 q 178 -131 178 -197 l 178 944 l 374 944 q 604 882 533 944 q 675 701 675 819 q 610 528 675 586 q 446 461 544 469 l 713 0 l 697 0 l 433 460 l 189 460 l 189 -129 m 189 935 l 189 471 l 417 471 q 594 528 524 471 q 664 701 664 585 q 596 875 664 815 q 372 935 528 935 l 189 935 z "},"S":{"ha":749,"x_min":86,"x_max":642,"o":"m 367 958 q 503 935 447 958 q 610 868 560 913 l 603 858 q 499 926 554 903 q 367 949 444 949 q 243 922 297 949 q 160 849 189 896 q 131 746 131 803 q 153 646 131 685 q 228 577 176 607 q 376 517 279 547 q 530 454 474 486 q 614 373 586 422 q 642 249 642 324 q 606 113 642 172 q 507 21 571 54 q 360 -12 443 -12 q 207 15 271 -12 q 86 97 143 43 l 93 106 q 210 26 149 53 q 360 -1 271 -1 q 501 30 439 -1 q 597 118 563 61 q 631 249 631 175 q 603 367 631 321 q 522 445 576 414 q 372 507 468 476 q 220 569 274 539 q 143 641 167 600 q 119 746 119 682 q 151 854 119 806 q 238 931 182 903 q 367 958 294 958 z "},"Ś":{"ha":749,"x_min":86,"x_max":642,"o":"m 367 958 q 503 935 447 958 q 610 868 560 913 l 603 858 q 499 926 554 903 q 367 949 444 949 q 243 922 297 949 q 160 849 189 896 q 131 746 131 803 q 153 646 131 685 q 228 577 176 607 q 376 517 279 547 q 530 454 474 486 q 614 373 586 422 q 642 249 642 324 q 606 113 642 172 q 507 21 571 54 q 360 -12 443 -12 q 207 15 271 -12 q 86 97 143 43 l 93 106 q 210 26 149 53 q 360 -1 271 -1 q 501 30 439 -1 q 597 118 563 61 q 631 249 631 175 q 603 367 631 321 q 522 445 576 414 q 372 507 468 476 q 220 569 274 539 q 143 641 167 600 q 119 746 119 682 q 151 854 119 806 q 238 931 182 903 q 367 958 294 958 m 496 1165 l 260 1068 l 256 1076 l 489 1178 l 496 1165 z "},"Ꞌ":{"ha":256,"x_min":122,"x_max":135,"o":"m 122 944 l 135 944 l 133 507 l 124 507 l 122 944 z "},"Š":{"ha":749,"x_min":86,"x_max":642,"o":"m 367 958 q 503 935 447 958 q 610 868 560 913 l 603 858 q 499 926 554 903 q 367 949 444 949 q 243 922 297 949 q 160 849 189 896 q 131 746 131 803 q 153 646 131 685 q 228 577 176 607 q 376 517 279 547 q 530 454 474 486 q 614 373 586 422 q 642 249 642 324 q 606 113 642 172 q 507 21 571 54 q 360 -12 443 -12 q 207 15 271 -12 q 86 97 143 43 l 93 106 q 210 26 149 53 q 360 -1 271 -1 q 501 30 439 -1 q 597 118 563 61 q 631 249 631 175 q 603 367 631 321 q 522 445 576 414 q 372 507 468 476 q 220 569 274 539 q 143 641 167 600 q 119 746 119 682 q 151 854 119 806 q 238 931 182 903 q 367 958 294 958 m 536 1175 l 381 1061 l 374 1061 l 219 1175 l 226 1181 l 376 1072 l 529 1181 l 536 1175 z "},"Ş":{"ha":749,"x_min":86,"x_max":642,"o":"m 642 249 q 607 113 642 172 q 508 21 572 54 q 363 -12 444 -12 l 358 -111 q 483 -196 483 -114 q 454 -262 483 -240 q 382 -285 425 -285 q 294 -261 332 -285 l 300 -253 q 382 -275 336 -275 q 446 -256 419 -275 q 472 -196 472 -236 q 442 -140 472 -158 q 347 -119 413 -121 l 354 -12 q 204 17 267 -11 q 86 97 142 44 l 93 106 q 210 26 149 53 q 360 -1 271 -1 q 501 30 439 -1 q 597 118 563 61 q 631 249 631 175 q 603 367 631 321 q 522 445 576 414 q 372 507 468 476 q 220 569 274 539 q 143 641 167 600 q 119 746 119 682 q 151 854 119 806 q 238 931 182 903 q 367 958 294 958 q 503 935 447 958 q 610 868 560 913 l 603 858 q 499 926 554 903 q 367 949 444 949 q 243 922 297 949 q 160 849 189 896 q 131 746 131 803 q 153 646 131 685 q 228 577 176 607 q 376 517 279 547 q 530 454 474 486 q 614 373 586 422 q 642 249 642 324 z "},"Ŝ":{"ha":749,"x_min":86,"x_max":642,"o":"m 367 958 q 503 935 447 958 q 610 868 560 913 l 603 858 q 499 926 554 903 q 367 949 444 949 q 243 922 297 949 q 160 849 189 896 q 131 746 131 803 q 153 646 131 685 q 228 577 176 607 q 376 517 279 547 q 530 454 474 486 q 614 373 586 422 q 642 249 642 324 q 606 113 642 172 q 507 21 571 54 q 360 -12 443 -12 q 207 15 271 -12 q 86 97 143 43 l 93 106 q 210 26 149 53 q 360 -1 271 -1 q 501 30 439 -1 q 597 118 563 61 q 631 249 631 175 q 603 367 631 321 q 522 445 576 414 q 372 507 468 476 q 220 569 274 539 q 143 641 167 600 q 119 746 119 682 q 151 854 119 806 q 238 931 182 903 q 367 958 294 958 m 376 1176 l 226 1068 l 219 1075 l 374 1189 l 381 1189 l 536 1075 l 529 1068 l 376 1176 z "},"Ș":{"ha":749,"x_min":86,"x_max":642,"o":"m 367 958 q 503 935 447 958 q 610 868 560 913 l 603 858 q 499 926 554 903 q 367 949 444 949 q 243 922 297 949 q 160 849 189 896 q 131 746 131 803 q 153 646 131 685 q 228 577 176 607 q 376 517 279 547 q 530 454 474 486 q 614 373 586 422 q 642 249 642 324 q 606 113 642 172 q 507 21 571 54 q 360 -12 443 -12 q 207 15 271 -12 q 86 97 143 43 l 93 106 q 210 26 149 53 q 360 -1 271 -1 q 501 30 439 -1 q 597 118 563 61 q 631 249 631 175 q 603 367 631 321 q 522 445 576 414 q 372 507 468 476 q 220 569 274 539 q 143 641 167 600 q 119 746 119 682 q 151 854 119 806 q 238 931 182 903 q 367 958 294 958 m 372 -144 q 388 -158 388 -144 q 381 -185 388 -165 l 342 -340 l 335 -340 l 369 -174 q 357 -158 357 -169 q 361 -149 357 -153 q 372 -144 365 -144 z "},"Ṡ":{"ha":749,"x_min":86,"x_max":642,"o":"m 367 958 q 503 935 447 958 q 610 868 560 913 l 603 858 q 499 926 554 903 q 367 949 444 949 q 243 922 297 949 q 160 849 189 896 q 131 746 131 803 q 153 646 131 685 q 228 577 176 607 q 376 517 279 547 q 530 454 474 486 q 614 373 586 422 q 642 249 642 324 q 606 113 642 172 q 507 21 571 54 q 360 -12 443 -12 q 207 15 271 -12 q 86 97 143 43 l 93 106 q 210 26 149 53 q 360 -1 271 -1 q 501 30 439 -1 q 597 118 563 61 q 631 249 631 175 q 603 367 631 321 q 522 445 576 414 q 372 507 468 476 q 220 569 274 539 q 143 641 167 600 q 119 746 119 682 q 151 854 119 806 q 238 931 182 903 q 367 958 294 958 m 378 1163 q 389 1158 385 1163 q 393 1149 393 1154 q 389 1139 393 1143 q 378 1135 385 1135 q 368 1139 372 1135 q 364 1149 364 1143 q 368 1158 364 1154 q 378 1163 372 1163 z "},"Ṣ":{"ha":749,"x_min":86,"x_max":642,"o":"m 367 958 q 503 935 447 958 q 610 868 560 913 l 603 858 q 499 926 554 903 q 367 949 444 949 q 243 922 297 949 q 160 849 189 896 q 131 746 131 803 q 153 646 131 685 q 228 577 176 607 q 376 517 279 547 q 530 454 474 486 q 614 373 586 422 q 642 249 642 324 q 606 113 642 172 q 507 21 571 54 q 360 -12 443 -12 q 207 15 271 -12 q 86 97 143 43 l 93 106 q 210 26 149 53 q 360 -1 271 -1 q 501 30 439 -1 q 597 118 563 61 q 631 249 631 175 q 603 367 631 321 q 522 445 576 414 q 372 507 468 476 q 220 569 274 539 q 143 641 167 600 q 119 746 119 682 q 151 854 119 806 q 238 931 182 903 q 367 958 294 958 m 363 -174 q 353 -169 357 -174 q 349 -160 349 -165 q 353 -150 349 -154 q 363 -146 357 -146 q 374 -150 369 -146 q 378 -160 378 -154 q 374 -169 378 -165 q 363 -174 369 -174 z "},"ẞ":{"ha":874,"x_min":178,"x_max":785,"o":"m 443 958 q 593 935 524 958 q 732 867 663 913 l 732 857 l 433 529 q 700 442 615 510 q 785 246 785 374 q 719 56 785 126 q 535 -14 653 -14 q 450 -6 485 -14 q 382 18 415 3 l 386 28 q 452 5 418 13 q 535 -3 486 -3 q 710 64 647 -3 q 772 246 772 131 q 688 435 772 369 q 421 521 604 501 l 421 531 l 719 861 q 585 926 651 904 q 443 949 519 949 q 255 882 321 949 q 189 688 189 815 l 189 0 l 178 0 l 178 689 q 247 888 178 818 q 443 958 317 958 z "},"Ə":{"ha":896,"x_min":101,"x_max":782,"o":"m 442 958 q 782 467 782 958 q 690 109 782 231 q 443 -12 599 -12 q 262 42 339 -12 q 143 199 185 96 q 101 443 101 301 q 103 490 101 472 l 769 490 q 442 949 760 949 q 301 922 364 949 q 174 840 238 896 l 165 849 q 296 931 231 904 q 442 958 361 958 m 443 -1 q 683 119 594 -1 q 769 479 771 240 l 114 479 q 149 218 110 326 q 265 54 189 110 q 443 -1 340 -1 z "},"T":{"ha":657,"x_min":26,"x_max":632,"o":"m 631 933 l 335 933 l 335 0 l 322 0 l 322 933 l 26 933 l 26 944 l 632 944 l 631 933 z "},"Ŧ":{"ha":640,"x_min":26,"x_max":632,"o":"m 335 933 l 335 524 l 506 524 l 506 514 l 335 514 l 335 0 l 322 0 l 322 514 l 151 514 l 151 524 l 322 524 l 322 933 l 26 933 l 26 944 l 632 944 l 631 933 l 335 933 z "},"Ť":{"ha":657,"x_min":26,"x_max":632,"o":"m 631 933 l 335 933 l 335 0 l 322 0 l 322 933 l 26 933 l 26 944 l 632 944 l 631 933 m 488 1175 l 332 1061 l 325 1061 l 171 1175 l 178 1181 l 328 1072 l 481 1181 l 488 1175 z "},"Ţ":{"ha":657,"x_min":26,"x_max":632,"o":"m 335 933 l 335 4 l 329 -111 q 454 -196 454 -114 q 425 -262 454 -240 q 353 -285 396 -285 q 265 -261 303 -285 l 271 -253 q 353 -275 307 -275 q 417 -256 390 -275 q 443 -196 443 -236 q 413 -139 443 -158 q 318 -119 382 -119 l 325 0 l 322 0 l 322 933 l 26 933 l 26 944 l 632 944 l 631 933 l 335 933 z "},"Ṱ":{"ha":657,"x_min":26,"x_max":632,"o":"m 631 933 l 335 933 l 335 0 l 322 0 l 322 933 l 26 933 l 26 944 l 632 944 l 631 933 m 171 -235 l 326 -114 l 333 -114 l 488 -235 l 481 -242 l 331 -126 l 178 -242 l 171 -235 z "},"Ț":{"ha":657,"x_min":26,"x_max":632,"o":"m 631 933 l 335 933 l 335 0 l 322 0 l 322 933 l 26 933 l 26 944 l 632 944 l 631 933 m 338 -144 q 353 -158 353 -144 q 346 -185 353 -165 l 307 -340 l 300 -340 l 335 -174 q 322 -158 322 -169 q 326 -149 322 -153 q 338 -144 331 -144 z "},"Ⱦ":{"ha":657,"x_min":26,"x_max":632,"o":"m 463 933 l 335 488 l 335 0 l 322 0 l 322 449 l 169 -83 l 161 -82 l 322 481 l 322 933 l 26 933 l 26 944 l 457 944 l 476 1015 l 485 1013 l 465 944 l 632 944 l 631 933 l 463 933 m 453 933 l 335 933 l 335 521 l 453 933 z "},"Ṫ":{"ha":657,"x_min":26,"x_max":632,"o":"m 631 933 l 335 933 l 335 0 l 322 0 l 322 933 l 26 933 l 26 944 l 632 944 l 631 933 m 328 1163 q 339 1158 335 1163 q 343 1149 343 1154 q 339 1139 343 1143 q 328 1135 335 1135 q 318 1139 322 1135 q 314 1149 314 1143 q 318 1158 314 1154 q 328 1163 322 1163 z "},"Ṭ":{"ha":657,"x_min":26,"x_max":632,"o":"m 631 933 l 335 933 l 335 0 l 322 0 l 322 933 l 26 933 l 26 944 l 632 944 l 631 933 m 328 -174 q 318 -169 322 -174 q 314 -160 314 -165 q 318 -150 314 -154 q 328 -146 322 -146 q 339 -150 335 -146 q 343 -160 343 -154 q 339 -169 343 -165 q 328 -174 335 -174 z "},"Ƭ":{"ha":685,"x_min":39,"x_max":660,"o":"m 658 933 l 363 933 l 363 0 l 350 0 l 350 933 l 179 933 q 83 904 115 933 q 50 822 50 875 q 59 766 50 789 q 88 715 68 743 l 79 710 q 49 763 60 739 q 39 822 39 788 q 75 913 39 881 q 182 944 111 944 l 660 944 l 658 933 z "},"Ṯ":{"ha":657,"x_min":26,"x_max":632,"o":"m 631 933 l 335 933 l 335 0 l 322 0 l 322 933 l 26 933 l 26 944 l 632 944 l 631 933 m 193 -174 l 193 -162 l 464 -162 l 464 -174 l 193 -174 z "},"Ƽ":{"ha":667,"x_min":67,"x_max":574,"o":"m 542 935 l 136 935 l 136 522 q 221 569 176 553 q 324 585 265 585 q 508 510 443 585 q 574 303 574 436 q 503 74 574 160 q 306 -12 433 -12 q 170 15 231 -12 q 67 90 110 42 l 76 97 q 175 24 117 50 q 306 -3 233 -3 q 496 81 429 -3 q 563 303 563 164 q 500 503 563 432 q 324 574 438 574 q 222 558 265 574 q 135 511 179 543 l 125 511 l 125 944 l 544 944 l 542 935 z "},"Ƅ":{"ha":763,"x_min":150,"x_max":685,"o":"m 383 558 q 607 491 529 558 q 685 293 685 424 q 606 74 685 149 q 388 0 526 0 l 178 0 l 178 856 l 150 869 q 179 944 172 903 l 189 944 l 189 558 l 383 558 m 390 11 q 599 82 525 11 q 672 293 672 153 q 598 483 672 419 q 385 547 524 547 l 189 547 l 189 11 l 390 11 z "},"Ƨ":{"ha":746,"x_min":107,"x_max":660,"o":"m 393 958 q 565 902 501 958 q 629 756 629 846 q 606 647 629 690 q 528 572 582 604 q 376 507 474 539 q 227 444 282 476 q 145 363 172 411 q 118 239 118 314 q 151 113 118 168 q 243 28 185 58 q 374 -1 301 -1 q 534 25 471 -1 q 653 106 597 51 l 660 97 q 538 15 603 43 q 374 -12 472 -12 q 237 19 297 -12 q 142 108 176 51 q 107 239 107 165 q 135 367 107 315 q 219 452 163 418 q 372 517 276 486 q 520 579 468 549 q 595 651 572 610 q 618 756 618 693 q 558 895 618 842 q 393 949 497 949 q 258 926 315 949 q 144 860 201 904 l 138 868 q 255 935 197 913 q 393 958 313 958 z "},"Ʈ":{"ha":657,"x_min":26,"x_max":632,"o":"m 333 0 l 333 -129 q 363 -226 333 -193 q 444 -258 393 -258 q 506 -249 481 -258 q 553 -221 531 -239 l 558 -229 q 508 -258 535 -247 q 444 -269 482 -269 q 356 -233 389 -269 q 322 -131 322 -197 l 322 933 l 26 933 l 26 944 l 632 944 l 631 933 l 335 933 l 335 0 l 333 0 z "},"U":{"ha":883,"x_min":164,"x_max":719,"o":"m 719 286 q 652 68 719 149 q 442 -12 585 -12 q 231 68 297 -12 q 164 286 164 149 l 164 944 l 175 944 l 175 288 q 239 76 175 154 q 442 -1 303 -1 q 644 76 581 -1 q 708 288 708 154 l 708 944 l 719 944 l 719 286 z "},"Ú":{"ha":883,"x_min":164,"x_max":719,"o":"m 719 286 q 652 68 719 149 q 442 -12 585 -12 q 231 68 297 -12 q 164 286 164 149 l 164 944 l 175 944 l 175 288 q 239 76 175 154 q 442 -1 303 -1 q 644 76 581 -1 q 708 288 708 154 l 708 944 l 719 944 l 719 286 m 560 1165 l 324 1068 l 319 1076 l 553 1178 l 560 1165 z "},"Ʉ":{"ha":925,"x_min":108,"x_max":817,"o":"m 817 728 l 740 728 l 740 286 q 673 68 740 149 q 463 -12 606 -12 q 251 68 318 -12 q 185 286 185 149 l 185 728 l 108 728 l 108 738 l 185 738 l 185 944 l 196 944 l 196 738 l 729 738 l 729 944 l 740 944 l 740 738 l 817 738 l 817 728 m 729 728 l 196 728 l 196 288 q 260 76 196 154 q 463 -1 324 -1 q 665 76 601 -1 q 729 288 729 154 l 729 728 z "},"Ŭ":{"ha":883,"x_min":164,"x_max":719,"o":"m 719 286 q 652 68 719 149 q 442 -12 585 -12 q 231 68 297 -12 q 164 286 164 149 l 164 944 l 175 944 l 175 288 q 239 76 175 154 q 442 -1 303 -1 q 644 76 581 -1 q 708 288 708 154 l 708 944 l 719 944 l 719 286 m 442 1074 q 351 1100 388 1074 q 303 1164 315 1126 l 311 1167 q 359 1107 325 1129 q 442 1085 393 1085 q 523 1107 489 1085 q 571 1167 557 1129 l 579 1164 q 532 1100 568 1126 q 442 1074 496 1074 z "},"Ǔ":{"ha":883,"x_min":164,"x_max":719,"o":"m 719 286 q 652 68 719 149 q 442 -12 585 -12 q 231 68 297 -12 q 164 286 164 149 l 164 944 l 175 944 l 175 288 q 239 76 175 154 q 442 -1 303 -1 q 644 76 581 -1 q 708 288 708 154 l 708 944 l 719 944 l 719 286 m 600 1175 l 444 1061 l 438 1061 l 283 1175 l 290 1181 l 440 1072 l 593 1181 l 600 1175 z "},"Û":{"ha":883,"x_min":164,"x_max":719,"o":"m 719 286 q 652 68 719 149 q 442 -12 585 -12 q 231 68 297 -12 q 164 286 164 149 l 164 944 l 175 944 l 175 288 q 239 76 175 154 q 442 -1 303 -1 q 644 76 581 -1 q 708 288 708 154 l 708 944 l 719 944 l 719 286 m 440 1176 l 290 1068 l 283 1075 l 438 1189 l 444 1189 l 600 1075 l 593 1068 l 440 1176 z "},"Ȕ":{"ha":883,"x_min":164,"x_max":719,"o":"m 719 286 q 652 68 719 149 q 442 -12 585 -12 q 231 68 297 -12 q 164 286 164 149 l 164 944 l 175 944 l 175 288 q 239 76 175 154 q 442 -1 303 -1 q 644 76 581 -1 q 708 288 708 154 l 708 944 l 719 944 l 719 286 m 382 1146 l 372 1140 l 276 1314 l 288 1319 l 382 1146 m 522 1149 l 514 1144 l 425 1310 l 436 1315 l 522 1149 z "},"Ü":{"ha":883,"x_min":164,"x_max":719,"o":"m 719 286 q 652 68 719 149 q 442 -12 585 -12 q 231 68 297 -12 q 164 286 164 149 l 164 944 l 175 944 l 175 288 q 239 76 175 154 q 442 -1 303 -1 q 644 76 581 -1 q 708 288 708 154 l 708 944 l 719 944 l 719 286 m 333 1143 q 347 1129 347 1143 q 333 1115 347 1115 q 324 1119 328 1115 q 319 1129 319 1124 q 333 1143 319 1143 m 547 1143 q 561 1129 561 1143 q 547 1115 561 1115 q 538 1119 542 1115 q 533 1129 533 1124 q 547 1143 533 1143 z "},"Ǘ":{"ha":883,"x_min":164,"x_max":719,"o":"m 549 1235 l 419 1083 l 413 1089 l 539 1243 l 549 1235 m 333 1058 q 347 1044 347 1058 q 333 1031 347 1031 q 324 1035 328 1031 q 319 1044 319 1039 q 324 1054 319 1050 q 333 1058 328 1058 m 547 1058 q 561 1044 561 1058 q 547 1031 561 1031 q 538 1035 542 1031 q 533 1044 533 1039 q 538 1054 533 1050 q 547 1058 542 1058 m 719 286 q 652 68 719 149 q 442 -12 585 -12 q 231 68 297 -12 q 164 286 164 149 l 164 944 l 175 944 l 175 288 q 239 76 175 154 q 442 -1 303 -1 q 644 76 581 -1 q 708 288 708 154 l 708 944 l 719 944 l 719 286 z "},"Ǚ":{"ha":883,"x_min":164,"x_max":719,"o":"m 599 1190 l 443 1076 l 436 1076 l 282 1190 l 289 1196 l 439 1088 l 592 1196 l 599 1190 m 333 1058 q 344 1054 340 1058 q 349 1044 349 1050 q 344 1035 349 1039 q 333 1031 340 1031 q 324 1035 328 1031 q 319 1044 319 1039 q 324 1054 319 1050 q 333 1058 328 1058 m 547 1058 q 561 1044 561 1058 q 547 1031 561 1031 q 538 1035 542 1031 q 533 1044 533 1039 q 538 1054 533 1050 q 547 1058 542 1058 m 719 286 q 652 68 719 149 q 442 -12 585 -12 q 231 68 297 -12 q 164 286 164 149 l 164 944 l 175 944 l 175 288 q 239 76 175 154 q 442 -1 303 -1 q 644 76 581 -1 q 708 288 708 154 l 708 944 l 719 944 l 719 286 z "},"Ǜ":{"ha":883,"x_min":164,"x_max":719,"o":"m 472 1089 l 465 1083 l 336 1235 l 344 1243 l 472 1089 m 333 1058 q 347 1044 347 1058 q 333 1031 347 1031 q 324 1035 328 1031 q 319 1044 319 1039 q 324 1054 319 1050 q 333 1058 328 1058 m 547 1058 q 561 1044 561 1058 q 547 1031 561 1031 q 538 1035 542 1031 q 533 1044 533 1039 q 538 1054 533 1050 q 547 1058 542 1058 m 719 286 q 652 68 719 149 q 442 -12 585 -12 q 231 68 297 -12 q 164 286 164 149 l 164 944 l 175 944 l 175 288 q 239 76 175 154 q 442 -1 303 -1 q 644 76 581 -1 q 708 288 708 154 l 708 944 l 719 944 l 719 286 z "},"Ǖ":{"ha":883,"x_min":164,"x_max":719,"o":"m 308 1164 l 308 1175 l 579 1175 l 579 1164 l 308 1164 m 333 1058 q 347 1044 347 1058 q 333 1031 347 1031 q 324 1035 328 1031 q 319 1044 319 1039 q 333 1058 319 1058 m 547 1058 q 561 1044 561 1058 q 547 1031 561 1031 q 538 1035 542 1031 q 533 1044 533 1039 q 547 1058 533 1058 m 719 286 q 652 68 719 149 q 442 -12 585 -12 q 231 68 297 -12 q 164 286 164 149 l 164 944 l 175 944 l 175 288 q 239 76 175 154 q 442 -1 303 -1 q 644 76 581 -1 q 708 288 708 154 l 708 944 l 719 944 l 719 286 z "},"Ụ":{"ha":883,"x_min":164,"x_max":719,"o":"m 719 286 q 652 68 719 149 q 442 -12 585 -12 q 231 68 297 -12 q 164 286 164 149 l 164 944 l 175 944 l 175 288 q 239 76 175 154 q 442 -1 303 -1 q 644 76 581 -1 q 708 288 708 154 l 708 944 l 719 944 l 719 286 m 442 -174 q 432 -169 436 -174 q 428 -160 428 -165 q 432 -150 428 -154 q 442 -146 436 -146 q 453 -150 449 -146 q 457 -160 457 -154 q 453 -169 457 -165 q 442 -174 449 -174 z "},"Ù":{"ha":883,"x_min":164,"x_max":719,"o":"m 719 286 q 652 68 719 149 q 442 -12 585 -12 q 231 68 297 -12 q 164 286 164 149 l 164 944 l 175 944 l 175 288 q 239 76 175 154 q 442 -1 303 -1 q 644 76 581 -1 q 708 288 708 154 l 708 944 l 719 944 l 719 286 m 569 1076 l 565 1068 l 329 1165 l 335 1178 l 569 1076 z "},"Ủ":{"ha":883,"x_min":164,"x_max":719,"o":"m 719 286 q 652 68 719 149 q 442 -12 585 -12 q 231 68 297 -12 q 164 286 164 149 l 164 944 l 175 944 l 175 288 q 239 76 175 154 q 442 -1 303 -1 q 644 76 581 -1 q 708 288 708 154 l 708 944 l 719 944 l 719 286 m 432 1144 q 500 1166 475 1149 q 525 1222 525 1183 q 503 1274 525 1256 q 446 1293 482 1293 q 367 1269 406 1293 l 363 1279 q 447 1303 404 1303 q 513 1281 488 1303 q 538 1222 538 1260 q 443 1138 538 1144 l 443 1082 l 432 1082 l 432 1144 z "},"Ư":{"ha":883,"x_min":164,"x_max":814,"o":"m 719 286 q 652 68 719 149 q 442 -12 585 -12 q 231 68 297 -12 q 164 286 164 149 l 164 944 l 175 944 l 175 288 q 239 76 175 154 q 442 -1 303 -1 q 644 76 581 -1 q 708 288 708 154 l 708 944 l 719 944 l 719 286 m 715 869 q 781 894 760 874 q 803 954 803 914 q 783 1054 803 1006 l 793 1057 q 814 954 814 1006 q 719 863 814 867 l 715 869 z "},"Ứ":{"ha":883,"x_min":164,"x_max":814,"o":"m 719 286 q 652 68 719 149 q 442 -12 585 -12 q 231 68 297 -12 q 164 286 164 149 l 164 944 l 175 944 l 175 288 q 239 76 175 154 q 442 -1 303 -1 q 644 76 581 -1 q 708 288 708 154 l 708 944 l 719 944 l 719 286 m 715 869 q 781 894 760 874 q 803 954 803 914 q 783 1054 803 1006 l 793 1057 q 814 954 814 1006 q 719 863 814 867 l 715 869 m 560 1165 l 324 1068 l 319 1076 l 553 1178 l 560 1165 z "},"Ự":{"ha":883,"x_min":164,"x_max":814,"o":"m 719 286 q 652 68 719 149 q 442 -12 585 -12 q 231 68 297 -12 q 164 286 164 149 l 164 944 l 175 944 l 175 288 q 239 76 175 154 q 442 -1 303 -1 q 644 76 581 -1 q 708 288 708 154 l 708 944 l 719 944 l 719 286 m 715 869 q 781 894 760 874 q 803 954 803 914 q 783 1054 803 1006 l 793 1057 q 814 954 814 1006 q 719 863 814 867 l 715 869 m 442 -174 q 432 -169 436 -174 q 428 -160 428 -165 q 432 -150 428 -154 q 442 -146 436 -146 q 453 -150 449 -146 q 457 -160 457 -154 q 453 -169 457 -165 q 442 -174 449 -174 z "},"Ừ":{"ha":883,"x_min":164,"x_max":814,"o":"m 719 286 q 652 68 719 149 q 442 -12 585 -12 q 231 68 297 -12 q 164 286 164 149 l 164 944 l 175 944 l 175 288 q 239 76 175 154 q 442 -1 303 -1 q 644 76 581 -1 q 708 288 708 154 l 708 944 l 719 944 l 719 286 m 715 869 q 781 894 760 874 q 803 954 803 914 q 783 1054 803 1006 l 793 1057 q 814 954 814 1006 q 719 863 814 867 l 715 869 m 569 1076 l 565 1068 l 329 1165 l 335 1178 l 569 1076 z "},"Ử":{"ha":883,"x_min":164,"x_max":814,"o":"m 719 286 q 652 68 719 149 q 442 -12 585 -12 q 231 68 297 -12 q 164 286 164 149 l 164 944 l 175 944 l 175 288 q 239 76 175 154 q 442 -1 303 -1 q 644 76 581 -1 q 708 288 708 154 l 708 944 l 719 944 l 719 286 m 715 869 q 781 894 760 874 q 803 954 803 914 q 783 1054 803 1006 l 793 1057 q 814 954 814 1006 q 719 863 814 867 l 715 869 m 432 1144 q 500 1166 475 1149 q 525 1222 525 1183 q 503 1274 525 1256 q 446 1293 482 1293 q 367 1269 406 1293 l 363 1279 q 447 1303 404 1303 q 513 1281 488 1303 q 538 1222 538 1260 q 443 1138 538 1144 l 443 1082 l 432 1082 l 432 1144 z "},"Ữ":{"ha":883,"x_min":164,"x_max":814,"o":"m 719 286 q 652 68 719 149 q 442 -12 585 -12 q 231 68 297 -12 q 164 286 164 149 l 164 944 l 175 944 l 175 288 q 239 76 175 154 q 442 -1 303 -1 q 644 76 581 -1 q 708 288 708 154 l 708 944 l 719 944 l 719 286 m 715 869 q 781 894 760 874 q 803 954 803 914 q 783 1054 803 1006 l 793 1057 q 814 954 814 1006 q 719 863 814 867 l 715 869 m 519 1125 q 480 1133 499 1125 q 433 1157 461 1140 q 392 1178 406 1172 q 361 1185 378 1185 q 317 1174 336 1185 q 276 1136 299 1163 l 268 1142 q 314 1183 293 1171 q 361 1196 335 1196 q 397 1188 379 1196 q 439 1165 414 1181 q 481 1142 463 1150 q 519 1135 500 1135 q 566 1147 547 1135 q 607 1188 585 1158 l 614 1183 q 570 1138 592 1151 q 519 1125 549 1125 z "},"Ű":{"ha":883,"x_min":164,"x_max":719,"o":"m 719 286 q 652 68 719 149 q 442 -12 585 -12 q 231 68 297 -12 q 164 286 164 149 l 164 944 l 175 944 l 175 288 q 239 76 175 154 q 442 -1 303 -1 q 644 76 581 -1 q 708 288 708 154 l 708 944 l 719 944 l 719 286 m 606 1263 l 510 1089 l 501 1094 l 594 1268 l 606 1263 m 457 1258 l 368 1093 l 360 1097 l 446 1264 l 457 1258 z "},"Ȗ":{"ha":883,"x_min":164,"x_max":719,"o":"m 719 286 q 652 68 719 149 q 442 -12 585 -12 q 231 68 297 -12 q 164 286 164 149 l 164 944 l 175 944 l 175 288 q 239 76 175 154 q 442 -1 303 -1 q 644 76 581 -1 q 708 288 708 154 l 708 944 l 719 944 l 719 286 m 442 1225 q 533 1197 497 1225 q 579 1122 568 1168 l 571 1119 q 524 1190 557 1165 q 442 1215 490 1215 q 358 1190 392 1215 q 311 1119 325 1165 l 303 1122 q 351 1197 315 1168 q 442 1225 386 1225 z "},"Ū":{"ha":883,"x_min":164,"x_max":719,"o":"m 719 286 q 652 68 719 149 q 442 -12 585 -12 q 231 68 297 -12 q 164 286 164 149 l 164 944 l 175 944 l 175 288 q 239 76 175 154 q 442 -1 303 -1 q 644 76 581 -1 q 708 288 708 154 l 708 944 l 719 944 l 719 286 m 307 1131 l 307 1142 l 578 1142 l 578 1131 l 307 1131 z "},"Ų":{"ha":883,"x_min":164,"x_max":719,"o":"m 719 944 l 719 286 q 675 99 719 174 q 536 -1 631 24 q 408 -72 458 -32 q 357 -167 357 -111 q 385 -237 357 -212 q 460 -262 413 -262 q 533 -251 494 -262 l 533 -262 q 460 -274 493 -274 q 376 -246 407 -274 q 346 -167 346 -218 q 503 -8 346 -74 q 442 -12 474 -12 q 231 68 297 -12 q 164 286 164 149 l 164 944 l 175 944 l 175 288 q 239 76 175 154 q 442 -1 303 -1 q 644 76 581 -1 q 708 288 708 154 l 708 944 l 719 944 z "},"Ʊ":{"ha":956,"x_min":115,"x_max":840,"o":"m 478 -14 q 286 43 368 -14 q 160 203 204 100 q 115 440 115 306 q 178 753 115 632 q 338 935 240 874 l 153 935 l 153 944 l 354 944 l 354 933 q 191 752 256 874 q 126 440 126 631 q 169 208 126 308 q 292 52 213 107 q 478 -3 372 -3 q 664 52 585 -3 q 785 208 743 107 q 828 442 828 308 q 763 753 828 633 q 601 933 699 874 l 601 944 l 803 944 l 803 935 l 618 935 q 777 754 714 874 q 840 442 840 635 q 796 203 840 306 q 669 43 751 100 q 478 -14 588 -14 z "},"Ů":{"ha":883,"x_min":164,"x_max":719,"o":"m 719 286 q 652 68 719 149 q 442 -12 585 -12 q 231 68 297 -12 q 164 286 164 149 l 164 944 l 175 944 l 175 288 q 239 76 175 154 q 442 -1 303 -1 q 644 76 581 -1 q 708 288 708 154 l 708 944 l 719 944 l 719 286 m 442 1269 q 511 1244 486 1269 q 536 1175 536 1218 q 510 1106 536 1132 q 442 1081 485 1081 q 372 1106 397 1081 q 347 1174 347 1132 q 373 1243 347 1217 q 442 1269 399 1269 m 442 1260 q 381 1236 403 1260 q 358 1174 358 1213 q 380 1113 358 1135 q 442 1090 401 1090 q 503 1114 481 1090 q 525 1175 525 1138 q 503 1237 525 1214 q 442 1260 482 1260 z "},"Ũ":{"ha":883,"x_min":164,"x_max":719,"o":"m 719 286 q 652 68 719 149 q 442 -12 585 -12 q 231 68 297 -12 q 164 286 164 149 l 164 944 l 175 944 l 175 288 q 239 76 175 154 q 442 -1 303 -1 q 644 76 581 -1 q 708 288 708 154 l 708 944 l 719 944 l 719 286 m 519 1125 q 480 1133 499 1125 q 433 1157 461 1140 q 392 1178 406 1172 q 361 1185 378 1185 q 317 1174 336 1185 q 276 1136 299 1163 l 268 1142 q 314 1183 293 1171 q 361 1196 335 1196 q 397 1188 379 1196 q 439 1165 414 1181 q 481 1142 463 1150 q 519 1135 500 1135 q 566 1147 547 1135 q 607 1188 585 1158 l 614 1183 q 570 1138 592 1151 q 519 1125 549 1125 z "},"Ṹ":{"ha":883,"x_min":164,"x_max":719,"o":"m 560 1289 l 324 1192 l 319 1200 l 553 1301 l 560 1289 m 522 1054 q 483 1062 501 1054 q 436 1086 464 1069 q 394 1108 408 1101 q 364 1114 381 1114 q 320 1103 339 1114 q 279 1065 301 1092 l 271 1071 q 317 1113 296 1100 q 364 1125 338 1125 q 399 1117 382 1125 q 442 1094 417 1110 q 484 1072 465 1079 q 522 1064 503 1064 q 569 1076 550 1064 q 610 1117 588 1088 l 617 1113 q 573 1067 594 1081 q 522 1054 551 1054 m 719 286 q 652 68 719 149 q 442 -12 585 -12 q 231 68 297 -12 q 164 286 164 149 l 164 944 l 175 944 l 175 288 q 239 76 175 154 q 442 -1 303 -1 q 644 76 581 -1 q 708 288 708 154 l 708 944 l 719 944 l 719 286 z "},"V":{"ha":731,"x_min":46,"x_max":685,"o":"m 374 0 l 360 0 l 46 944 l 58 944 l 367 11 l 674 944 l 685 944 l 374 0 z "},"Ʋ":{"ha":869,"x_min":164,"x_max":719,"o":"m 625 958 q 719 840 719 958 l 719 397 q 637 90 719 192 q 411 -12 554 -12 q 228 58 293 -12 q 164 251 164 128 l 164 944 l 175 944 l 175 253 q 237 65 175 132 q 411 -1 299 -1 q 629 97 550 -1 q 708 399 708 196 l 708 840 q 689 922 708 894 q 625 949 669 949 q 560 933 590 949 l 556 942 q 625 958 585 958 z "},"Ʌ":{"ha":772,"x_min":46,"x_max":728,"o":"m 728 0 l 715 0 l 385 936 l 57 0 l 46 0 l 379 944 l 392 944 l 728 0 z "},"W":{"ha":1083,"x_min":60,"x_max":1024,"o":"m 803 0 l 789 0 l 542 933 l 294 0 l 282 0 l 60 944 l 72 944 l 289 11 l 535 944 l 549 944 l 796 13 l 1013 944 l 1024 944 l 803 0 z "},"Ẃ":{"ha":1083,"x_min":60,"x_max":1024,"o":"m 803 0 l 789 0 l 542 933 l 294 0 l 282 0 l 60 944 l 72 944 l 289 11 l 535 944 l 549 944 l 796 13 l 1013 944 l 1024 944 l 803 0 m 660 1165 l 424 1068 l 419 1076 l 653 1178 l 660 1165 z "},"Ŵ":{"ha":1083,"x_min":60,"x_max":1024,"o":"m 803 0 l 789 0 l 542 933 l 294 0 l 282 0 l 60 944 l 72 944 l 289 11 l 535 944 l 549 944 l 796 13 l 1013 944 l 1024 944 l 803 0 m 540 1176 l 390 1068 l 383 1075 l 538 1189 l 544 1189 l 700 1075 l 693 1068 l 540 1176 z "},"Ẅ":{"ha":1083,"x_min":60,"x_max":1024,"o":"m 803 0 l 789 0 l 542 933 l 294 0 l 282 0 l 60 944 l 72 944 l 289 11 l 535 944 l 549 944 l 796 13 l 1013 944 l 1024 944 l 803 0 m 435 1143 q 449 1129 449 1143 q 435 1115 449 1115 q 425 1119 429 1115 q 421 1129 421 1124 q 435 1143 421 1143 m 649 1143 q 663 1129 663 1143 q 649 1115 663 1115 q 639 1119 643 1115 q 635 1129 635 1124 q 649 1143 635 1143 z "},"Ẁ":{"ha":1083,"x_min":60,"x_max":1024,"o":"m 803 0 l 789 0 l 542 933 l 294 0 l 282 0 l 60 944 l 72 944 l 289 11 l 535 944 l 549 944 l 796 13 l 1013 944 l 1024 944 l 803 0 m 669 1076 l 665 1068 l 429 1165 l 435 1178 l 669 1076 z "},"Ⱳ":{"ha":1115,"x_min":60,"x_max":1210,"o":"m 803 0 l 789 0 l 542 933 l 294 0 l 282 0 l 60 944 l 72 944 l 289 11 l 535 944 l 549 944 l 796 13 l 985 850 q 1027 933 999 907 q 1103 958 1056 958 q 1210 907 1165 958 l 1204 899 q 1159 936 1182 924 q 1103 949 1136 949 q 1033 924 1060 949 q 994 846 1007 900 l 803 0 z "},"Ƿ":{"ha":769,"x_min":178,"x_max":682,"o":"m 444 958 q 617 892 551 958 q 682 715 682 826 q 597 504 682 581 q 349 372 513 428 l 189 318 l 189 0 l 178 0 l 178 944 l 189 944 l 189 842 q 300 926 239 894 q 444 958 361 958 m 350 383 q 589 510 507 436 q 671 715 671 585 q 608 885 671 822 q 444 949 546 949 q 301 917 361 949 q 189 829 242 885 l 189 329 l 350 383 z "},"X":{"ha":656,"x_min":26,"x_max":631,"o":"m 631 0 l 618 0 l 326 507 l 39 0 l 26 0 l 319 514 l 67 944 l 79 944 l 326 521 l 575 944 l 586 944 l 335 514 l 631 0 z "},"Y":{"ha":672,"x_min":33,"x_max":639,"o":"m 343 376 l 343 0 l 331 0 l 331 376 l 33 944 l 46 944 l 338 386 l 626 944 l 639 944 l 343 376 z "},"Ý":{"ha":672,"x_min":33,"x_max":639,"o":"m 343 376 l 343 0 l 331 0 l 331 376 l 33 944 l 46 944 l 338 386 l 626 944 l 639 944 l 343 376 m 454 1165 l 218 1068 l 214 1076 l 447 1178 l 454 1165 z "},"Ŷ":{"ha":672,"x_min":33,"x_max":639,"o":"m 343 376 l 343 0 l 331 0 l 331 376 l 33 944 l 46 944 l 338 386 l 626 944 l 639 944 l 343 376 m 335 1176 l 185 1068 l 178 1075 l 332 1189 l 339 1189 l 494 1075 l 488 1068 l 335 1176 z "},"Ÿ":{"ha":672,"x_min":33,"x_max":639,"o":"m 343 376 l 343 0 l 331 0 l 331 376 l 33 944 l 46 944 l 338 386 l 626 944 l 639 944 l 343 376 m 229 1143 q 243 1129 243 1143 q 229 1115 243 1115 q 219 1119 224 1115 q 215 1129 215 1124 q 229 1143 215 1143 m 443 1143 q 457 1129 457 1143 q 443 1115 457 1115 q 433 1119 438 1115 q 429 1129 429 1124 q 443 1143 429 1143 z "},"Ỵ":{"ha":672,"x_min":33,"x_max":639,"o":"m 343 376 l 343 0 l 331 0 l 331 376 l 33 944 l 46 944 l 338 386 l 626 944 l 639 944 l 343 376 m 336 -174 q 326 -169 331 -174 q 322 -160 322 -165 q 326 -150 322 -154 q 336 -146 331 -146 q 347 -150 343 -146 q 351 -160 351 -154 q 347 -169 351 -165 q 336 -174 343 -174 z "},"Ỳ":{"ha":672,"x_min":33,"x_max":639,"o":"m 343 376 l 343 0 l 331 0 l 331 376 l 33 944 l 46 944 l 338 386 l 626 944 l 639 944 l 343 376 m 464 1076 l 460 1068 l 224 1165 l 229 1178 l 464 1076 z "},"Ƴ":{"ha":706,"x_min":33,"x_max":799,"o":"m 331 376 l 33 944 l 46 944 l 338 386 l 558 851 q 615 934 586 910 q 689 958 644 958 q 749 946 725 958 q 799 907 774 933 l 793 899 q 745 937 768 925 q 689 949 722 949 q 621 926 647 949 q 568 847 594 904 l 343 376 l 343 0 l 331 0 l 331 376 z "},"Ỷ":{"ha":672,"x_min":33,"x_max":639,"o":"m 343 376 l 343 0 l 331 0 l 331 376 l 33 944 l 46 944 l 338 386 l 626 944 l 639 944 l 343 376 m 326 1144 q 394 1166 369 1149 q 419 1222 419 1183 q 398 1274 419 1256 q 340 1293 376 1293 q 261 1269 300 1293 l 257 1279 q 342 1303 299 1303 q 407 1281 382 1303 q 432 1222 432 1260 q 338 1138 432 1144 l 338 1082 l 326 1082 l 326 1144 z "},"Ȳ":{"ha":672,"x_min":33,"x_max":639,"o":"m 343 376 l 343 0 l 331 0 l 331 376 l 33 944 l 46 944 l 338 386 l 626 944 l 639 944 l 343 376 m 201 1131 l 201 1142 l 472 1142 l 472 1131 l 201 1131 z "},"Ȝ":{"ha":674,"x_min":53,"x_max":586,"o":"m 317 958 q 492 895 429 958 q 556 728 556 832 q 496 567 556 624 q 346 503 436 511 q 519 440 453 496 q 586 285 586 385 q 540 121 586 192 q 386 -6 494 50 q 93 -110 278 -62 l 92 -99 q 378 1 272 -54 q 528 126 483 57 q 574 285 574 194 q 502 441 574 385 q 308 497 431 497 l 229 496 l 231 507 l 304 507 q 476 565 410 507 q 543 729 543 622 q 483 888 543 828 q 317 949 424 949 q 178 920 239 949 q 60 833 118 892 l 53 842 q 174 929 111 900 q 317 958 236 958 z "},"Ʀ":{"ha":783,"x_min":178,"x_max":713,"o":"m 433 268 l 189 268 l 189 0 l 178 0 l 178 944 l 189 944 l 189 754 l 374 754 q 604 691 533 754 q 675 511 675 628 q 610 337 675 396 q 446 269 544 278 l 713 -192 l 697 -192 l 433 268 m 417 279 q 594 336 524 279 q 664 511 664 393 q 596 683 664 624 q 372 743 528 743 l 189 743 l 189 279 l 417 279 z "},"Ɏ":{"ha":672,"x_min":33,"x_max":639,"o":"m 565 806 l 639 806 l 639 796 l 561 796 l 343 376 l 343 0 l 331 0 l 331 376 l 111 796 l 33 796 l 33 806 l 107 806 l 33 944 l 46 944 l 118 806 l 554 806 l 626 944 l 639 944 l 565 806 m 549 796 l 124 796 l 338 386 l 549 796 z "},"Ỹ":{"ha":672,"x_min":33,"x_max":639,"o":"m 343 376 l 343 0 l 331 0 l 331 376 l 33 944 l 46 944 l 338 386 l 626 944 l 639 944 l 343 376 m 414 1125 q 374 1133 393 1125 q 328 1157 356 1140 q 286 1178 300 1172 q 256 1185 272 1185 q 212 1174 231 1185 q 171 1136 193 1163 l 163 1142 q 208 1183 188 1171 q 256 1196 229 1196 q 291 1188 274 1196 q 333 1165 308 1181 q 376 1142 357 1150 q 414 1135 394 1135 q 460 1147 442 1135 q 501 1188 479 1158 l 508 1183 q 465 1138 486 1151 q 414 1125 443 1125 z "},"Z":{"ha":703,"x_min":61,"x_max":633,"o":"m 633 935 l 75 11 l 611 11 l 610 0 l 61 0 l 61 11 l 618 935 l 113 935 l 113 944 l 633 944 l 633 935 z "},"Ź":{"ha":703,"x_min":61,"x_max":633,"o":"m 633 935 l 75 11 l 611 11 l 610 0 l 61 0 l 61 11 l 618 935 l 113 935 l 113 944 l 633 944 l 633 935 m 471 1165 l 235 1068 l 231 1076 l 464 1178 l 471 1165 z "},"Ž":{"ha":703,"x_min":61,"x_max":633,"o":"m 633 935 l 75 11 l 611 11 l 610 0 l 61 0 l 61 11 l 618 935 l 113 935 l 113 944 l 633 944 l 633 935 m 511 1175 l 356 1061 l 349 1061 l 194 1175 l 201 1181 l 351 1072 l 504 1181 l 511 1175 z "},"Ż":{"ha":703,"x_min":61,"x_max":633,"o":"m 633 935 l 75 11 l 611 11 l 610 0 l 61 0 l 61 11 l 618 935 l 113 935 l 113 944 l 633 944 l 633 935 m 353 1163 q 364 1158 360 1163 q 368 1149 368 1154 q 364 1139 368 1143 q 353 1135 360 1135 q 343 1139 347 1135 q 339 1149 339 1143 q 343 1158 339 1154 q 353 1163 347 1163 z "},"Ẓ":{"ha":703,"x_min":61,"x_max":633,"o":"m 633 935 l 75 11 l 611 11 l 610 0 l 61 0 l 61 11 l 618 935 l 113 935 l 113 944 l 633 944 l 633 935 m 358 -174 q 349 -169 353 -174 q 344 -160 344 -165 q 349 -150 344 -154 q 358 -146 353 -146 q 369 -150 365 -146 q 374 -160 374 -154 q 369 -169 374 -165 q 358 -174 365 -174 z "},"Ȥ":{"ha":703,"x_min":61,"x_max":633,"o":"m 633 935 l 75 11 l 610 11 l 610 -131 q 576 -233 610 -197 q 488 -269 543 -269 q 424 -258 450 -269 q 374 -229 397 -247 l 379 -221 q 426 -249 401 -239 q 488 -258 451 -258 q 569 -226 539 -258 q 599 -129 599 -193 l 599 0 l 61 0 l 61 11 l 618 935 l 113 935 l 113 944 l 633 944 l 633 935 z "},"Ƶ":{"ha":703,"x_min":61,"x_max":633,"o":"m 633 935 l 358 481 l 529 481 l 529 469 l 351 469 l 75 11 l 611 11 l 610 0 l 61 0 l 61 11 l 338 469 l 172 469 l 172 481 l 344 481 l 618 935 l 113 935 l 113 944 l 633 944 l 633 935 z "},"Ɬ":{"ha":649,"x_min":51,"x_max":615,"o":"m 615 11 l 614 0 l 203 0 l 203 396 q 90 423 129 396 q 51 503 51 450 q 83 578 51 551 q 165 604 114 604 q 203 603 192 604 l 203 944 l 215 944 l 215 406 q 381 418 268 406 l 381 410 q 215 396 283 396 l 215 11 l 615 11 m 63 504 q 203 406 63 406 l 203 592 q 165 594 181 594 q 91 571 119 594 q 63 504 63 547 z "},"ʙ":{"ha":738,"x_min":171,"x_max":629,"o":"m 440 389 q 581 340 533 386 q 629 211 629 294 q 555 53 629 107 q 364 0 481 0 l 171 0 l 171 713 q 367 733 272 733 q 535 683 482 733 q 588 550 588 632 q 547 438 588 481 q 440 389 507 396 m 367 724 q 182 703 265 724 l 182 394 l 411 394 q 533 436 489 394 q 576 550 576 478 q 527 675 576 626 q 367 724 478 724 m 364 11 q 547 62 476 11 q 618 211 618 113 q 568 339 618 294 q 415 383 518 383 l 182 383 l 182 11 l 364 11 z "},"ɢ":{"ha":758,"x_min":108,"x_max":618,"o":"m 401 736 q 506 720 460 736 q 596 671 553 704 l 589 663 q 503 710 547 694 q 403 725 458 725 q 263 685 328 725 q 159 563 199 644 q 119 365 119 482 q 199 92 119 183 q 408 0 278 0 q 607 51 518 0 l 607 357 l 428 357 l 426 367 l 618 367 l 618 44 q 408 -10 519 -10 q 190 85 272 -10 q 108 365 108 181 q 149 567 108 483 q 258 694 190 651 q 401 736 325 736 z "},"ʛ":{"ha":758,"x_min":108,"x_max":821,"o":"m 707 1019 q 771 1008 744 1019 q 821 979 797 997 l 815 972 q 767 1000 792 990 q 707 1010 742 1010 q 626 977 656 1010 q 596 881 596 944 l 596 671 l 590 664 q 503 710 547 694 q 403 725 458 725 q 263 685 328 725 q 159 563 199 644 q 119 365 119 482 q 199 92 119 183 q 408 0 278 0 q 607 51 518 0 l 607 357 l 428 357 l 426 367 l 618 367 l 618 44 q 408 -10 519 -10 q 190 85 272 -10 q 108 365 108 181 q 149 567 108 483 q 258 694 190 651 q 401 736 325 736 q 500 722 457 736 q 585 678 543 707 l 585 881 q 617 983 585 947 q 707 1019 650 1019 z "},"ʜ":{"ha":804,"x_min":171,"x_max":633,"o":"m 622 372 l 182 372 l 182 0 l 171 0 l 171 719 l 182 719 l 182 383 l 622 383 l 622 719 l 633 719 l 633 0 l 622 0 l 622 372 z "},"ɪ":{"ha":431,"x_min":53,"x_max":378,"o":"m 221 708 l 221 11 l 378 11 l 378 0 l 53 0 l 53 11 l 210 11 l 210 708 l 53 708 l 53 719 l 378 719 l 378 708 l 221 708 z "},"ʟ":{"ha":551,"x_min":171,"x_max":526,"o":"m 182 11 l 526 11 l 525 0 l 171 0 l 171 719 l 182 719 l 182 11 z "},"ɴ":{"ha":806,"x_min":171,"x_max":635,"o":"m 635 0 l 619 0 l 181 708 l 182 558 l 182 0 l 171 0 l 171 719 l 185 719 l 625 13 q 624 185 624 58 l 624 719 l 635 719 l 635 0 z "},"ɶ":{"ha":1014,"x_min":108,"x_max":928,"o":"m 928 0 l 471 0 q 388 -12 431 -12 q 183 86 257 -12 q 108 358 108 185 q 185 635 108 536 q 390 733 261 733 q 476 719 435 733 l 917 719 l 915 708 l 499 708 q 624 589 578 675 q 672 388 671 503 l 864 388 l 864 378 l 672 378 q 624 139 672 233 q 493 11 575 44 l 928 11 l 928 0 m 119 358 q 191 94 119 190 q 388 -3 263 -3 q 588 99 514 -3 q 661 381 661 201 q 627 557 661 479 q 531 678 593 635 q 390 722 469 722 q 192 627 265 722 q 119 358 119 532 z "},"ʀ":{"ha":707,"x_min":171,"x_max":617,"o":"m 388 340 l 182 340 l 182 0 l 171 0 l 171 719 l 325 719 q 526 670 464 719 q 588 528 588 621 q 534 394 588 439 q 401 342 481 349 l 617 0 l 603 0 l 388 340 m 375 351 q 518 395 460 351 q 576 528 576 439 q 517 663 576 617 q 324 708 458 708 l 182 708 l 182 351 l 375 351 z "},"ʁ":{"ha":707,"x_min":171,"x_max":617,"o":"m 401 378 q 535 328 483 372 q 588 194 588 283 q 526 49 588 99 q 325 0 464 0 l 171 0 l 171 719 l 182 719 l 182 378 l 389 378 l 603 719 l 617 719 l 401 378 m 324 11 q 518 58 460 11 q 576 194 576 104 q 520 326 576 283 q 375 368 464 368 l 182 368 l 182 11 l 324 11 z "},"ʏ":{"ha":547,"x_min":25,"x_max":522,"o":"m 281 294 l 281 0 l 269 0 l 269 294 l 25 719 l 38 719 l 275 304 l 510 719 l 522 719 l 281 294 z "},"a":{"ha":729,"x_min":96,"x_max":626,"o":"m 556 153 q 570 43 556 76 q 626 -4 585 10 l 622 -12 q 563 34 579 1 q 544 139 546 67 q 449 26 507 64 q 307 -12 390 -12 q 151 47 207 -12 q 96 201 96 106 q 170 365 96 307 q 374 424 244 424 l 544 424 l 544 515 q 500 669 544 617 q 353 722 456 722 q 151 676 263 722 l 147 686 q 353 733 263 733 q 508 678 460 733 q 556 517 556 622 l 556 153 m 307 -3 q 449 37 393 -3 q 544 156 506 76 l 544 414 l 376 414 q 178 358 250 414 q 107 201 107 303 q 160 53 107 110 q 307 -3 213 -3 z "},"á":{"ha":729,"x_min":96,"x_max":626,"o":"m 556 153 q 570 43 556 76 q 626 -4 585 10 l 622 -12 q 563 34 579 1 q 544 139 546 67 q 449 26 507 64 q 307 -12 390 -12 q 151 47 207 -12 q 96 201 96 106 q 170 365 96 307 q 374 424 244 424 l 544 424 l 544 515 q 500 669 544 617 q 353 722 456 722 q 151 676 263 722 l 147 686 q 353 733 263 733 q 508 678 460 733 q 556 517 556 622 l 556 153 m 307 -3 q 449 37 393 -3 q 544 156 506 76 l 544 414 l 376 414 q 178 358 250 414 q 107 201 107 303 q 160 53 107 110 q 307 -3 213 -3 m 460 1031 l 224 917 l 219 925 l 456 1043 l 460 1031 z "},"ă":{"ha":729,"x_min":96,"x_max":626,"o":"m 556 153 q 570 43 556 76 q 626 -4 585 10 l 622 -12 q 563 34 579 1 q 544 139 546 67 q 449 26 507 64 q 307 -12 390 -12 q 151 47 207 -12 q 96 201 96 106 q 170 365 96 307 q 374 424 244 424 l 544 424 l 544 515 q 500 669 544 617 q 353 722 456 722 q 151 676 263 722 l 147 686 q 353 733 263 733 q 508 678 460 733 q 556 517 556 622 l 556 153 m 307 -3 q 449 37 393 -3 q 544 156 506 76 l 544 414 l 376 414 q 178 358 250 414 q 107 201 107 303 q 160 53 107 110 q 307 -3 213 -3 m 350 924 q 259 953 294 924 q 211 1028 224 982 l 219 1031 q 267 960 233 985 q 350 935 300 935 q 432 960 399 935 q 479 1031 465 985 l 488 1028 q 441 953 476 982 q 350 924 406 924 z "},"ắ":{"ha":729,"x_min":96,"x_max":626,"o":"m 340 953 l 333 958 l 460 1113 l 469 1104 l 340 953 m 350 825 q 260 851 296 825 q 211 915 224 878 l 219 918 q 267 858 233 881 q 350 836 301 836 q 431 858 397 836 q 479 918 465 881 l 488 915 q 440 851 476 878 q 350 825 404 825 m 556 153 q 570 43 556 76 q 626 -4 585 10 l 622 -12 q 563 34 579 1 q 544 139 546 67 q 449 26 507 64 q 307 -12 390 -12 q 151 47 207 -12 q 96 201 96 106 q 170 365 96 307 q 374 424 244 424 l 544 424 l 544 515 q 500 669 544 617 q 353 722 456 722 q 151 676 263 722 l 147 686 q 353 733 263 733 q 508 678 460 733 q 556 517 556 622 l 556 153 m 307 -3 q 449 37 393 -3 q 544 156 506 76 l 544 414 l 376 414 q 178 358 250 414 q 107 201 107 303 q 160 53 107 110 q 307 -3 213 -3 z "},"ặ":{"ha":729,"x_min":96,"x_max":626,"o":"m 556 153 q 570 43 556 76 q 626 -4 585 10 l 622 -12 q 563 34 579 1 q 544 139 546 67 q 449 26 507 64 q 307 -12 390 -12 q 151 47 207 -12 q 96 201 96 106 q 170 365 96 307 q 374 424 244 424 l 544 424 l 544 515 q 500 669 544 617 q 353 722 456 722 q 151 676 263 722 l 147 686 q 353 733 263 733 q 508 678 460 733 q 556 517 556 622 l 556 153 m 307 -3 q 449 37 393 -3 q 544 156 506 76 l 544 414 l 376 414 q 178 358 250 414 q 107 201 107 303 q 160 53 107 110 q 307 -3 213 -3 m 350 924 q 259 953 294 924 q 211 1028 224 982 l 219 1031 q 267 960 233 985 q 350 935 300 935 q 432 960 399 935 q 479 1031 465 985 l 488 1028 q 441 953 476 982 q 350 924 406 924 m 349 -174 q 339 -169 343 -174 q 335 -160 335 -165 q 339 -150 335 -154 q 349 -146 343 -146 q 360 -150 356 -146 q 364 -160 364 -154 q 360 -169 364 -165 q 349 -174 356 -174 z "},"ằ":{"ha":729,"x_min":96,"x_max":626,"o":"m 367 953 l 238 1104 l 246 1113 l 374 958 l 367 953 m 350 825 q 260 851 296 825 q 211 915 224 878 l 219 918 q 267 858 233 881 q 350 836 301 836 q 431 858 397 836 q 479 918 465 881 l 488 915 q 440 851 476 878 q 350 825 404 825 m 556 153 q 570 43 556 76 q 626 -4 585 10 l 622 -12 q 563 34 579 1 q 544 139 546 67 q 449 26 507 64 q 307 -12 390 -12 q 151 47 207 -12 q 96 201 96 106 q 170 365 96 307 q 374 424 244 424 l 544 424 l 544 515 q 500 669 544 617 q 353 722 456 722 q 151 676 263 722 l 147 686 q 353 733 263 733 q 508 678 460 733 q 556 517 556 622 l 556 153 m 307 -3 q 449 37 393 -3 q 544 156 506 76 l 544 414 l 376 414 q 178 358 250 414 q 107 201 107 303 q 160 53 107 110 q 307 -3 213 -3 z "},"ẳ":{"ha":729,"x_min":96,"x_max":626,"o":"m 357 1163 q 278 1139 317 1163 l 274 1149 q 358 1172 315 1172 q 424 1151 399 1172 q 449 1092 449 1129 q 424 1030 449 1049 q 354 1007 399 1011 l 354 926 l 343 926 l 343 1014 q 412 1035 388 1018 q 436 1092 436 1051 q 415 1144 436 1125 q 357 1163 393 1163 m 350 825 q 260 851 296 825 q 211 915 224 878 l 219 918 q 267 858 233 881 q 350 836 301 836 q 431 858 397 836 q 479 918 465 881 l 488 915 q 440 851 476 878 q 350 825 404 825 m 556 153 q 570 43 556 76 q 626 -4 585 10 l 622 -12 q 563 34 579 1 q 544 139 546 67 q 449 26 507 64 q 307 -12 390 -12 q 151 47 207 -12 q 96 201 96 106 q 170 365 96 307 q 374 424 244 424 l 544 424 l 544 515 q 500 669 544 617 q 353 722 456 722 q 151 676 263 722 l 147 686 q 353 733 263 733 q 508 678 460 733 q 556 517 556 622 l 556 153 m 307 -3 q 449 37 393 -3 q 544 156 506 76 l 544 414 l 376 414 q 178 358 250 414 q 107 201 107 303 q 160 53 107 110 q 307 -3 213 -3 z "},"ẵ":{"ha":729,"x_min":96,"x_max":626,"o":"m 272 1069 q 228 1058 247 1069 q 188 1021 210 1047 l 179 1026 q 225 1068 204 1056 q 272 1081 246 1081 q 308 1073 290 1081 q 350 1050 325 1065 q 392 1027 374 1035 q 431 1019 411 1019 q 477 1031 458 1019 q 518 1072 496 1043 l 525 1068 q 481 1023 503 1036 q 431 1010 460 1010 q 391 1017 410 1010 q 344 1042 372 1025 q 303 1063 317 1057 q 272 1069 289 1069 m 350 836 q 431 858 397 836 q 479 918 465 881 l 488 915 q 440 851 476 878 q 350 825 404 825 q 260 851 296 825 q 211 915 224 878 l 219 918 q 267 858 233 881 q 350 836 301 836 m 556 153 q 570 43 556 76 q 626 -4 585 10 l 622 -12 q 563 34 579 1 q 544 139 546 67 q 449 26 507 64 q 307 -12 390 -12 q 151 47 207 -12 q 96 201 96 106 q 170 365 96 307 q 374 424 244 424 l 544 424 l 544 515 q 500 669 544 617 q 353 722 456 722 q 151 676 263 722 l 147 686 q 353 733 263 733 q 508 678 460 733 q 556 517 556 622 l 556 153 m 307 -3 q 449 37 393 -3 q 544 156 506 76 l 544 414 l 376 414 q 178 358 250 414 q 107 201 107 303 q 160 53 107 110 q 307 -3 213 -3 z "},"ǎ":{"ha":729,"x_min":96,"x_max":626,"o":"m 556 153 q 570 43 556 76 q 626 -4 585 10 l 622 -12 q 563 34 579 1 q 544 139 546 67 q 449 26 507 64 q 307 -12 390 -12 q 151 47 207 -12 q 96 201 96 106 q 170 365 96 307 q 374 424 244 424 l 544 424 l 544 515 q 500 669 544 617 q 353 722 456 722 q 151 676 263 722 l 147 686 q 353 733 263 733 q 508 678 460 733 q 556 517 556 622 l 556 153 m 307 -3 q 449 37 393 -3 q 544 156 506 76 l 544 414 l 376 414 q 178 358 250 414 q 107 201 107 303 q 160 53 107 110 q 307 -3 213 -3 m 508 1018 l 353 897 l 346 897 l 192 1018 l 199 1025 l 349 910 l 501 1025 l 508 1018 z "},"â":{"ha":729,"x_min":96,"x_max":626,"o":"m 556 153 q 570 43 556 76 q 626 -4 585 10 l 622 -12 q 563 34 579 1 q 544 139 546 67 q 449 26 507 64 q 307 -12 390 -12 q 151 47 207 -12 q 96 201 96 106 q 170 365 96 307 q 374 424 244 424 l 544 424 l 544 515 q 500 669 544 617 q 353 722 456 722 q 151 676 263 722 l 147 686 q 353 733 263 733 q 508 678 460 733 q 556 517 556 622 l 556 153 m 307 -3 q 449 37 393 -3 q 544 156 506 76 l 544 414 l 376 414 q 178 358 250 414 q 107 201 107 303 q 160 53 107 110 q 307 -3 213 -3 m 190 921 l 346 1042 l 353 1042 l 507 921 l 500 914 l 350 1031 l 197 914 l 190 921 z "},"ấ":{"ha":729,"x_min":96,"x_max":626,"o":"m 464 928 l 457 933 l 583 1088 l 593 1079 l 464 928 m 196 818 l 189 825 l 343 939 l 350 939 l 506 825 l 499 818 l 346 926 l 196 818 m 556 153 q 570 43 556 76 q 626 -4 585 10 l 622 -12 q 563 34 579 1 q 544 139 546 67 q 449 26 507 64 q 307 -12 390 -12 q 151 47 207 -12 q 96 201 96 106 q 170 365 96 307 q 374 424 244 424 l 544 424 l 544 515 q 500 669 544 617 q 353 722 456 722 q 151 676 263 722 l 147 686 q 353 733 263 733 q 508 678 460 733 q 556 517 556 622 l 556 153 m 307 -3 q 449 37 393 -3 q 544 156 506 76 l 544 414 l 376 414 q 178 358 250 414 q 107 201 107 303 q 160 53 107 110 q 307 -3 213 -3 z "},"ậ":{"ha":729,"x_min":96,"x_max":626,"o":"m 556 153 q 570 43 556 76 q 626 -4 585 10 l 622 -12 q 563 34 579 1 q 544 139 546 67 q 449 26 507 64 q 307 -12 390 -12 q 151 47 207 -12 q 96 201 96 106 q 170 365 96 307 q 374 424 244 424 l 544 424 l 544 515 q 500 669 544 617 q 353 722 456 722 q 151 676 263 722 l 147 686 q 353 733 263 733 q 508 678 460 733 q 556 517 556 622 l 556 153 m 307 -3 q 449 37 393 -3 q 544 156 506 76 l 544 414 l 376 414 q 178 358 250 414 q 107 201 107 303 q 160 53 107 110 q 307 -3 213 -3 m 190 921 l 346 1042 l 353 1042 l 507 921 l 500 914 l 350 1031 l 197 914 l 190 921 m 349 -174 q 339 -169 343 -174 q 335 -160 335 -165 q 339 -150 335 -154 q 349 -146 343 -146 q 360 -150 356 -146 q 364 -160 364 -154 q 360 -169 364 -165 q 349 -174 356 -174 z "},"ầ":{"ha":729,"x_min":96,"x_max":626,"o":"m 231 928 l 101 1079 l 110 1088 l 238 933 l 231 928 m 190 825 l 344 939 l 351 939 l 507 825 l 500 818 l 347 926 l 197 818 l 190 825 m 556 153 q 570 43 556 76 q 626 -4 585 10 l 622 -12 q 563 34 579 1 q 544 139 546 67 q 449 26 507 64 q 307 -12 390 -12 q 151 47 207 -12 q 96 201 96 106 q 170 365 96 307 q 374 424 244 424 l 544 424 l 544 515 q 500 669 544 617 q 353 722 456 722 q 151 676 263 722 l 147 686 q 353 733 263 733 q 508 678 460 733 q 556 517 556 622 l 556 153 m 307 -3 q 449 37 393 -3 q 544 156 506 76 l 544 414 l 376 414 q 178 358 250 414 q 107 201 107 303 q 160 53 107 110 q 307 -3 213 -3 z "},"ẩ":{"ha":729,"x_min":96,"x_max":626,"o":"m 475 1151 q 396 1128 435 1151 l 392 1138 q 476 1161 433 1161 q 542 1140 517 1161 q 567 1081 567 1118 q 542 1019 567 1038 q 472 996 517 1000 l 472 915 l 461 915 l 461 1003 q 530 1024 506 1007 q 554 1081 554 1040 q 533 1133 554 1114 q 475 1151 511 1151 m 196 818 l 189 825 l 343 939 l 350 939 l 506 825 l 499 818 l 346 926 l 196 818 m 556 153 q 570 43 556 76 q 626 -4 585 10 l 622 -12 q 563 34 579 1 q 544 139 546 67 q 449 26 507 64 q 307 -12 390 -12 q 151 47 207 -12 q 96 201 96 106 q 170 365 96 307 q 374 424 244 424 l 544 424 l 544 515 q 500 669 544 617 q 353 722 456 722 q 151 676 263 722 l 147 686 q 353 733 263 733 q 508 678 460 733 q 556 517 556 622 l 556 153 m 307 -3 q 449 37 393 -3 q 544 156 506 76 l 544 414 l 376 414 q 178 358 250 414 q 107 201 107 303 q 160 53 107 110 q 307 -3 213 -3 z "},"ẫ":{"ha":729,"x_min":96,"x_max":626,"o":"m 267 1057 q 223 1046 242 1057 q 182 1008 204 1035 l 174 1014 q 219 1056 199 1043 q 267 1068 240 1068 q 302 1060 285 1068 q 344 1038 319 1053 q 387 1015 368 1022 q 425 1007 406 1007 q 472 1019 453 1007 q 513 1060 490 1031 l 519 1056 q 476 1010 497 1024 q 425 997 454 997 q 385 1005 404 997 q 339 1029 367 1013 q 297 1051 311 1044 q 267 1057 283 1057 m 351 931 l 507 817 l 500 810 l 347 918 l 197 810 l 190 817 l 344 931 l 351 931 m 556 153 q 570 43 556 76 q 626 -4 585 10 l 622 -12 q 563 34 579 1 q 544 139 546 67 q 449 26 507 64 q 307 -12 390 -12 q 151 47 207 -12 q 96 201 96 106 q 170 365 96 307 q 374 424 244 424 l 544 424 l 544 515 q 500 669 544 617 q 353 722 456 722 q 151 676 263 722 l 147 686 q 353 733 263 733 q 508 678 460 733 q 556 517 556 622 l 556 153 m 307 -3 q 449 37 393 -3 q 544 156 506 76 l 544 414 l 376 414 q 178 358 250 414 q 107 201 107 303 q 160 53 107 110 q 307 -3 213 -3 z "},"ȁ":{"ha":729,"x_min":96,"x_max":626,"o":"m 556 153 q 570 43 556 76 q 626 -4 585 10 l 622 -12 q 563 34 579 1 q 544 139 546 67 q 449 26 507 64 q 307 -12 390 -12 q 151 47 207 -12 q 96 201 96 106 q 170 365 96 307 q 374 424 244 424 l 544 424 l 544 515 q 500 669 544 617 q 353 722 456 722 q 151 676 263 722 l 147 686 q 353 733 263 733 q 508 678 460 733 q 556 517 556 622 l 556 153 m 307 -3 q 449 37 393 -3 q 544 156 506 76 l 544 414 l 376 414 q 178 358 250 414 q 107 201 107 303 q 160 53 107 110 q 307 -3 213 -3 m 289 919 l 279 914 l 183 1088 l 194 1093 l 289 919 m 429 922 l 421 918 l 332 1083 l 343 1089 l 429 922 z "},"ä":{"ha":729,"x_min":96,"x_max":626,"o":"m 556 153 q 570 43 556 76 q 626 -4 585 10 l 622 -12 q 563 34 579 1 q 544 139 546 67 q 449 26 507 64 q 307 -12 390 -12 q 151 47 207 -12 q 96 201 96 106 q 170 365 96 307 q 374 424 244 424 l 544 424 l 544 515 q 500 669 544 617 q 353 722 456 722 q 151 676 263 722 l 147 686 q 353 733 263 733 q 508 678 460 733 q 556 517 556 622 l 556 153 m 307 -3 q 449 37 393 -3 q 544 156 506 76 l 544 414 l 376 414 q 178 358 250 414 q 107 201 107 303 q 160 53 107 110 q 307 -3 213 -3 m 242 968 q 256 954 256 968 q 242 940 256 940 q 232 944 236 940 q 228 954 228 949 q 242 968 228 968 m 456 968 q 469 954 469 968 q 456 940 469 940 q 446 944 450 940 q 442 954 442 949 q 456 968 442 968 z "},"ǟ":{"ha":729,"x_min":96,"x_max":626,"o":"m 488 1036 l 217 1036 l 217 1047 l 488 1047 l 488 1036 m 231 913 q 244 926 231 926 q 258 913 258 926 q 244 899 258 899 q 235 903 239 899 q 231 913 231 907 m 444 913 q 458 926 444 926 q 472 913 472 926 q 458 899 472 899 q 449 903 453 899 q 444 913 444 907 m 556 153 q 570 43 556 76 q 626 -4 585 10 l 622 -12 q 563 34 579 1 q 544 139 546 67 q 449 26 507 64 q 307 -12 390 -12 q 151 47 207 -12 q 96 201 96 106 q 170 365 96 307 q 374 424 244 424 l 544 424 l 544 515 q 500 669 544 617 q 353 722 456 722 q 151 676 263 722 l 147 686 q 353 733 263 733 q 508 678 460 733 q 556 517 556 622 l 556 153 m 307 -3 q 449 37 393 -3 q 544 156 506 76 l 544 414 l 376 414 q 178 358 250 414 q 107 201 107 303 q 160 53 107 110 q 307 -3 213 -3 z "},"ȧ":{"ha":729,"x_min":96,"x_max":626,"o":"m 556 153 q 570 43 556 76 q 626 -4 585 10 l 622 -12 q 563 34 579 1 q 544 139 546 67 q 449 26 507 64 q 307 -12 390 -12 q 151 47 207 -12 q 96 201 96 106 q 170 365 96 307 q 374 424 244 424 l 544 424 l 544 515 q 500 669 544 617 q 353 722 456 722 q 151 676 263 722 l 147 686 q 353 733 263 733 q 508 678 460 733 q 556 517 556 622 l 556 153 m 307 -3 q 449 37 393 -3 q 544 156 506 76 l 544 414 l 376 414 q 178 358 250 414 q 107 201 107 303 q 160 53 107 110 q 307 -3 213 -3 m 349 988 q 360 983 356 988 q 364 974 364 979 q 360 964 364 968 q 349 960 356 960 q 339 964 343 960 q 335 974 335 968 q 339 983 335 979 q 349 988 343 988 z "},"ạ":{"ha":729,"x_min":96,"x_max":626,"o":"m 556 153 q 570 43 556 76 q 626 -4 585 10 l 622 -12 q 563 34 579 1 q 544 139 546 67 q 449 26 507 64 q 307 -12 390 -12 q 151 47 207 -12 q 96 201 96 106 q 170 365 96 307 q 374 424 244 424 l 544 424 l 544 515 q 500 669 544 617 q 353 722 456 722 q 151 676 263 722 l 147 686 q 353 733 263 733 q 508 678 460 733 q 556 517 556 622 l 556 153 m 307 -3 q 449 37 393 -3 q 544 156 506 76 l 544 414 l 376 414 q 178 358 250 414 q 107 201 107 303 q 160 53 107 110 q 307 -3 213 -3 m 349 -174 q 339 -169 343 -174 q 335 -160 335 -165 q 339 -150 335 -154 q 349 -146 343 -146 q 360 -150 356 -146 q 364 -160 364 -154 q 360 -169 364 -165 q 349 -174 356 -174 z "},"ǡ":{"ha":729,"x_min":96,"x_max":626,"o":"m 482 1025 l 211 1025 l 211 1036 l 482 1036 l 482 1025 m 332 893 q 336 903 332 899 q 346 907 340 907 q 357 903 353 907 q 361 893 361 899 q 357 883 361 888 q 346 879 353 879 q 336 883 340 879 q 332 893 332 888 m 556 153 q 570 43 556 76 q 626 -4 585 10 l 622 -12 q 563 34 579 1 q 544 139 546 67 q 449 26 507 64 q 307 -12 390 -12 q 151 47 207 -12 q 96 201 96 106 q 170 365 96 307 q 374 424 244 424 l 544 424 l 544 515 q 500 669 544 617 q 353 722 456 722 q 151 676 263 722 l 147 686 q 353 733 263 733 q 508 678 460 733 q 556 517 556 622 l 556 153 m 307 -3 q 449 37 393 -3 q 544 156 506 76 l 544 414 l 376 414 q 178 358 250 414 q 107 201 107 303 q 160 53 107 110 q 307 -3 213 -3 z "},"à":{"ha":729,"x_min":96,"x_max":626,"o":"m 556 153 q 570 43 556 76 q 626 -4 585 10 l 622 -12 q 563 34 579 1 q 544 139 546 67 q 449 26 507 64 q 307 -12 390 -12 q 151 47 207 -12 q 96 201 96 106 q 170 365 96 307 q 374 424 244 424 l 544 424 l 544 515 q 500 669 544 617 q 353 722 456 722 q 151 676 263 722 l 147 686 q 353 733 263 733 q 508 678 460 733 q 556 517 556 622 l 556 153 m 307 -3 q 449 37 393 -3 q 544 156 506 76 l 544 414 l 376 414 q 178 358 250 414 q 107 201 107 303 q 160 53 107 110 q 307 -3 213 -3 m 474 925 l 469 917 l 233 1031 l 239 1043 l 474 925 z "},"ả":{"ha":729,"x_min":96,"x_max":626,"o":"m 556 153 q 570 43 556 76 q 626 -4 585 10 l 622 -12 q 563 34 579 1 q 544 139 546 67 q 449 26 507 64 q 307 -12 390 -12 q 151 47 207 -12 q 96 201 96 106 q 170 365 96 307 q 374 424 244 424 l 544 424 l 544 515 q 500 669 544 617 q 353 722 456 722 q 151 676 263 722 l 147 686 q 353 733 263 733 q 508 678 460 733 q 556 517 556 622 l 556 153 m 307 -3 q 449 37 393 -3 q 544 156 506 76 l 544 414 l 376 414 q 178 358 250 414 q 107 201 107 303 q 160 53 107 110 q 307 -3 213 -3 m 339 954 q 408 975 383 958 q 432 1032 432 992 q 410 1084 432 1065 q 353 1103 389 1103 q 274 1079 313 1103 l 269 1089 q 354 1113 311 1113 q 419 1091 394 1113 q 444 1032 444 1069 q 419 970 444 989 q 350 947 394 951 l 350 867 l 339 867 l 339 954 z "},"ȃ":{"ha":729,"x_min":96,"x_max":626,"o":"m 556 153 q 570 43 556 76 q 626 -4 585 10 l 622 -12 q 563 34 579 1 q 544 139 546 67 q 449 26 507 64 q 307 -12 390 -12 q 151 47 207 -12 q 96 201 96 106 q 170 365 96 307 q 374 424 244 424 l 544 424 l 544 515 q 500 669 544 617 q 353 722 456 722 q 151 676 263 722 l 147 686 q 353 733 263 733 q 508 678 460 733 q 556 517 556 622 l 556 153 m 307 -3 q 449 37 393 -3 q 544 156 506 76 l 544 414 l 376 414 q 178 358 250 414 q 107 201 107 303 q 160 53 107 110 q 307 -3 213 -3 m 350 999 q 441 970 406 999 q 488 896 476 942 l 479 893 q 432 964 465 939 q 350 989 399 989 q 267 964 300 989 q 219 893 233 939 l 211 896 q 259 970 224 942 q 350 999 294 999 z "},"ɑ":{"ha":794,"x_min":108,"x_max":692,"o":"m 618 138 q 633 50 618 78 q 692 4 649 22 l 689 -6 q 624 44 642 14 q 607 135 607 74 q 513 27 568 67 q 374 -12 457 -12 q 179 85 250 -12 q 108 357 108 182 q 142 553 108 468 q 239 686 176 639 q 386 733 301 733 q 520 694 464 733 q 607 599 576 654 l 608 719 l 618 719 l 618 138 m 374 -3 q 511 38 456 -3 q 607 153 567 79 l 607 583 q 518 683 574 643 q 386 722 463 722 q 247 676 307 722 q 153 548 186 631 q 119 357 119 465 q 188 92 119 188 q 374 -3 256 -3 z "},"ɒ":{"ha":794,"x_min":103,"x_max":686,"o":"m 421 732 q 615 635 544 732 q 686 363 686 538 q 652 166 686 251 q 556 33 618 81 q 408 -14 493 -14 q 275 25 331 -14 q 188 121 219 64 l 186 0 l 176 0 l 176 582 q 161 669 176 642 q 103 715 146 697 l 106 725 q 171 676 154 706 q 188 583 188 646 q 282 692 226 653 q 421 732 338 732 m 408 -3 q 548 43 488 -3 q 642 172 608 89 q 675 363 675 254 q 607 627 675 532 q 421 722 539 722 q 284 682 339 722 q 188 568 229 642 l 188 136 q 276 37 221 76 q 408 -3 332 -3 z "},"ā":{"ha":729,"x_min":96,"x_max":626,"o":"m 556 153 q 570 43 556 76 q 626 -4 585 10 l 622 -12 q 563 34 579 1 q 544 139 546 67 q 449 26 507 64 q 307 -12 390 -12 q 151 47 207 -12 q 96 201 96 106 q 170 365 96 307 q 374 424 244 424 l 544 424 l 544 515 q 500 669 544 617 q 353 722 456 722 q 151 676 263 722 l 147 686 q 353 733 263 733 q 508 678 460 733 q 556 517 556 622 l 556 153 m 307 -3 q 449 37 393 -3 q 544 156 506 76 l 544 414 l 376 414 q 178 358 250 414 q 107 201 107 303 q 160 53 107 110 q 307 -3 213 -3 m 214 956 l 214 967 l 485 967 l 485 956 l 214 956 z "},"ą":{"ha":729,"x_min":96,"x_max":626,"o":"m 622 -12 q 491 -83 543 -43 q 439 -179 439 -122 q 467 -250 439 -225 q 542 -275 494 -275 q 615 -264 576 -275 l 615 -275 q 542 -286 575 -286 q 458 -258 489 -286 q 428 -179 428 -231 q 478 -81 428 -122 q 611 -8 528 -40 q 560 40 574 7 q 544 139 546 72 q 449 26 507 64 q 307 -12 390 -12 q 151 47 207 -12 q 96 201 96 106 q 170 365 96 307 q 374 424 244 424 l 544 424 l 544 515 q 500 669 544 617 q 353 722 456 722 q 151 676 263 722 l 147 686 q 353 733 263 733 q 508 678 460 733 q 556 517 556 622 l 556 153 q 570 43 556 76 q 626 -4 585 10 l 622 -12 m 307 -3 q 449 37 393 -3 q 544 156 506 76 l 544 414 l 376 414 q 178 358 250 414 q 107 201 107 303 q 160 53 107 110 q 307 -3 213 -3 z "},"å":{"ha":729,"x_min":96,"x_max":626,"o":"m 556 153 q 570 43 556 76 q 626 -4 585 10 l 622 -12 q 563 34 579 1 q 544 139 546 67 q 449 26 507 64 q 307 -12 390 -12 q 151 47 207 -12 q 96 201 96 106 q 170 365 96 307 q 374 424 244 424 l 544 424 l 544 515 q 500 669 544 617 q 353 722 456 722 q 151 676 263 722 l 147 686 q 353 733 263 733 q 508 678 460 733 q 556 517 556 622 l 556 153 m 307 -3 q 449 37 393 -3 q 544 156 506 76 l 544 414 l 376 414 q 178 358 250 414 q 107 201 107 303 q 160 53 107 110 q 307 -3 213 -3 m 349 1094 q 418 1069 393 1094 q 443 1000 443 1043 q 417 931 443 957 q 349 906 392 906 q 279 931 304 906 q 254 999 254 957 q 280 1068 254 1042 q 349 1094 306 1094 m 349 1085 q 288 1061 310 1085 q 265 999 265 1038 q 287 938 265 960 q 349 915 308 915 q 410 939 388 915 q 432 1000 432 963 q 410 1062 432 1039 q 349 1085 389 1085 z "},"ǻ":{"ha":729,"x_min":96,"x_max":626,"o":"m 235 1039 l 231 1047 l 464 1149 l 471 1136 l 235 1039 m 256 907 q 281 976 256 950 q 350 1003 307 1003 q 419 977 394 1003 q 444 908 444 951 q 419 840 444 865 q 350 814 393 814 q 281 840 306 814 q 256 907 256 865 m 433 908 q 412 970 433 947 q 350 993 390 993 q 289 969 311 993 q 267 907 267 946 q 288 846 267 868 q 350 824 310 824 q 411 847 389 824 q 433 908 433 871 m 556 153 q 570 43 556 76 q 626 -4 585 10 l 622 -12 q 563 34 579 1 q 544 139 546 67 q 449 26 507 64 q 307 -12 390 -12 q 151 47 207 -12 q 96 201 96 106 q 170 365 96 307 q 374 424 244 424 l 544 424 l 544 515 q 500 669 544 617 q 353 722 456 722 q 151 676 263 722 l 147 686 q 353 733 263 733 q 508 678 460 733 q 556 517 556 622 l 556 153 m 307 -3 q 449 37 393 -3 q 544 156 506 76 l 544 414 l 376 414 q 178 358 250 414 q 107 201 107 303 q 160 53 107 110 q 307 -3 213 -3 z "},"ⱥ":{"ha":729,"x_min":96,"x_max":626,"o":"m 556 153 q 570 43 556 76 q 626 -4 585 10 l 622 -12 q 563 34 579 1 q 544 139 546 67 q 449 26 507 64 q 307 -12 390 -12 q 269 -10 281 -12 l 249 -83 l 240 -82 l 260 -8 q 139 62 182 6 q 96 201 96 118 q 170 365 96 307 q 374 424 244 424 l 379 424 l 456 703 q 353 722 414 722 q 151 676 263 722 l 147 686 q 353 733 263 733 q 458 713 417 733 l 485 808 l 493 807 l 467 710 q 556 517 556 663 l 556 153 m 389 424 l 544 424 l 544 515 q 464 699 544 654 l 389 424 m 107 201 q 148 67 107 121 q 263 1 189 14 l 376 414 q 178 358 250 414 q 107 201 107 303 m 307 -3 q 449 37 393 -3 q 544 156 506 76 l 544 414 l 386 414 l 272 0 q 307 -3 294 -3 z "},"ã":{"ha":729,"x_min":96,"x_max":626,"o":"m 556 153 q 570 43 556 76 q 626 -4 585 10 l 622 -12 q 563 34 579 1 q 544 139 546 67 q 449 26 507 64 q 307 -12 390 -12 q 151 47 207 -12 q 96 201 96 106 q 170 365 96 307 q 374 424 244 424 l 544 424 l 544 515 q 500 669 544 617 q 353 722 456 722 q 151 676 263 722 l 147 686 q 353 733 263 733 q 508 678 460 733 q 556 517 556 622 l 556 153 m 307 -3 q 449 37 393 -3 q 544 156 506 76 l 544 414 l 376 414 q 178 358 250 414 q 107 201 107 303 q 160 53 107 110 q 307 -3 213 -3 m 429 950 q 390 958 408 950 q 343 982 371 965 q 301 1003 315 997 q 271 1010 288 1010 q 227 999 246 1010 q 186 961 208 988 l 178 967 q 224 1008 203 996 q 271 1021 244 1021 q 306 1013 289 1021 q 349 990 324 1006 q 391 967 372 975 q 429 960 410 960 q 476 972 457 960 q 517 1013 494 983 l 524 1008 q 480 963 501 976 q 429 950 458 950 z "},"ɐ":{"ha":729,"x_min":103,"x_max":633,"o":"m 376 -3 q 579 44 468 -3 l 582 33 q 376 -14 467 -14 q 222 41 269 -14 q 175 203 175 96 l 175 567 q 160 676 175 643 q 103 724 144 710 l 107 732 q 167 685 150 718 q 185 581 183 651 q 422 732 261 732 q 578 673 522 732 q 633 518 633 614 q 559 354 633 413 q 356 296 485 296 l 186 296 l 186 204 q 230 50 186 103 q 376 -3 274 -3 m 422 722 q 281 683 338 722 q 186 565 224 643 l 186 306 l 354 306 q 551 362 479 306 q 622 518 622 418 q 569 667 622 611 q 422 722 517 722 z "},"æ":{"ha":1169,"x_min":96,"x_max":1068,"o":"m 1068 399 q 1067 347 1068 365 l 556 347 q 628 88 557 179 q 821 -3 700 -3 q 933 17 885 -3 q 1031 79 981 38 l 1036 69 q 937 8 986 28 q 821 -12 888 -12 q 669 33 733 -12 q 574 167 606 79 q 454 29 515 71 q 307 -12 393 -12 q 151 47 207 -12 q 96 201 96 106 q 170 365 96 307 q 374 424 244 424 l 544 424 l 544 515 q 500 669 544 617 q 353 722 456 722 q 151 676 263 722 l 147 686 q 353 733 263 733 q 508 678 460 733 q 556 517 556 622 l 556 472 q 647 665 578 597 q 818 733 715 733 q 1005 642 942 733 q 1068 399 1068 550 m 1056 357 q 1057 401 1057 374 q 998 635 1057 547 q 819 722 939 722 q 628 626 699 722 q 556 357 557 531 l 1056 357 m 307 -3 q 453 40 393 -3 q 569 178 513 82 q 544 353 544 253 l 544 414 l 376 414 q 178 358 250 414 q 107 201 107 303 q 160 53 107 110 q 307 -3 213 -3 z "},"ǽ":{"ha":1169,"x_min":96,"x_max":1068,"o":"m 1068 399 q 1067 347 1068 365 l 556 347 q 628 88 557 179 q 821 -3 700 -3 q 933 17 885 -3 q 1031 79 981 38 l 1036 69 q 937 8 986 28 q 821 -12 888 -12 q 669 33 733 -12 q 574 167 606 79 q 454 29 515 71 q 307 -12 393 -12 q 151 47 207 -12 q 96 201 96 106 q 170 365 96 307 q 374 424 244 424 l 544 424 l 544 515 q 500 669 544 617 q 353 722 456 722 q 151 676 263 722 l 147 686 q 353 733 263 733 q 508 678 460 733 q 556 517 556 622 l 556 472 q 647 665 578 597 q 818 733 715 733 q 1005 642 942 733 q 1068 399 1068 550 m 1056 357 q 1057 401 1057 374 q 998 635 1057 547 q 819 722 939 722 q 628 626 699 722 q 556 357 557 531 l 1056 357 m 307 -3 q 453 40 393 -3 q 569 178 513 82 q 544 353 544 253 l 544 414 l 376 414 q 178 358 250 414 q 107 201 107 303 q 160 53 107 110 q 307 -3 213 -3 m 697 1031 l 461 917 l 457 925 l 693 1043 l 697 1031 z "},"ǣ":{"ha":1169,"x_min":96,"x_max":1068,"o":"m 1068 399 q 1067 347 1068 365 l 556 347 q 628 88 557 179 q 821 -3 700 -3 q 933 17 885 -3 q 1031 79 981 38 l 1036 69 q 937 8 986 28 q 821 -12 888 -12 q 669 33 733 -12 q 574 167 606 79 q 454 29 515 71 q 307 -12 393 -12 q 151 47 207 -12 q 96 201 96 106 q 170 365 96 307 q 374 424 244 424 l 544 424 l 544 515 q 500 669 544 617 q 353 722 456 722 q 151 676 263 722 l 147 686 q 353 733 263 733 q 508 678 460 733 q 556 517 556 622 l 556 472 q 647 665 578 597 q 818 733 715 733 q 1005 642 942 733 q 1068 399 1068 550 m 1056 357 q 1057 401 1057 374 q 998 635 1057 547 q 819 722 939 722 q 628 626 699 722 q 556 357 557 531 l 1056 357 m 307 -3 q 453 40 393 -3 q 569 178 513 82 q 544 353 544 253 l 544 414 l 376 414 q 178 358 250 414 q 107 201 107 303 q 160 53 107 110 q 307 -3 213 -3 m 450 956 l 450 967 l 721 967 l 721 956 l 450 956 z "},"b":{"ha":789,"x_min":171,"x_max":674,"o":"m 424 733 q 609 638 544 733 q 674 367 674 543 q 608 88 674 188 q 418 -12 542 -12 q 182 129 274 -12 l 181 0 l 171 0 l 171 1015 l 182 1017 l 182 592 q 288 696 229 658 q 424 733 346 733 m 417 -3 q 599 95 536 -3 q 663 367 663 193 q 601 631 663 539 q 424 722 540 722 q 290 685 346 722 q 182 578 233 649 l 182 143 q 285 35 228 72 q 417 -3 342 -3 z "},"ḃ":{"ha":789,"x_min":171,"x_max":674,"o":"m 424 733 q 609 638 544 733 q 674 367 674 543 q 608 88 674 188 q 418 -12 542 -12 q 182 129 274 -12 l 181 0 l 171 0 l 171 1015 l 182 1017 l 182 592 q 288 696 229 658 q 424 733 346 733 m 417 -3 q 599 95 536 -3 q 663 367 663 193 q 601 631 663 539 q 424 722 540 722 q 290 685 346 722 q 182 578 233 649 l 182 143 q 285 35 228 72 q 417 -3 342 -3 m 403 1229 q 414 1225 410 1229 q 418 1215 418 1221 q 414 1206 418 1210 q 403 1201 410 1201 q 393 1206 397 1201 q 389 1215 389 1210 q 393 1225 389 1221 q 403 1229 397 1229 z "},"ḅ":{"ha":789,"x_min":171,"x_max":674,"o":"m 424 733 q 609 638 544 733 q 674 367 674 543 q 608 88 674 188 q 418 -12 542 -12 q 182 129 274 -12 l 181 0 l 171 0 l 171 1015 l 182 1017 l 182 592 q 288 696 229 658 q 424 733 346 733 m 417 -3 q 599 95 536 -3 q 663 367 663 193 q 601 631 663 539 q 424 722 540 722 q 290 685 346 722 q 182 578 233 649 l 182 143 q 285 35 228 72 q 417 -3 342 -3 m 399 -174 q 389 -169 393 -174 q 385 -160 385 -165 q 389 -150 385 -154 q 399 -146 393 -146 q 410 -150 406 -146 q 414 -160 414 -154 q 410 -169 414 -165 q 399 -174 406 -174 z "},"ɓ":{"ha":789,"x_min":171,"x_max":674,"o":"m 426 733 q 610 638 546 733 q 674 367 674 542 q 608 88 674 188 q 419 -12 543 -12 q 182 129 274 -12 l 181 0 l 171 0 l 171 858 q 215 978 171 936 q 331 1019 258 1019 q 486 975 414 1019 l 482 965 q 331 1010 410 1010 q 223 971 264 1010 q 182 857 182 932 l 182 592 q 288 696 229 658 q 426 733 347 733 m 419 -3 q 600 95 538 -3 q 663 367 663 193 q 602 631 663 539 q 426 722 542 722 q 290 685 347 722 q 182 578 233 649 l 182 143 q 419 -3 276 -3 z "},"ʭ":{"ha":408,"x_min":42,"x_max":367,"o":"m 42 694 l 367 694 l 367 557 l 356 557 l 356 683 l 53 683 l 53 558 l 42 558 l 42 694 m 42 139 l 367 139 l 367 1 l 356 1 l 356 128 l 53 128 l 53 3 l 42 3 l 42 139 z "},"ʘ":{"ha":1094,"x_min":115,"x_max":979,"o":"m 546 958 q 776 901 678 958 q 926 733 874 843 q 979 471 979 624 q 928 212 979 321 q 779 45 876 103 q 546 -12 682 -12 q 318 45 415 -12 q 168 211 221 103 q 115 468 115 319 q 169 729 115 618 q 320 899 222 840 q 546 958 418 958 m 546 947 q 326 890 421 947 q 178 724 231 832 q 126 468 126 615 q 178 216 126 322 q 324 53 229 110 q 546 -3 418 -3 q 857 123 746 -3 q 968 471 968 249 q 917 728 968 621 q 770 891 865 835 q 546 947 675 947 m 546 482 q 557 478 553 482 q 561 468 561 474 q 557 458 561 463 q 546 454 553 454 q 536 458 540 454 q 532 468 532 463 q 536 478 532 474 q 546 482 540 482 z "},"ʬ":{"ha":629,"x_min":81,"x_max":549,"o":"m 442 556 l 428 556 l 315 906 l 201 556 l 189 556 l 81 915 l 92 915 l 196 564 l 310 915 l 321 915 l 435 564 l 539 915 l 549 915 l 442 556 m 442 0 l 428 0 l 315 350 l 201 0 l 189 0 l 81 360 l 92 360 l 196 8 l 310 360 l 321 360 l 435 8 l 539 360 l 549 360 l 442 0 z "},"ƀ":{"ha":796,"x_min":74,"x_max":681,"o":"m 431 733 q 616 638 551 733 q 681 367 681 543 q 615 88 681 188 q 425 -12 549 -12 q 189 128 281 -12 l 188 0 l 178 0 l 178 882 l 74 882 l 74 893 l 178 893 l 178 1015 l 189 1017 l 189 893 l 450 893 l 450 882 l 189 882 l 189 592 q 294 697 238 660 q 431 733 351 733 m 424 -3 q 606 95 543 -3 q 669 367 669 193 q 608 631 669 539 q 431 722 547 722 q 297 685 353 722 q 189 578 240 649 l 189 143 q 292 35 235 74 q 424 -3 349 -3 z "},"ƃ":{"ha":789,"x_min":171,"x_max":674,"o":"m 424 733 q 609 638 544 733 q 674 367 674 543 q 608 88 674 188 q 418 -12 542 -12 q 182 129 274 -12 l 181 0 l 171 0 l 171 1013 l 517 1013 l 515 1001 l 182 1001 l 182 592 q 288 696 229 658 q 424 733 346 733 m 417 -3 q 599 95 536 -3 q 663 367 663 193 q 601 631 663 539 q 424 722 540 722 q 290 685 346 722 q 182 578 233 649 l 182 143 q 285 35 228 72 q 417 -3 342 -3 z "},"c":{"ha":650,"x_min":108,"x_max":579,"o":"m 392 733 q 490 716 447 733 q 572 664 533 699 l 565 656 q 393 722 494 722 q 193 625 267 722 q 119 356 119 528 q 154 162 119 243 q 250 39 189 81 q 390 -3 311 -3 q 571 68 493 -3 l 579 61 q 390 -12 499 -12 q 244 31 308 -12 q 144 157 181 74 q 108 356 108 240 q 184 633 108 532 q 392 733 260 733 z "},"ć":{"ha":650,"x_min":108,"x_max":579,"o":"m 392 733 q 490 716 447 733 q 572 664 533 699 l 565 656 q 393 722 494 722 q 193 625 267 722 q 119 356 119 528 q 154 162 119 243 q 250 39 189 81 q 390 -3 311 -3 q 571 68 493 -3 l 579 61 q 390 -12 499 -12 q 244 31 308 -12 q 144 157 181 74 q 108 356 108 240 q 184 633 108 532 q 392 733 260 733 m 489 1031 l 253 917 l 249 925 l 485 1043 l 489 1031 z "},"č":{"ha":650,"x_min":108,"x_max":579,"o":"m 392 733 q 490 716 447 733 q 572 664 533 699 l 565 656 q 393 722 494 722 q 193 625 267 722 q 119 356 119 528 q 154 162 119 243 q 250 39 189 81 q 390 -3 311 -3 q 571 68 493 -3 l 579 61 q 390 -12 499 -12 q 244 31 308 -12 q 144 157 181 74 q 108 356 108 240 q 184 633 108 532 q 392 733 260 733 m 536 1018 l 381 897 l 374 897 l 219 1018 l 226 1025 l 376 910 l 529 1025 l 536 1018 z "},"ç":{"ha":650,"x_min":108,"x_max":579,"o":"m 386 -112 q 511 -197 511 -115 q 482 -264 511 -242 q 410 -286 453 -286 q 322 -262 360 -286 l 328 -254 q 410 -276 364 -276 q 474 -257 447 -276 q 500 -197 500 -237 q 470 -141 500 -160 q 375 -121 440 -122 l 382 -12 q 240 34 301 -10 q 143 160 178 78 q 108 356 108 242 q 184 633 108 532 q 392 733 260 733 q 490 716 447 733 q 572 664 533 699 l 565 656 q 393 722 494 722 q 193 625 267 722 q 119 356 119 528 q 154 162 119 243 q 250 39 189 81 q 390 -3 311 -3 q 571 68 493 -3 l 579 61 q 390 -12 499 -12 l 386 -112 z "},"ĉ":{"ha":650,"x_min":108,"x_max":579,"o":"m 392 733 q 490 716 447 733 q 572 664 533 699 l 565 656 q 393 722 494 722 q 193 625 267 722 q 119 356 119 528 q 154 162 119 243 q 250 39 189 81 q 390 -3 311 -3 q 571 68 493 -3 l 579 61 q 390 -12 499 -12 q 244 31 308 -12 q 144 157 181 74 q 108 356 108 240 q 184 633 108 532 q 392 733 260 733 m 219 921 l 375 1042 l 382 1042 l 536 921 l 529 914 l 379 1031 l 226 914 l 219 921 z "},"ɕ":{"ha":661,"x_min":108,"x_max":603,"o":"m 474 275 q 569 240 535 275 q 603 147 603 204 q 548 32 603 76 q 400 -12 493 -12 q 313 -1 349 -12 q 240 33 276 10 l 190 -71 l 181 -67 l 232 39 q 141 167 174 86 q 108 356 108 247 q 184 633 108 532 q 392 733 260 733 q 490 716 447 733 q 572 664 533 699 l 565 656 q 393 722 494 722 q 193 625 267 722 q 119 356 119 528 q 151 172 119 250 q 236 50 182 94 l 240 58 q 347 224 294 174 q 474 275 399 275 m 400 -3 q 539 38 486 -3 q 592 147 592 79 q 561 232 592 200 q 474 264 531 264 q 350 213 401 264 q 244 44 299 163 q 315 9 279 21 q 400 -3 351 -3 z "},"ċ":{"ha":650,"x_min":108,"x_max":579,"o":"m 392 733 q 490 716 447 733 q 572 664 533 699 l 565 656 q 393 722 494 722 q 193 625 267 722 q 119 356 119 528 q 154 162 119 243 q 250 39 189 81 q 390 -3 311 -3 q 571 68 493 -3 l 579 61 q 390 -12 499 -12 q 244 31 308 -12 q 144 157 181 74 q 108 356 108 240 q 184 633 108 532 q 392 733 260 733 m 378 988 q 389 983 385 988 q 393 974 393 979 q 389 964 393 968 q 378 960 385 960 q 368 964 372 960 q 364 974 364 968 q 368 983 364 979 q 378 988 372 988 z "},"ƈ":{"ha":650,"x_min":108,"x_max":797,"o":"m 683 1019 q 797 979 749 1019 l 792 972 q 744 1000 769 990 q 683 1010 719 1010 q 602 977 632 1010 q 572 881 572 944 l 572 664 l 567 657 q 393 722 493 722 q 193 625 267 722 q 119 356 119 528 q 154 162 119 243 q 250 39 189 81 q 390 -3 311 -3 q 490 16 446 -3 q 572 69 533 35 l 579 61 q 390 -12 499 -12 q 244 31 308 -12 q 144 157 181 74 q 108 356 108 240 q 184 633 108 532 q 392 733 260 733 q 561 672 489 733 l 561 881 q 594 983 561 947 q 683 1019 628 1019 z "},"ʗ":{"ha":682,"x_min":140,"x_max":611,"o":"m 431 733 q 606 664 528 733 l 599 656 q 431 722 526 722 q 226 595 300 722 q 153 229 153 468 q 226 -135 153 -10 q 428 -260 299 -260 q 604 -189 529 -260 l 611 -197 q 429 -271 531 -271 q 217 -143 293 -271 q 140 229 140 -15 q 217 603 140 472 q 431 733 293 733 z "},"ȼ":{"ha":650,"x_min":108,"x_max":579,"o":"m 579 61 q 390 -12 499 -12 q 272 14 325 -12 l 246 -83 l 238 -82 l 264 18 q 150 145 192 58 q 108 356 108 232 q 184 633 108 532 q 392 733 260 733 q 458 725 429 733 l 482 808 l 490 807 l 468 724 q 572 664 525 707 l 565 656 q 465 714 518 699 l 275 25 q 390 -3 328 -3 q 571 68 493 -3 l 579 61 m 119 356 q 159 152 119 236 q 268 29 199 68 l 456 715 q 393 722 424 722 q 193 625 267 722 q 119 356 119 528 z "},"d":{"ha":796,"x_min":115,"x_max":625,"o":"m 625 1015 l 625 0 l 615 0 l 614 135 q 519 26 575 65 q 378 -12 464 -12 q 186 85 257 -12 q 115 357 115 183 q 188 630 115 526 q 390 733 261 733 q 527 694 471 733 q 614 599 583 654 l 614 1017 l 625 1015 m 378 -3 q 519 38 464 -3 q 614 153 574 78 l 614 583 q 525 683 581 643 q 390 722 469 722 q 197 622 268 722 q 126 357 126 522 q 194 92 126 188 q 378 -3 263 -3 z "},"ð":{"ha":754,"x_min":108,"x_max":636,"o":"m 418 929 q 581 731 526 850 q 636 439 636 611 q 368 -12 636 -12 q 178 78 247 -12 q 108 318 108 168 q 138 477 108 404 q 226 593 168 550 q 361 636 283 636 q 624 478 514 636 q 565 737 618 628 q 411 921 513 846 l 290 796 l 281 800 l 403 926 q 310 978 361 956 q 208 1011 260 1000 l 210 1021 q 410 935 322 996 l 499 1028 l 507 1021 l 418 929 m 368 -3 q 625 439 625 -3 l 625 464 q 361 626 511 626 q 233 585 288 626 q 149 473 178 543 q 119 317 119 403 q 186 84 119 171 q 368 -3 253 -3 z "},"ȸ":{"ha":1176,"x_min":115,"x_max":1061,"o":"m 822 733 q 999 638 936 733 q 1061 367 1061 542 q 998 88 1061 189 q 819 -12 935 -12 q 694 27 750 -12 q 597 135 638 67 l 596 0 l 588 0 l 586 135 q 364 -12 504 -12 q 235 31 292 -12 q 147 158 179 75 q 115 357 115 242 q 147 553 115 468 q 238 686 179 639 q 376 733 297 733 q 498 693 444 733 q 586 593 551 653 l 586 1015 l 597 1017 l 597 593 q 693 692 632 651 q 822 733 754 733 m 364 -3 q 493 38 440 -3 q 586 153 546 79 l 586 579 q 376 722 501 722 q 245 676 301 722 q 158 548 189 631 q 126 357 126 465 q 156 165 126 246 q 240 40 186 83 q 364 -3 294 -3 m 818 -3 q 989 96 928 -3 q 1050 367 1050 194 q 991 630 1050 538 q 822 722 932 722 q 696 682 754 722 q 597 578 638 642 l 597 153 q 695 38 639 79 q 818 -3 751 -3 z "},"ď":{"ha":796,"x_min":115,"x_max":775,"o":"m 625 1015 l 625 0 l 615 0 l 614 135 q 519 26 575 65 q 378 -12 464 -12 q 186 85 257 -12 q 115 357 115 183 q 188 630 115 526 q 390 733 261 733 q 527 694 471 733 q 614 599 583 654 l 614 1017 l 625 1015 m 378 -3 q 519 38 464 -3 q 614 153 574 78 l 614 583 q 525 683 581 643 q 390 722 469 722 q 197 622 268 722 q 126 357 126 522 q 194 92 126 188 q 378 -3 263 -3 m 775 1015 l 744 821 l 736 822 l 763 1015 l 775 1015 z "},"ḓ":{"ha":796,"x_min":115,"x_max":625,"o":"m 625 1015 l 625 0 l 615 0 l 614 135 q 519 26 575 65 q 378 -12 464 -12 q 186 85 257 -12 q 115 357 115 183 q 188 630 115 526 q 390 733 261 733 q 527 694 471 733 q 614 599 583 654 l 614 1017 l 625 1015 m 378 -3 q 519 38 464 -3 q 614 153 574 78 l 614 583 q 525 683 581 643 q 390 722 469 722 q 197 622 268 722 q 126 357 126 522 q 194 92 126 188 q 378 -3 263 -3 m 244 -235 l 400 -114 l 407 -114 l 561 -235 l 554 -242 l 404 -126 l 251 -242 l 244 -235 z "},"đ":{"ha":803,"x_min":115,"x_max":729,"o":"m 729 893 l 729 882 l 625 882 l 625 0 l 615 0 l 614 135 q 519 26 575 65 q 378 -12 464 -12 q 186 85 257 -12 q 115 357 115 183 q 188 630 115 526 q 390 733 261 733 q 527 694 471 733 q 614 599 583 654 l 614 882 l 367 882 l 367 893 l 614 893 l 614 1017 l 625 1015 l 625 893 l 729 893 m 378 -3 q 519 38 464 -3 q 614 153 574 78 l 614 583 q 525 683 581 643 q 390 722 469 722 q 197 622 268 722 q 126 357 126 522 q 194 92 126 188 q 378 -3 263 -3 z "},"ȡ":{"ha":906,"x_min":115,"x_max":957,"o":"m 839 247 q 926 216 894 247 q 957 135 957 185 q 906 28 957 69 q 772 -12 854 -12 q 689 4 725 -12 q 633 54 653 21 l 572 -71 l 563 -67 l 628 64 q 614 135 614 99 q 519 26 575 65 q 378 -12 464 -12 q 186 85 257 -12 q 115 357 115 183 q 188 630 115 526 q 390 733 261 733 q 527 694 471 733 q 614 599 583 654 l 614 1017 l 625 1015 l 625 138 q 635 76 625 101 q 724 203 676 160 q 839 247 771 247 m 378 -3 q 519 38 464 -3 q 614 153 574 78 l 614 583 q 525 683 581 643 q 390 722 469 722 q 197 622 268 722 q 126 357 126 522 q 194 92 126 188 q 378 -3 263 -3 m 772 -3 q 898 35 850 -3 q 946 135 946 74 q 917 208 946 181 q 839 236 889 236 q 727 193 774 236 q 640 67 681 150 l 640 65 q 772 -3 674 -3 z "},"ḋ":{"ha":796,"x_min":115,"x_max":625,"o":"m 625 1015 l 625 0 l 615 0 l 614 135 q 519 26 575 65 q 378 -12 464 -12 q 186 85 257 -12 q 115 357 115 183 q 188 630 115 526 q 390 733 261 733 q 527 694 471 733 q 614 599 583 654 l 614 1017 l 625 1015 m 378 -3 q 519 38 464 -3 q 614 153 574 78 l 614 583 q 525 683 581 643 q 390 722 469 722 q 197 622 268 722 q 126 357 126 522 q 194 92 126 188 q 378 -3 263 -3 m 389 1229 q 400 1225 396 1229 q 404 1215 404 1221 q 400 1206 404 1210 q 389 1201 396 1201 q 379 1206 383 1201 q 375 1215 375 1210 q 379 1225 375 1221 q 389 1229 383 1229 z "},"ḍ":{"ha":796,"x_min":115,"x_max":625,"o":"m 625 1015 l 625 0 l 615 0 l 614 135 q 519 26 575 65 q 378 -12 464 -12 q 186 85 257 -12 q 115 357 115 183 q 188 630 115 526 q 390 733 261 733 q 527 694 471 733 q 614 599 583 654 l 614 1017 l 625 1015 m 378 -3 q 519 38 464 -3 q 614 153 574 78 l 614 583 q 525 683 581 643 q 390 722 469 722 q 197 622 268 722 q 126 357 126 522 q 194 92 126 188 q 378 -3 263 -3 m 403 -174 q 393 -169 397 -174 q 389 -160 389 -165 q 393 -150 389 -154 q 403 -146 397 -146 q 414 -150 410 -146 q 418 -160 418 -154 q 414 -169 418 -165 q 403 -174 410 -174 z "},"ƍ":{"ha":771,"x_min":108,"x_max":663,"o":"m 375 -258 q 487 -244 440 -258 q 579 -199 533 -231 l 586 -207 q 491 -254 540 -239 q 375 -269 442 -269 q 235 -230 289 -269 q 181 -128 181 -190 q 221 -31 181 -69 q 363 49 261 8 q 176 175 244 89 q 108 396 108 261 q 183 647 108 560 q 388 733 257 733 q 590 651 518 733 q 663 403 663 568 q 635 239 663 303 q 549 131 608 175 q 385 47 490 88 q 234 -33 275 4 q 193 -128 193 -69 q 243 -223 193 -187 q 375 -258 293 -258 m 119 396 q 188 176 119 261 q 374 53 257 90 q 540 138 481 94 q 625 243 599 181 q 651 403 651 306 q 582 643 651 564 q 388 722 513 722 q 190 638 261 722 q 119 396 119 554 z "},"ʤ":{"ha":1172,"x_min":115,"x_max":1118,"o":"m 818 265 q 1042 199 967 265 q 1118 1 1118 132 q 1047 -194 1118 -119 q 851 -269 975 -269 q 711 -242 771 -269 q 601 -158 651 -214 l 608 -153 q 716 -232 658 -206 q 851 -258 774 -258 q 1039 -187 971 -258 q 1107 1 1107 -115 q 818 256 1107 256 l 749 256 l 749 265 l 1065 708 l 625 708 l 625 0 l 615 0 l 614 135 q 519 26 575 65 q 378 -12 464 -12 q 186 85 257 -12 q 115 357 115 183 q 188 630 115 526 q 390 733 261 733 q 527 694 471 733 q 614 599 583 654 l 614 1017 l 625 1015 l 625 719 l 1079 719 l 1079 710 l 763 265 l 818 265 m 378 -3 q 519 38 464 -3 q 614 153 574 78 l 614 583 q 525 683 581 643 q 390 722 469 722 q 197 622 268 722 q 126 357 126 522 q 194 92 126 188 q 378 -3 263 -3 z "},"ɗ":{"ha":796,"x_min":115,"x_max":850,"o":"m 736 1019 q 800 1008 774 1019 q 850 979 826 997 l 844 972 q 796 1000 821 990 q 736 1010 771 1010 q 655 977 685 1010 q 625 881 625 944 l 625 0 l 615 0 l 614 135 q 519 26 575 65 q 378 -12 464 -12 q 186 85 257 -12 q 115 357 115 183 q 188 630 115 526 q 390 733 261 733 q 527 694 471 733 q 614 599 583 654 l 614 881 q 647 983 614 947 q 736 1019 681 1019 m 378 -3 q 519 38 464 -3 q 614 153 574 78 l 614 583 q 525 683 581 643 q 390 722 469 722 q 197 622 268 722 q 126 357 126 522 q 194 92 126 188 q 378 -3 263 -3 z "},"ḏ":{"ha":796,"x_min":115,"x_max":625,"o":"m 625 1015 l 625 0 l 615 0 l 614 135 q 519 26 575 65 q 378 -12 464 -12 q 186 85 257 -12 q 115 357 115 183 q 188 630 115 526 q 390 733 261 733 q 527 694 471 733 q 614 599 583 654 l 614 1017 l 625 1015 m 378 -3 q 519 38 464 -3 q 614 153 574 78 l 614 583 q 525 683 581 643 q 390 722 469 722 q 197 622 268 722 q 126 357 126 522 q 194 92 126 188 q 378 -3 263 -3 m 268 -174 l 268 -162 l 539 -162 l 539 -174 l 268 -174 z "},"ɖ":{"ha":796,"x_min":115,"x_max":850,"o":"m 850 -229 q 800 -258 826 -247 q 736 -269 774 -269 q 647 -233 681 -269 q 614 -131 614 -197 l 614 135 q 519 26 575 65 q 378 -12 464 -12 q 186 85 257 -12 q 115 357 115 183 q 188 630 115 526 q 390 733 261 733 q 527 694 471 733 q 614 599 583 654 l 614 1017 l 625 1015 l 625 -131 q 655 -226 625 -193 q 736 -258 685 -258 q 797 -249 772 -258 q 844 -221 822 -239 l 850 -229 m 378 -3 q 519 38 464 -3 q 614 153 574 78 l 614 583 q 525 683 581 643 q 390 722 469 722 q 197 622 268 722 q 126 357 126 522 q 194 92 126 188 q 378 -3 263 -3 z "},"ƌ":{"ha":796,"x_min":115,"x_max":625,"o":"m 625 0 l 615 0 l 614 135 q 519 26 575 65 q 378 -12 464 -12 q 186 85 257 -12 q 115 357 115 183 q 188 630 115 526 q 390 733 261 733 q 527 694 471 733 q 614 599 583 654 l 614 1001 l 279 1001 l 279 1013 l 625 1013 l 625 0 m 378 -3 q 519 38 464 -3 q 614 153 574 78 l 614 583 q 525 683 581 643 q 390 722 469 722 q 197 622 268 722 q 126 357 126 522 q 194 92 126 188 q 378 -3 263 -3 z "},"ǳ":{"ha":1365,"x_min":115,"x_max":1311,"o":"m 625 1015 l 625 0 l 615 0 l 614 135 q 519 26 575 65 q 378 -12 464 -12 q 186 85 257 -12 q 115 357 115 183 q 188 630 115 526 q 390 733 261 733 q 527 694 471 733 q 614 599 583 654 l 614 1017 l 625 1015 m 378 -3 q 519 38 464 -3 q 614 153 574 78 l 614 583 q 525 683 581 643 q 390 722 469 722 q 197 622 268 722 q 126 357 126 522 q 194 92 126 188 q 378 -3 263 -3 m 1311 710 l 857 11 l 1297 11 l 1297 0 l 843 0 l 843 10 l 1297 708 l 885 708 l 885 719 l 1311 719 l 1311 710 z "},"ʣ":{"ha":1171,"x_min":115,"x_max":1117,"o":"m 1117 710 l 638 11 l 1103 11 l 1101 0 l 615 0 l 614 135 q 519 26 575 65 q 378 -12 464 -12 q 186 85 257 -12 q 115 357 115 183 q 188 630 115 526 q 390 733 261 733 q 527 694 471 733 q 614 599 583 654 l 614 1017 l 625 1015 l 625 719 l 1117 719 l 1117 710 m 378 -3 q 519 38 464 -3 q 614 153 574 78 l 614 583 q 525 683 581 643 q 390 722 469 722 q 197 622 268 722 q 126 357 126 522 q 194 92 126 188 q 378 -3 263 -3 m 1103 708 l 625 708 l 625 11 l 1103 708 z "},"ǆ":{"ha":1365,"x_min":115,"x_max":1311,"o":"m 625 1015 l 625 0 l 615 0 l 614 135 q 519 26 575 65 q 378 -12 464 -12 q 186 85 257 -12 q 115 357 115 183 q 188 630 115 526 q 390 733 261 733 q 527 694 471 733 q 614 599 583 654 l 614 1017 l 625 1015 m 378 -3 q 519 38 464 -3 q 614 153 574 78 l 614 583 q 525 683 581 643 q 390 722 469 722 q 197 622 268 722 q 126 357 126 522 q 194 92 126 188 q 378 -3 263 -3 m 1311 710 l 857 11 l 1297 11 l 1297 0 l 843 0 l 843 10 l 1297 708 l 885 708 l 885 719 l 1311 719 l 1311 710 m 1253 1018 l 1097 897 l 1090 897 l 936 1018 l 943 1025 l 1093 910 l 1246 1025 l 1253 1018 z "},"ʥ":{"ha":1167,"x_min":115,"x_max":1178,"o":"m 1063 257 q 1145 226 1113 257 q 1178 142 1178 194 q 1116 33 1178 65 q 910 0 1054 0 q 908 -83 908 -28 q 910 -142 908 -122 l 899 -142 q 897 -82 897 -122 q 899 0 897 -28 l 615 0 l 614 135 q 519 26 575 65 q 378 -12 464 -12 q 186 85 257 -12 q 115 357 115 183 q 188 630 115 526 q 390 733 261 733 q 527 694 471 733 q 614 599 583 654 l 614 1017 l 625 1015 l 625 719 l 1115 719 l 1115 710 l 638 11 l 900 11 q 944 198 904 139 q 1063 257 985 257 m 378 -3 q 519 38 464 -3 q 614 153 574 78 l 614 583 q 525 683 581 643 q 390 722 469 722 q 197 622 268 722 q 126 357 126 522 q 194 92 126 188 q 378 -3 263 -3 m 625 13 l 1101 708 l 625 708 l 625 13 m 910 11 q 1108 40 1049 10 q 1167 142 1167 71 q 1138 219 1167 190 q 1063 247 1108 247 q 952 192 990 247 q 910 11 914 136 z "},"e":{"ha":733,"x_min":108,"x_max":632,"o":"m 632 399 q 631 347 632 365 l 119 347 q 193 88 121 179 q 385 -3 265 -3 q 497 17 449 -3 q 594 79 544 38 l 601 69 q 501 8 551 28 q 385 -12 451 -12 q 183 83 257 -12 q 108 353 108 179 q 182 632 108 531 q 382 733 256 733 q 569 642 506 733 q 632 399 632 550 m 621 401 q 561 635 621 547 q 382 722 501 722 q 192 626 263 722 q 119 357 121 531 l 621 357 l 621 401 z "},"é":{"ha":733,"x_min":108,"x_max":632,"o":"m 632 399 q 631 347 632 365 l 119 347 q 193 88 121 179 q 385 -3 265 -3 q 497 17 449 -3 q 594 79 544 38 l 601 69 q 501 8 551 28 q 385 -12 451 -12 q 183 83 257 -12 q 108 353 108 179 q 182 632 108 531 q 382 733 256 733 q 569 642 506 733 q 632 399 632 550 m 621 401 q 561 635 621 547 q 382 722 501 722 q 192 626 263 722 q 119 357 121 531 l 621 357 l 621 401 m 494 1031 l 258 917 l 254 925 l 490 1043 l 494 1031 z "},"ĕ":{"ha":733,"x_min":108,"x_max":632,"o":"m 632 399 q 631 347 632 365 l 119 347 q 193 88 121 179 q 385 -3 265 -3 q 497 17 449 -3 q 594 79 544 38 l 601 69 q 501 8 551 28 q 385 -12 451 -12 q 183 83 257 -12 q 108 353 108 179 q 182 632 108 531 q 382 733 256 733 q 569 642 506 733 q 632 399 632 550 m 621 401 q 561 635 621 547 q 382 722 501 722 q 192 626 263 722 q 119 357 121 531 l 621 357 l 621 401 m 383 924 q 292 953 328 924 q 244 1028 257 982 l 253 1031 q 300 960 267 985 q 383 935 333 935 q 465 960 432 935 q 513 1031 499 985 l 521 1028 q 474 953 510 982 q 383 924 439 924 z "},"ě":{"ha":733,"x_min":108,"x_max":632,"o":"m 632 399 q 631 347 632 365 l 119 347 q 193 88 121 179 q 385 -3 265 -3 q 497 17 449 -3 q 594 79 544 38 l 601 69 q 501 8 551 28 q 385 -12 451 -12 q 183 83 257 -12 q 108 353 108 179 q 182 632 108 531 q 382 733 256 733 q 569 642 506 733 q 632 399 632 550 m 621 401 q 561 635 621 547 q 382 722 501 722 q 192 626 263 722 q 119 357 121 531 l 621 357 l 621 401 m 542 1018 l 386 897 l 379 897 l 225 1018 l 232 1025 l 382 910 l 535 1025 l 542 1018 z "},"ȩ":{"ha":733,"x_min":108,"x_max":632,"o":"m 632 399 q 631 347 632 365 l 119 347 q 193 88 121 179 q 385 -3 265 -3 q 497 17 449 -3 q 594 79 544 38 l 601 69 q 501 8 551 28 q 385 -12 451 -12 l 382 -12 l 378 -111 q 503 -196 503 -114 q 474 -262 503 -240 q 401 -285 444 -285 q 314 -261 351 -285 l 319 -253 q 401 -275 356 -275 q 465 -256 439 -275 q 492 -196 492 -236 q 462 -140 492 -158 q 367 -119 432 -121 l 374 -12 q 179 88 250 -8 q 108 353 108 183 q 182 632 108 531 q 382 733 256 733 q 569 642 506 733 q 632 399 632 550 m 621 401 q 561 635 621 547 q 382 722 501 722 q 192 626 263 722 q 119 357 121 531 l 621 357 l 621 401 z "},"ê":{"ha":733,"x_min":108,"x_max":632,"o":"m 632 399 q 631 347 632 365 l 119 347 q 193 88 121 179 q 385 -3 265 -3 q 497 17 449 -3 q 594 79 544 38 l 601 69 q 501 8 551 28 q 385 -12 451 -12 q 183 83 257 -12 q 108 353 108 179 q 182 632 108 531 q 382 733 256 733 q 569 642 506 733 q 632 399 632 550 m 621 401 q 561 635 621 547 q 382 722 501 722 q 192 626 263 722 q 119 357 121 531 l 621 357 l 621 401 m 224 921 l 379 1042 l 386 1042 l 540 921 l 533 914 l 383 1031 l 231 914 l 224 921 z "},"ế":{"ha":733,"x_min":108,"x_max":632,"o":"m 499 928 l 492 933 l 618 1088 l 628 1079 l 499 928 m 231 818 l 224 825 l 378 939 l 385 939 l 540 825 l 533 818 l 381 926 l 231 818 m 632 399 q 631 347 632 365 l 119 347 q 193 88 121 179 q 385 -3 265 -3 q 497 17 449 -3 q 594 79 544 38 l 601 69 q 501 8 551 28 q 385 -12 451 -12 q 183 83 257 -12 q 108 353 108 179 q 182 632 108 531 q 382 733 256 733 q 569 642 506 733 q 632 399 632 550 m 621 401 q 561 635 621 547 q 382 722 501 722 q 192 626 263 722 q 119 357 121 531 l 621 357 l 621 401 z "},"ệ":{"ha":733,"x_min":108,"x_max":632,"o":"m 632 399 q 631 347 632 365 l 119 347 q 193 88 121 179 q 385 -3 265 -3 q 497 17 449 -3 q 594 79 544 38 l 601 69 q 501 8 551 28 q 385 -12 451 -12 q 183 83 257 -12 q 108 353 108 179 q 182 632 108 531 q 382 733 256 733 q 569 642 506 733 q 632 399 632 550 m 621 401 q 561 635 621 547 q 382 722 501 722 q 192 626 263 722 q 119 357 121 531 l 621 357 l 621 401 m 224 921 l 379 1042 l 386 1042 l 540 921 l 533 914 l 383 1031 l 231 914 l 224 921 m 386 -174 q 376 -169 381 -174 q 372 -160 372 -165 q 376 -150 372 -154 q 386 -146 381 -146 q 397 -150 393 -146 q 401 -160 401 -154 q 397 -169 401 -165 q 386 -174 393 -174 z "},"ề":{"ha":733,"x_min":108,"x_max":632,"o":"m 264 928 l 135 1079 l 143 1088 l 271 933 l 264 928 m 224 825 l 378 939 l 385 939 l 540 825 l 533 818 l 381 926 l 231 818 l 224 825 m 632 399 q 631 347 632 365 l 119 347 q 193 88 121 179 q 385 -3 265 -3 q 497 17 449 -3 q 594 79 544 38 l 601 69 q 501 8 551 28 q 385 -12 451 -12 q 183 83 257 -12 q 108 353 108 179 q 182 632 108 531 q 382 733 256 733 q 569 642 506 733 q 632 399 632 550 m 621 401 q 561 635 621 547 q 382 722 501 722 q 192 626 263 722 q 119 357 121 531 l 621 357 l 621 401 z "},"ể":{"ha":733,"x_min":108,"x_max":632,"o":"m 510 1151 q 431 1128 469 1151 l 426 1138 q 511 1161 468 1161 q 576 1140 551 1161 q 601 1081 601 1118 q 576 1019 601 1038 q 507 996 551 1000 l 507 915 l 496 915 l 496 1003 q 565 1024 540 1007 q 589 1081 589 1040 q 567 1133 589 1114 q 510 1151 546 1151 m 231 818 l 224 825 l 378 939 l 385 939 l 540 825 l 533 818 l 381 926 l 231 818 m 632 399 q 631 347 632 365 l 119 347 q 193 88 121 179 q 385 -3 265 -3 q 497 17 449 -3 q 594 79 544 38 l 601 69 q 501 8 551 28 q 385 -12 451 -12 q 183 83 257 -12 q 108 353 108 179 q 182 632 108 531 q 382 733 256 733 q 569 642 506 733 q 632 399 632 550 m 621 401 q 561 635 621 547 q 382 722 501 722 q 192 626 263 722 q 119 357 121 531 l 621 357 l 621 401 z "},"ễ":{"ha":733,"x_min":108,"x_max":632,"o":"m 300 1057 q 256 1046 275 1057 q 215 1008 238 1035 l 207 1014 q 253 1056 232 1043 q 300 1068 274 1068 q 335 1060 318 1068 q 378 1038 353 1053 q 420 1015 401 1022 q 458 1007 439 1007 q 505 1019 486 1007 q 546 1060 524 1031 l 553 1056 q 509 1010 531 1024 q 458 997 488 997 q 419 1005 438 997 q 372 1029 400 1013 q 331 1051 344 1044 q 300 1057 317 1057 m 385 931 l 540 817 l 533 810 l 381 918 l 231 810 l 224 817 l 378 931 l 385 931 m 632 399 q 631 347 632 365 l 119 347 q 193 88 121 179 q 385 -3 265 -3 q 497 17 449 -3 q 594 79 544 38 l 601 69 q 501 8 551 28 q 385 -12 451 -12 q 183 83 257 -12 q 108 353 108 179 q 182 632 108 531 q 382 733 256 733 q 569 642 506 733 q 632 399 632 550 m 621 401 q 561 635 621 547 q 382 722 501 722 q 192 626 263 722 q 119 357 121 531 l 621 357 l 621 401 z "},"ȅ":{"ha":733,"x_min":108,"x_max":632,"o":"m 632 399 q 631 347 632 365 l 119 347 q 193 88 121 179 q 385 -3 265 -3 q 497 17 449 -3 q 594 79 544 38 l 601 69 q 501 8 551 28 q 385 -12 451 -12 q 183 83 257 -12 q 108 353 108 179 q 182 632 108 531 q 382 733 256 733 q 569 642 506 733 q 632 399 632 550 m 621 401 q 561 635 621 547 q 382 722 501 722 q 192 626 263 722 q 119 357 121 531 l 621 357 l 621 401 m 322 919 l 313 914 l 217 1088 l 228 1093 l 322 919 m 463 922 l 454 918 l 365 1083 l 376 1089 l 463 922 z "},"ë":{"ha":733,"x_min":108,"x_max":632,"o":"m 632 399 q 631 347 632 365 l 119 347 q 193 88 121 179 q 385 -3 265 -3 q 497 17 449 -3 q 594 79 544 38 l 601 69 q 501 8 551 28 q 385 -12 451 -12 q 183 83 257 -12 q 108 353 108 179 q 182 632 108 531 q 382 733 256 733 q 569 642 506 733 q 632 399 632 550 m 621 401 q 561 635 621 547 q 382 722 501 722 q 192 626 263 722 q 119 357 121 531 l 621 357 l 621 401 m 275 968 q 289 954 289 968 q 275 940 289 940 q 265 944 269 940 q 261 954 261 949 q 275 968 261 968 m 489 968 q 503 954 503 968 q 489 940 503 940 q 479 944 483 940 q 475 954 475 949 q 489 968 475 968 z "},"ė":{"ha":733,"x_min":108,"x_max":632,"o":"m 632 399 q 631 347 632 365 l 119 347 q 193 88 121 179 q 385 -3 265 -3 q 497 17 449 -3 q 594 79 544 38 l 601 69 q 501 8 551 28 q 385 -12 451 -12 q 183 83 257 -12 q 108 353 108 179 q 182 632 108 531 q 382 733 256 733 q 569 642 506 733 q 632 399 632 550 m 621 401 q 561 635 621 547 q 382 722 501 722 q 192 626 263 722 q 119 357 121 531 l 621 357 l 621 401 m 382 988 q 393 983 389 988 q 397 974 397 979 q 393 964 397 968 q 382 960 389 960 q 372 964 376 960 q 368 974 368 968 q 372 983 368 979 q 382 988 376 988 z "},"ẹ":{"ha":733,"x_min":108,"x_max":632,"o":"m 632 399 q 631 347 632 365 l 119 347 q 193 88 121 179 q 385 -3 265 -3 q 497 17 449 -3 q 594 79 544 38 l 601 69 q 501 8 551 28 q 385 -12 451 -12 q 183 83 257 -12 q 108 353 108 179 q 182 632 108 531 q 382 733 256 733 q 569 642 506 733 q 632 399 632 550 m 621 401 q 561 635 621 547 q 382 722 501 722 q 192 626 263 722 q 119 357 121 531 l 621 357 l 621 401 m 386 -174 q 376 -169 381 -174 q 372 -160 372 -165 q 376 -150 372 -154 q 386 -146 381 -146 q 397 -150 393 -146 q 401 -160 401 -154 q 397 -169 401 -165 q 386 -174 393 -174 z "},"è":{"ha":733,"x_min":108,"x_max":632,"o":"m 632 399 q 631 347 632 365 l 119 347 q 193 88 121 179 q 385 -3 265 -3 q 497 17 449 -3 q 594 79 544 38 l 601 69 q 501 8 551 28 q 385 -12 451 -12 q 183 83 257 -12 q 108 353 108 179 q 182 632 108 531 q 382 733 256 733 q 569 642 506 733 q 632 399 632 550 m 621 401 q 561 635 621 547 q 382 722 501 722 q 192 626 263 722 q 119 357 121 531 l 621 357 l 621 401 m 508 925 l 504 917 l 268 1031 l 274 1043 l 508 925 z "},"ẻ":{"ha":733,"x_min":108,"x_max":632,"o":"m 632 399 q 631 347 632 365 l 119 347 q 193 88 121 179 q 385 -3 265 -3 q 497 17 449 -3 q 594 79 544 38 l 601 69 q 501 8 551 28 q 385 -12 451 -12 q 183 83 257 -12 q 108 353 108 179 q 182 632 108 531 q 382 733 256 733 q 569 642 506 733 q 632 399 632 550 m 621 401 q 561 635 621 547 q 382 722 501 722 q 192 626 263 722 q 119 357 121 531 l 621 357 l 621 401 m 374 954 q 442 975 418 958 q 467 1032 467 992 q 445 1084 467 1065 q 388 1103 424 1103 q 308 1079 347 1103 l 304 1089 q 389 1113 346 1113 q 454 1091 429 1113 q 479 1032 479 1069 q 454 970 479 989 q 385 947 429 951 l 385 867 l 374 867 l 374 954 z "},"ȇ":{"ha":733,"x_min":108,"x_max":632,"o":"m 632 399 q 631 347 632 365 l 119 347 q 193 88 121 179 q 385 -3 265 -3 q 497 17 449 -3 q 594 79 544 38 l 601 69 q 501 8 551 28 q 385 -12 451 -12 q 183 83 257 -12 q 108 353 108 179 q 182 632 108 531 q 382 733 256 733 q 569 642 506 733 q 632 399 632 550 m 621 401 q 561 635 621 547 q 382 722 501 722 q 192 626 263 722 q 119 357 121 531 l 621 357 l 621 401 m 383 999 q 474 970 439 999 q 521 896 510 942 l 513 893 q 465 964 499 939 q 383 989 432 989 q 300 964 333 989 q 253 893 267 939 l 244 896 q 292 970 257 942 q 383 999 328 999 z "},"ē":{"ha":733,"x_min":108,"x_max":632,"o":"m 632 399 q 631 347 632 365 l 119 347 q 193 88 121 179 q 385 -3 265 -3 q 497 17 449 -3 q 594 79 544 38 l 601 69 q 501 8 551 28 q 385 -12 451 -12 q 183 83 257 -12 q 108 353 108 179 q 182 632 108 531 q 382 733 256 733 q 569 642 506 733 q 632 399 632 550 m 621 401 q 561 635 621 547 q 382 722 501 722 q 192 626 263 722 q 119 357 121 531 l 621 357 l 621 401 m 247 956 l 247 967 l 518 967 l 518 956 l 247 956 z "},"ę":{"ha":733,"x_min":108,"x_max":632,"o":"m 632 399 q 631 347 632 365 l 119 347 q 193 88 121 179 q 385 -3 265 -3 q 497 17 449 -3 q 594 79 544 38 l 601 69 q 486 3 543 22 q 311 -161 311 -65 q 339 -232 311 -207 q 414 -257 367 -257 q 488 -246 449 -257 l 488 -257 q 414 -268 447 -268 q 331 -240 361 -268 q 300 -161 300 -212 q 444 -8 300 -71 q 385 -12 418 -12 q 183 83 257 -12 q 108 353 108 179 q 182 632 108 531 q 382 733 256 733 q 569 642 506 733 q 632 399 632 550 m 621 401 q 561 635 621 547 q 382 722 501 722 q 192 626 263 722 q 119 357 121 531 l 621 357 l 621 401 z "},"ɛ":{"ha":622,"x_min":108,"x_max":569,"o":"m 360 733 q 558 671 472 733 l 551 663 q 360 722 471 722 q 206 675 264 722 q 149 547 149 628 q 201 431 149 476 q 353 385 254 385 l 431 385 l 431 374 l 350 374 q 179 325 239 374 q 119 189 119 276 q 182 49 119 101 q 349 -3 244 -3 q 471 17 421 -3 q 564 78 521 38 l 569 69 q 474 8 526 29 q 347 -12 422 -12 q 174 42 240 -12 q 108 189 108 96 q 163 325 108 276 q 314 379 218 374 q 183 433 229 389 q 138 547 138 478 q 199 683 138 633 q 360 733 260 733 z "},"ʚ":{"ha":756,"x_min":108,"x_max":647,"o":"m 354 -12 q 174 44 239 -12 q 108 199 108 100 q 160 333 108 290 q 313 382 211 376 q 184 433 226 390 q 142 547 142 475 q 198 683 142 632 q 357 733 254 733 q 569 635 492 733 q 647 358 647 536 q 572 85 647 183 q 354 -12 497 -12 m 351 -3 q 563 92 490 -3 q 636 358 636 188 q 562 627 636 532 q 357 722 488 722 q 206 674 258 722 q 153 547 153 626 q 201 430 153 474 q 358 386 250 386 l 415 386 l 417 376 l 356 376 q 176 333 232 376 q 119 199 119 290 q 181 51 119 104 q 351 -3 242 -3 z "},"ɜ":{"ha":644,"x_min":53,"x_max":536,"o":"m 299 733 q 449 683 393 733 q 504 553 504 633 q 461 434 504 478 q 333 382 418 390 q 485 333 433 376 q 536 199 536 289 q 473 44 536 101 q 303 -12 410 -12 q 162 13 219 -12 q 53 85 104 39 l 60 92 q 167 22 113 47 q 303 -3 222 -3 q 465 51 406 -3 q 525 199 525 104 q 468 333 525 289 q 289 376 411 376 l 211 376 l 213 386 l 288 386 q 443 431 394 386 q 492 553 492 476 q 441 676 492 629 q 299 722 390 722 q 183 706 232 722 q 78 653 133 689 l 72 661 q 179 715 126 697 q 299 733 232 733 z "},"ɞ":{"ha":756,"x_min":108,"x_max":647,"o":"m 401 -12 q 184 85 260 -12 q 108 358 108 183 q 186 635 108 536 q 399 733 264 733 q 558 683 501 733 q 615 547 615 632 q 572 433 615 475 q 444 382 529 390 q 597 333 546 376 q 647 199 647 290 q 582 44 647 100 q 401 -12 517 -12 m 404 -3 q 575 51 514 -3 q 636 199 636 104 q 580 333 636 290 q 400 376 524 376 l 339 376 l 340 386 l 399 386 q 554 430 506 386 q 603 547 603 474 q 550 674 603 626 q 399 722 497 722 q 194 627 268 722 q 119 358 119 532 q 192 92 119 188 q 404 -3 265 -3 z "},"ɝ":{"ha":796,"x_min":53,"x_max":849,"o":"m 849 510 q 799 481 825 492 q 735 469 772 469 q 645 506 678 469 q 613 608 613 542 l 613 708 l 476 651 q 504 553 504 608 q 461 434 504 478 q 333 382 418 390 q 485 333 433 376 q 536 199 536 289 q 473 44 536 101 q 303 -12 410 -12 q 162 13 219 -12 q 53 85 104 39 l 60 92 q 167 22 113 47 q 303 -3 222 -3 q 465 51 406 -3 q 525 199 525 104 q 468 333 525 289 q 289 376 411 376 l 211 376 l 213 386 l 288 386 q 443 431 394 386 q 492 553 492 476 q 441 676 492 629 q 299 722 390 722 q 183 706 232 722 q 78 653 133 689 l 72 661 q 179 715 126 697 q 299 733 232 733 q 401 714 357 733 q 471 660 444 694 l 613 719 l 624 719 l 624 608 q 653 512 624 544 q 735 479 683 479 q 794 489 769 479 q 843 518 819 499 l 849 510 z "},"ɘ":{"ha":733,"x_min":101,"x_max":625,"o":"m 364 733 q 558 637 490 733 q 625 353 625 540 q 551 83 625 179 q 349 -12 476 -12 q 233 8 283 -12 q 132 69 183 28 l 139 79 q 237 17 189 38 q 349 -3 285 -3 q 540 88 468 -3 q 614 347 613 179 l 103 347 q 101 399 101 365 q 169 641 101 549 q 364 733 238 733 m 113 401 q 114 357 113 374 l 614 357 q 548 631 613 540 q 364 722 483 722 q 177 633 242 722 q 113 401 113 544 z "},"ʃ":{"ha":358,"x_min":-51,"x_max":410,"o":"m 296 1019 q 410 979 361 1019 l 404 972 q 357 1000 382 990 q 296 1010 332 1010 q 215 977 244 1010 q 185 881 185 944 l 185 -131 q 151 -233 185 -197 q 63 -269 118 -269 q -1 -258 25 -269 q -51 -229 -28 -247 l -46 -221 q 1 -249 -24 -239 q 63 -258 26 -258 q 144 -226 114 -258 q 174 -131 174 -193 l 174 881 q 207 983 174 947 q 296 1019 240 1019 z "},"ʆ":{"ha":375,"x_min":-100,"x_max":426,"o":"m 313 1010 q 231 977 261 1010 q 201 881 201 944 l 201 -43 q 314 -86 260 -60 l 311 -94 q 201 -53 261 -71 q 35 -269 199 -269 q -63 -237 -26 -269 q -100 -154 -100 -204 q -56 -59 -100 -94 q 61 -24 -12 -24 q 190 -40 126 -24 l 190 881 q 224 983 190 947 q 313 1019 257 1019 q 426 979 378 1019 l 421 972 q 374 1000 399 990 q 313 1010 349 1010 m 35 -258 q 190 -50 190 -258 q 61 -35 126 -35 q -49 -67 -8 -35 q -89 -154 -89 -99 q -56 -230 -89 -201 q 35 -258 -22 -258 z "},"ƪ":{"ha":360,"x_min":-50,"x_max":410,"o":"m 410 -229 q 297 -269 361 -269 q 208 -233 242 -269 q 175 -131 175 -197 l 175 763 q 71 729 132 729 q -17 765 15 729 q -50 869 -50 801 q -16 977 -50 935 q 74 1019 18 1019 q 156 985 126 1019 q 186 893 186 951 l 186 -131 q 216 -226 186 -193 q 297 -258 246 -258 q 357 -249 332 -258 q 404 -221 382 -239 l 410 -229 m 72 739 q 175 772 129 739 l 175 893 q 148 978 175 947 q 74 1010 121 1010 q -8 971 22 1010 q -39 869 -39 932 q -9 772 -39 804 q 72 739 21 739 z "},"ʅ":{"ha":529,"x_min":35,"x_max":494,"o":"m 494 26 q 382 -12 447 -12 q 293 24 326 -12 q 260 126 260 60 l 260 594 q 229 690 260 657 q 147 722 199 722 q 88 713 113 722 q 40 685 63 703 l 35 693 q 147 733 83 733 q 238 697 204 733 q 271 594 271 661 l 271 126 q 301 30 271 63 q 382 -3 331 -3 q 442 7 417 -3 q 489 35 467 17 l 494 26 z "},"ɇ":{"ha":733,"x_min":108,"x_max":632,"o":"m 368 347 l 278 21 q 385 -3 328 -3 q 497 17 449 -3 q 594 79 544 38 l 601 69 q 501 8 551 28 q 385 -12 451 -12 q 275 10 321 -12 l 249 -83 l 240 -82 l 267 14 q 150 138 192 51 q 108 353 108 225 q 182 632 108 531 q 382 733 256 733 q 461 721 426 733 l 485 808 l 493 807 l 469 718 q 591 605 550 689 q 632 399 632 521 q 631 347 632 365 l 368 347 m 382 722 q 192 626 263 722 q 119 357 121 531 l 361 357 l 458 711 q 382 722 422 722 m 621 401 q 583 599 621 518 q 467 708 544 681 l 369 357 l 621 357 l 621 401 m 358 347 l 119 347 q 160 143 121 225 q 269 25 199 61 l 358 347 z "},"ẽ":{"ha":733,"x_min":108,"x_max":632,"o":"m 632 399 q 631 347 632 365 l 119 347 q 193 88 121 179 q 385 -3 265 -3 q 497 17 449 -3 q 594 79 544 38 l 601 69 q 501 8 551 28 q 385 -12 451 -12 q 183 83 257 -12 q 108 353 108 179 q 182 632 108 531 q 382 733 256 733 q 569 642 506 733 q 632 399 632 550 m 621 401 q 561 635 621 547 q 382 722 501 722 q 192 626 263 722 q 119 357 121 531 l 621 357 l 621 401 m 464 950 q 424 958 443 950 q 378 982 406 965 q 336 1003 350 997 q 306 1010 322 1010 q 262 999 281 1010 q 221 961 243 988 l 213 967 q 258 1008 238 996 q 306 1021 279 1021 q 341 1013 324 1021 q 383 990 358 1006 q 426 967 407 975 q 464 960 444 960 q 510 972 492 960 q 551 1013 529 983 l 558 1008 q 515 963 536 976 q 464 950 493 950 z "},"ǝ":{"ha":738,"x_min":101,"x_max":631,"o":"m 369 733 q 562 638 493 733 q 631 367 631 542 q 560 81 631 174 q 364 -12 490 -12 q 171 81 240 -12 q 101 335 101 175 q 103 372 101 360 l 618 372 q 552 632 618 542 q 369 722 486 722 q 153 647 254 722 l 146 654 q 369 733 251 733 m 364 -3 q 551 88 485 -3 q 618 363 618 178 l 114 363 q 113 335 113 354 q 179 88 113 179 q 364 -3 246 -3 z "},"ʒ":{"ha":611,"x_min":39,"x_max":557,"o":"m 257 265 q 481 198 406 265 q 557 1 557 131 q 485 -194 557 -119 q 289 -269 413 -269 q 149 -242 208 -269 q 39 -158 90 -214 l 47 -153 q 154 -232 97 -206 q 289 -258 211 -258 q 476 -187 408 -258 q 544 1 544 -115 q 257 256 544 256 l 186 256 l 186 265 l 503 708 l 61 708 l 61 719 l 517 719 l 517 710 l 200 265 l 257 265 z "},"ǯ":{"ha":611,"x_min":39,"x_max":557,"o":"m 257 265 q 481 198 406 265 q 557 1 557 131 q 485 -194 557 -119 q 289 -269 413 -269 q 149 -242 208 -269 q 39 -158 90 -214 l 47 -153 q 154 -232 97 -206 q 289 -258 211 -258 q 476 -187 408 -258 q 544 1 544 -115 q 257 256 544 256 l 186 256 l 186 265 l 503 708 l 61 708 l 61 719 l 517 719 l 517 710 l 200 265 l 257 265 m 449 1018 l 293 897 l 286 897 l 132 1018 l 139 1025 l 289 910 l 442 1025 l 449 1018 z "},"ʓ":{"ha":611,"x_min":22,"x_max":557,"o":"m 557 4 q 518 -142 557 -79 q 406 -237 479 -204 l 444 -324 l 435 -326 l 396 -242 q 242 -269 328 -269 q 79 -227 136 -269 q 22 -112 22 -185 q 58 -19 22 -56 q 154 18 94 18 q 284 -37 229 18 q 401 -228 339 -92 q 508 -137 471 -197 q 546 3 546 -76 q 473 192 546 129 q 257 256 400 256 l 186 256 l 186 265 l 499 708 l 61 708 l 61 719 l 513 719 l 513 710 l 200 265 l 257 265 q 481 199 406 265 q 557 4 557 132 m 33 -112 q 88 -220 33 -182 q 242 -258 143 -258 q 390 -232 324 -258 q 277 -45 329 -99 q 154 8 225 8 q 65 -25 97 8 q 33 -112 33 -58 z "},"ƹ":{"ha":611,"x_min":54,"x_max":572,"o":"m 572 -158 q 460 -242 521 -214 q 314 -269 400 -269 q 177 -236 236 -269 q 86 -142 118 -203 q 54 -6 54 -82 q 131 194 54 122 q 356 265 207 265 l 411 265 l 93 710 l 93 719 l 549 719 l 549 708 l 108 708 l 424 265 l 424 256 l 354 256 q 139 188 213 256 q 65 -6 65 119 q 133 -188 65 -118 q 314 -258 200 -258 q 455 -232 396 -258 q 564 -153 514 -206 l 572 -158 z "},"ƺ":{"ha":614,"x_min":65,"x_max":549,"o":"m 208 -267 q 67 -132 67 -226 q 119 -42 67 -74 q 299 3 172 -10 q 483 59 429 14 q 538 194 538 104 q 487 318 538 279 q 335 357 436 357 l 164 357 l 164 367 l 493 708 l 65 708 l 65 719 l 508 719 l 508 710 l 178 367 l 336 367 q 549 194 549 367 q 491 53 549 100 q 300 -8 433 6 q 128 -48 179 -18 q 78 -132 78 -78 q 111 -208 78 -178 q 213 -257 144 -239 l 208 -267 z "},"f":{"ha":418,"x_min":47,"x_max":489,"o":"m 333 1010 q 226 971 267 1010 q 185 857 185 932 l 185 719 l 393 719 l 392 708 l 185 708 l 185 0 l 174 0 l 174 708 l 47 708 l 47 719 l 174 719 l 174 858 q 217 978 174 936 q 333 1019 261 1019 q 489 975 417 1019 l 485 965 q 333 1010 413 1010 z "},"ḟ":{"ha":418,"x_min":47,"x_max":489,"o":"m 333 1010 q 226 971 267 1010 q 185 857 185 932 l 185 719 l 393 719 l 392 708 l 185 708 l 185 0 l 174 0 l 174 708 l 47 708 l 47 719 l 174 719 l 174 858 q 217 978 174 936 q 333 1019 261 1019 q 489 975 417 1019 l 485 965 q 333 1010 413 1010 m 336 1229 q 347 1225 343 1229 q 351 1215 351 1221 q 347 1206 351 1210 q 336 1201 343 1201 q 326 1206 331 1201 q 322 1215 322 1210 q 326 1225 322 1221 q 336 1229 331 1229 z "},"ʩ":{"ha":1206,"x_min":47,"x_max":1042,"o":"m 853 733 q 1042 511 1042 733 l 1042 -131 q 1008 -233 1042 -197 q 919 -269 975 -269 q 856 -258 882 -269 q 806 -229 829 -247 l 811 -221 q 858 -249 833 -239 q 919 -258 883 -258 q 1001 -226 971 -258 q 1031 -131 1031 -193 l 1031 511 q 853 722 1031 722 q 581 536 688 722 l 581 0 l 569 0 l 569 708 l 185 708 l 185 0 l 174 0 l 174 708 l 47 708 l 47 719 l 174 719 l 174 858 q 217 978 174 936 q 333 1019 261 1019 q 489 975 417 1019 l 485 965 q 333 1010 413 1010 q 226 971 267 1010 q 185 857 185 932 l 185 719 l 569 719 l 579 719 l 581 553 q 853 733 689 733 z "},"g":{"ha":676,"x_min":72,"x_max":646,"o":"m 646 746 q 397 724 564 724 q 535 647 488 708 q 583 494 583 586 q 519 328 583 389 q 344 268 454 268 q 231 293 285 268 q 154 178 154 247 q 191 106 154 132 q 301 81 228 81 l 426 81 q 577 37 524 81 q 631 -81 631 -7 q 350 -269 631 -269 q 138 -226 203 -269 q 72 -82 72 -183 l 83 -82 q 145 -219 83 -179 q 350 -258 207 -258 q 619 -82 619 -258 q 568 30 619 -11 q 426 71 517 71 l 301 71 q 183 99 224 71 q 143 176 143 128 q 221 297 143 247 q 100 496 100 360 q 166 668 100 603 q 336 733 232 733 q 535 738 481 732 q 642 758 590 744 l 646 746 m 336 722 q 173 659 235 722 q 111 496 111 596 q 144 377 111 426 q 231 303 178 328 q 344 278 285 278 q 510 335 449 278 q 572 494 572 392 q 506 666 572 610 q 336 722 439 722 z "}}}
